<?xml version="1.0" standalone="no"?>
<!DOCTYPE svg PUBLIC "-//W3C//DTD SVG 20010904//EN"
 "http://www.w3.org/TR/2001/REC-SVG-20010904/DTD/svg10.dtd">
<svg version="1.0" xmlns="http://www.w3.org/2000/svg"
 width="1920.000000pt" height="1080.000000pt" viewBox="0 0 1920.000000 1080.000000"
 preserveAspectRatio="xMidYMid meet">

<g transform="translate(0.000000,1080.000000) scale(0.100000,-0.100000)"
fill="#000000" stroke="none">
<path d="M710 10779 c9 -15 8 -39 0 -91 -13 -76 -3 -232 11 -173 5 24 7 25 8
8 1 -26 19 -31 27 -8 4 8 14 15 25 15 10 0 23 9 29 19 10 19 32 34 95 64 17 8
50 33 73 55 24 23 47 42 51 42 5 0 24 32 49 83 2 4 -83 7 -188 7 -190 0 -191
0 -180 -21z"/>
<path d="M1530 10705 c0 -110 32 -273 64 -325 16 -27 21 -51 21 -105 0 -78
-17 -112 -67 -134 -16 -7 -28 -18 -28 -25 0 -9 -21 -9 -97 0 -132 17 -146 21
-139 41 6 14 -2 15 -66 8 -40 -4 -86 -8 -103 -10 -39 -2 -75 -15 -75 -26 0 -5
-17 -9 -38 -9 -37 0 -81 -28 -66 -42 3 -4 0 -17 -7 -30 -7 -12 -12 -50 -12
-84 1 -52 5 -65 27 -88 17 -17 38 -26 57 -26 22 0 32 -6 36 -19 6 -22 75 -54
84 -39 4 6 19 6 39 1 18 -5 67 -5 109 0 112 12 245 11 249 -2 2 -7 20 -26 39
-45 27 -26 36 -42 38 -72 3 -49 16 -82 50 -122 15 -18 24 -32 20 -32 -4 0 -2
-7 5 -15 17 -21 25 -19 55 10 16 17 25 37 25 57 0 17 3 28 6 25 4 -4 15 2 25
14 9 11 34 23 54 26 32 5 40 2 60 -23 17 -22 22 -37 18 -61 -4 -22 -2 -33 7
-33 6 0 -8 -16 -32 -36 -39 -33 -128 -178 -128 -210 0 -14 -44 -44 -65 -44 -8
0 -15 -8 -16 -17 -1 -10 -5 0 -10 21 -7 27 -6 42 2 46 6 4 -8 10 -31 14 -23 3
-46 4 -51 0 -5 -3 -16 -1 -23 5 -10 8 -16 7 -25 -3 -7 -8 -20 -12 -28 -9 -10
4 -14 2 -10 -4 6 -10 -123 -83 -147 -83 -7 0 -32 -17 -55 -38 -37 -34 -43 -44
-46 -85 -2 -41 1 -51 32 -82 19 -20 48 -38 64 -42 16 -3 34 -12 40 -19 6 -8
16 -14 22 -14 6 0 25 -10 43 -22 l32 -22 -2 -100 c-1 -95 0 -101 19 -102 11 0
25 4 31 8 13 9 69 10 118 1 25 -5 27 -8 22 -35 -3 -16 -2 -27 3 -24 16 10 19
-19 5 -39 -8 -10 -14 -27 -14 -37 0 -10 -4 -18 -8 -18 -17 0 -92 -74 -92 -91
0 -14 -12 -19 -55 -24 -30 -4 -55 -11 -55 -15 0 -5 -16 -14 -35 -20 -19 -6
-33 -15 -30 -20 3 -4 -3 -11 -12 -14 -9 -4 -20 -2 -23 5 -7 11 -63 -13 -104
-46 -21 -16 -21 -17 8 -32 17 -9 14 -12 -22 -18 -41 -7 -42 -8 -42 -45 0 -21
7 -53 14 -72 12 -27 13 -49 6 -99 -5 -35 -10 -68 -10 -72 0 -5 -5 -5 -10 -2
-6 3 -10 -3 -10 -14 0 -11 -4 -23 -10 -26 -5 -3 -10 -15 -10 -27 0 -16 -5 -19
-25 -16 -14 3 -25 2 -25 -3 0 -4 -30 1 -67 12 -75 21 -128 24 -200 10 -72 -15
-183 -21 -183 -11 0 5 -6 15 -12 22 -28 29 -58 102 -58 140 l0 40 40 -7 c30
-5 40 -3 40 6 0 8 20 32 45 56 25 23 45 45 45 50 0 13 118 123 146 135 13 6
26 19 30 30 3 10 9 16 13 14 4 -3 19 6 34 20 14 13 29 24 32 24 3 0 25 20 48
44 24 24 52 46 64 50 23 7 50 52 38 63 -4 5 -10 2 -12 -4 -8 -21 -23 -15 -23
10 -1 32 -23 57 -53 57 -18 0 -25 4 -21 14 3 7 -7 21 -23 31 -40 26 -67 59
-79 98 -4 9 -10 17 -15 17 -5 0 -9 7 -9 15 0 8 -8 15 -19 15 -10 0 -24 7 -31
15 -9 11 -33 15 -91 15 -74 0 -79 1 -79 21 0 16 -3 19 -12 11 -7 -5 -31 -8
-53 -7 -22 2 -46 -2 -53 -8 -17 -13 -116 -29 -181 -28 -25 0 -51 -5 -59 -11
-11 -10 -195 -14 -262 -5 -8 1 -34 -2 -57 -7 l-43 -8 0 -867 0 -866 22 -10
c13 -6 22 -16 21 -23 -2 -7 6 -12 17 -12 11 0 20 -7 20 -15 0 -7 7 -18 14 -22
8 -5 21 -22 28 -39 21 -50 136 -164 165 -164 16 0 33 -111 37 -235 1 -66 6
-130 11 -142 6 -18 4 -23 -9 -23 -12 0 -16 10 -16 40 0 33 -3 40 -20 40 -16 0
-20 -7 -20 -35 0 -41 26 -75 57 -75 32 0 37 -32 13 -81 -16 -31 -19 -44 -10
-49 9 -6 9 -9 -1 -12 -11 -4 -11 -10 -3 -24 8 -15 8 -22 -1 -31 -7 -7 -16 -9
-19 -6 -9 10 -7 -1 9 -46 13 -39 13 -41 -6 -41 -12 0 -17 -4 -14 -11 4 -6 13
-8 21 -5 20 8 26 -10 8 -24 -11 -10 -23 -11 -49 -2 -37 11 -47 1 -18 -18 13
-8 14 -13 6 -16 -20 -9 -17 -168 3 -199 9 -13 13 -33 9 -44 -7 -22 28 -53 51
-44 8 3 14 1 14 -4 0 -6 9 -20 20 -33 11 -13 20 -36 20 -52 0 -15 5 -28 10
-28 6 0 10 5 10 10 0 6 18 10 40 10 22 0 40 -4 40 -10 0 -31 86 4 99 40 8 24
9 24 16 -12 11 -57 34 -50 25 7 -6 42 -20 74 -20 47 0 -7 -5 -12 -11 -12 -8 0
-10 17 -6 54 4 43 2 56 -10 60 -10 4 -12 10 -6 19 5 6 11 28 12 47 3 64 8 85
22 110 7 14 13 28 14 31 0 3 8 14 18 24 10 9 16 24 13 31 -4 10 4 14 32 14 20
0 50 7 66 15 15 8 41 15 55 15 15 0 58 9 94 21 51 16 67 25 67 39 0 10 5 20
11 22 7 2 12 18 13 36 0 18 6 32 13 32 7 0 18 10 24 22 29 54 105 138 125 138
11 0 29 7 40 15 10 8 31 15 46 15 15 0 33 7 41 15 28 28 221 17 267 -15 14
-10 40 -21 58 -25 18 -3 30 -11 26 -16 -3 -5 6 -9 19 -9 13 0 45 -3 70 -6 43
-6 46 -5 52 19 4 14 18 35 31 48 13 12 24 28 24 36 0 7 9 18 20 25 11 7 20 18
20 25 0 7 9 13 19 13 11 0 26 7 35 15 8 8 45 22 83 31 37 9 83 23 101 32 39
19 131 20 142 2 5 -9 51 -13 152 -16 79 -1 156 -6 170 -9 30 -8 78 -93 78
-139 0 -15 7 -34 15 -43 8 -8 12 -19 9 -25 -5 -7 2 -9 21 -4 19 5 31 3 36 -6
7 -10 9 -10 9 0 0 16 69 16 109 -1 25 -11 28 -16 18 -26 -9 -10 -9 -15 3 -24
8 -7 15 -18 16 -24 1 -7 2 -27 3 -44 0 -17 5 -28 11 -24 6 4 10 -7 10 -24 0
-17 -5 -31 -11 -31 -7 0 -10 -23 -8 -62 1 -35 -1 -70 -4 -78 -11 -25 -25 -142
-19 -164 3 -12 10 -24 16 -28 8 -6 7 -11 -3 -17 -10 -7 -12 -24 -7 -77 4 -38
10 -79 13 -91 3 -16 1 -23 -9 -23 -21 0 -68 -56 -68 -80 0 -16 -7 -20 -37 -20
l-38 0 0 -69 0 -69 95 -4 c52 -3 106 -2 119 2 22 5 20 7 -18 19 -54 16 -48 35
13 39 55 4 68 23 59 91 -5 33 -10 41 -26 41 -11 0 -17 3 -13 7 4 4 19 7 34 8
22 0 27 5 27 24 0 13 6 26 13 28 6 3 12 1 12 -4 0 -15 43 -13 54 2 8 11 46 16
139 21 70 4 127 11 127 16 0 4 10 18 23 31 l22 22 -22 3 c-25 4 -32 22 -9 22
8 0 23 16 35 35 11 19 25 35 31 35 6 0 15 10 21 23 16 35 59 103 59 93 0 -5
13 9 29 31 31 43 83 73 128 73 19 0 24 3 15 9 -9 5 3 10 34 15 63 8 112 8 116
-2 3 -7 97 -34 163 -47 50 -10 114 -27 165 -45 30 -11 75 -22 98 -26 24 -4 56
-17 71 -29 14 -13 46 -28 69 -34 30 -9 42 -17 42 -30 0 -25 55 -71 86 -71 13
0 24 -4 24 -10 0 -5 6 -10 14 -10 7 0 21 -11 30 -25 9 -14 33 -29 58 -36 24
-7 48 -19 55 -27 7 -8 19 -12 27 -9 9 4 18 2 21 -3 3 -5 -3 -11 -12 -13 -12
-3 -8 -5 9 -6 15 0 30 -5 33 -11 3 -5 41 -10 83 -10 70 -1 79 -3 95 -25 15
-21 15 -25 3 -25 -8 0 -18 5 -21 10 -8 13 -92 13 -100 0 -5 -8 55 -14 92 -9 3
0 10 -6 15 -15 5 -9 13 -14 18 -11 5 3 11 1 15 -5 3 -5 15 -10 25 -10 10 0 21
-9 25 -19 3 -11 25 -38 47 -61 40 -40 49 -42 91 -25 12 5 17 2 17 -9 0 -12 10
-16 45 -16 43 0 45 -1 45 -29 0 -16 8 -35 17 -42 11 -10 14 -10 9 -1 -4 6 -2
12 3 12 6 0 14 0 19 0 4 0 8 -4 8 -10 1 -5 2 -15 3 -20 1 -7 7 -7 20 0 11 5
52 11 90 13 59 2 71 5 71 19 0 9 -8 21 -17 27 -13 7 -17 23 -18 68 0 39 -5 62
-15 70 -13 11 -13 14 -1 22 11 7 12 13 4 23 -17 23 -43 98 -33 98 5 0 3 15 -5
34 -8 19 -13 41 -10 48 2 7 6 29 8 48 5 41 64 176 74 167 3 -4 13 2 20 13 11
15 14 47 12 122 -2 71 1 103 9 106 7 2 12 12 12 23 0 21 48 74 93 104 38 25
160 43 226 33 115 -17 141 -18 141 -7 0 34 35 -28 89 -155 77 -180 129 -287
191 -391 28 -45 50 -86 50 -90 0 -12 82 -106 88 -100 5 4 -29 118 -81 270 -18
53 -29 96 -67 270 -5 22 -13 52 -19 67 -6 15 -13 58 -16 95 l-6 68 16 -40 c9
-22 19 -49 22 -60 3 -11 9 -24 13 -30 4 -5 10 -23 14 -38 12 -49 120 -259 137
-265 5 -2 9 -8 9 -14 0 -15 88 -137 132 -183 96 -100 173 -174 176 -170 3 2
-11 28 -30 57 -35 52 -158 297 -158 313 0 4 -11 31 -24 60 -14 28 -31 69 -39
91 -8 21 -24 63 -35 92 -15 36 -18 52 -9 52 12 0 47 -73 47 -98 0 -6 5 -12 10
-12 6 0 10 -6 10 -13 0 -18 34 -79 99 -177 31 -47 61 -93 66 -102 66 -112 192
-273 293 -373 l82 -83 -10 -49 c-6 -26 -20 -97 -31 -158 -42 -224 -63 -315
-87 -375 -6 -14 -20 -48 -31 -77 -43 -107 -20 -194 79 -291 88 -87 139 -102
393 -117 l118 -7 16 -37 c36 -83 48 -125 58 -193 11 -81 33 -111 90 -122 6 -1
17 -6 26 -10 10 -4 62 -6 116 -4 l99 3 11 -122 c9 -89 16 -129 30 -147 18 -26
166 -106 195 -106 9 0 26 -11 39 -25 13 -13 29 -25 36 -25 16 0 64 -65 97
-132 16 -32 32 -58 37 -58 5 0 9 -11 9 -24 0 -14 5 -28 10 -31 6 -3 10 -13 10
-22 0 -8 6 -29 14 -46 30 -70 36 -89 36 -107 0 -11 8 -28 18 -38 19 -19 52
-97 52 -122 0 -12 -2 -12 -9 -2 -4 8 -12 12 -17 10 -4 -1 -12 15 -16 37 -5 21
-17 49 -28 60 -11 12 -20 25 -20 29 0 18 -26 33 -45 25 -16 -6 -16 -8 -4 -8
14 -1 29 -20 29 -36 0 -3 -10 -13 -22 -25 -18 -17 -19 -20 -5 -20 9 0 17 -7
17 -16 0 -15 -9 -16 -65 -11 -71 7 -95 2 -95 -19 0 -7 -18 -19 -40 -25 -38
-11 -40 -14 -40 -51 0 -39 -20 -53 -37 -26 -4 7 -16 19 -25 27 -17 13 -18 9
-18 -60 0 -52 3 -69 10 -59 9 13 10 13 10 0 0 -13 1 -13 10 0 9 13 10 13 10 0
0 -13 1 -13 10 0 5 8 10 11 10 5 0 -6 34 -9 90 -7 l90 4 0 -41 0 -41 40 0 c22
0 40 -4 40 -9 0 -5 11 -12 24 -15 13 -3 31 -9 40 -12 11 -4 16 -1 16 11 0 12
5 15 16 11 9 -3 18 -6 22 -6 3 0 -3 -6 -14 -14 -18 -14 -18 -15 9 -21 19 -5
42 -1 69 11 22 10 54 17 72 16 31 -2 31 -2 7 12 -13 7 -19 15 -13 17 6 3 5 9
-4 17 -12 11 -14 10 -14 -3 0 -8 -7 -15 -15 -15 -10 0 -15 10 -15 29 0 17 -5
33 -11 37 -8 4 -7 9 2 15 10 6 11 9 2 9 -7 0 -13 7 -13 16 0 14 3 14 15 4 8
-7 15 -21 15 -31 0 -10 9 -21 20 -24 11 -3 20 -10 20 -14 0 -5 20 -14 44 -21
25 -7 47 -18 50 -26 4 -10 18 -12 54 -7 32 3 52 1 56 -6 5 -7 -1 -11 -16 -11
-13 0 -30 -5 -38 -11 -12 -9 -11 -10 5 -4 11 4 84 8 162 10 78 2 147 6 152 10
7 3 11 -2 11 -14 0 -12 7 -21 15 -21 8 0 15 9 15 20 0 24 -5 23 62 9 29 -6 63
-20 74 -31 17 -15 23 -16 27 -6 3 9 10 7 24 -9 14 -16 32 -23 57 -23 20 0 36
-4 36 -9 0 -5 12 -13 28 -19 15 -5 48 -28 72 -50 25 -23 49 -42 53 -42 5 0 6
-8 3 -18 -5 -15 0 -17 40 -13 32 2 44 0 40 -8 -5 -8 11 -11 51 -12 32 -1 61
-1 65 0 4 0 5 -5 2 -13 -8 -20 67 -30 82 -11 7 9 28 15 53 15 30 0 41 4 41 15
0 8 7 15 15 15 8 0 15 -3 15 -8 0 -7 58 -37 75 -37 6 -1 20 -7 33 -13 12 -7
30 -12 39 -10 11 2 31 -17 57 -55 39 -56 39 -57 20 -75 -16 -15 -75 -49 -147
-84 -20 -10 -116 -61 -144 -78 -10 -5 -36 -16 -58 -24 -22 -7 -78 -28 -125
-45 -173 -65 -347 -123 -430 -143 -47 -11 -96 -26 -110 -33 -14 -7 -45 -16
-70 -20 -25 -4 -50 -11 -57 -17 -14 -12 -123 -17 -123 -6 0 4 -9 8 -20 8 -11
0 -20 5 -20 11 0 6 -10 9 -22 8 -26 -2 -73 15 -83 31 -3 5 -10 8 -15 5 -5 -3
-12 0 -17 7 -12 19 -129 72 -142 64 -6 -4 -25 3 -42 15 -17 12 -49 23 -75 24
-25 2 -55 12 -69 23 -14 12 -40 24 -58 27 -48 10 -153 61 -177 85 -15 15 -30
20 -47 17 -15 -3 -39 3 -57 13 -17 10 -51 21 -76 25 -25 4 -61 13 -80 20 -19
7 -53 18 -75 25 -22 7 -48 19 -57 27 -20 18 -64 43 -135 77 -29 14 -53 29 -53
33 0 5 -22 21 -48 37 -38 24 -53 42 -79 95 -17 36 -34 76 -38 89 -3 12 -13 22
-21 22 -8 0 -14 8 -14 18 0 18 -37 42 -65 42 -23 0 -18 26 7 37 l22 9 -21 21
c-12 12 -20 23 -18 25 2 1 -18 4 -43 5 -85 3 -147 15 -164 30 -10 9 -40 18
-68 21 -40 4 -50 8 -50 22 0 12 -10 21 -29 25 -21 4 -28 11 -24 21 4 10 0 15
-8 14 -43 -6 -78 1 -83 18 -3 10 -14 18 -23 19 -10 0 -51 15 -92 32 -40 17
-80 31 -89 31 -8 0 -24 7 -34 17 -10 9 -18 12 -18 6 0 -11 -59 -5 -75 7 -23
18 -255 35 -255 19 0 -4 -20 -10 -44 -13 -24 -4 -50 -13 -56 -21 -9 -11 -26
-13 -67 -8 -42 4 -57 3 -64 -8 -8 -12 -11 -11 -20 4 -10 17 -49 15 -74 -3 -33
-25 -154 -19 -325 16 -34 7 -34 8 -10 15 21 6 19 7 -15 9 -22 1 -32 4 -22 7
21 6 23 23 1 23 -11 0 -14 6 -9 21 5 16 4 19 -6 14 -9 -6 -11 -4 -6 8 4 12 -5
19 -40 31 -49 17 -193 22 -193 7 0 -5 -14 -11 -32 -15 -17 -3 -28 -9 -24 -13
9 -10 -51 -33 -86 -33 -16 0 -43 -7 -60 -16 -42 -22 -141 -14 -171 14 -12 11
-29 22 -37 25 -12 4 -11 6 3 6 25 1 20 13 -16 37 -18 11 -32 27 -31 35 1 10
-8 14 -25 13 -14 -1 -35 5 -46 12 -11 8 -42 15 -70 16 -50 1 -50 1 -7 5 61 6
52 23 -12 23 -30 0 -58 5 -61 10 -10 17 -73 11 -115 -10 -22 -11 -50 -20 -64
-20 -13 0 -26 -4 -28 -10 -1 -5 -26 -12 -54 -14 -65 -7 -81 -13 -87 -35 -4
-15 -17 -16 -128 -13 -159 4 -209 -2 -209 -29 0 -13 -13 -25 -37 -37 -21 -9
-40 -20 -41 -24 -2 -5 -21 -8 -43 -8 -27 0 -39 -4 -39 -14 0 -9 -16 -15 -47
-18 -27 -3 -51 -3 -55 -1 -5 2 -8 24 -8 49 0 32 4 44 15 44 8 0 15 4 15 9 0 5
17 16 38 24 36 14 38 17 40 65 2 46 0 50 -23 54 -13 3 -29 0 -36 -6 -9 -8 -10
-8 -6 0 9 15 -15 24 -59 24 -38 0 -46 -16 -11 -23 21 -3 21 -4 3 -12 -13 -6
-21 -5 -24 3 -2 7 -25 12 -58 12 -39 0 -56 4 -60 15 -7 16 -44 21 -44 6 0 -5
-53 -8 -120 -6 -67 2 -120 -1 -120 -6 0 -5 17 -9 38 -10 l37 -1 -35 -10 c-19
-6 -88 -11 -153 -13 -64 -1 -120 -5 -124 -9 -3 -3 12 -6 35 -6 23 0 42 -4 42
-10 0 -5 -17 -10 -38 -10 -21 0 -62 -7 -91 -16 -36 -10 -73 -14 -115 -10 -37
4 -84 1 -121 -8 -33 -8 -54 -14 -47 -15 28 -2 9 -20 -30 -27 -24 -4 -37 -9
-31 -11 17 -6 1 -22 -47 -49 -19 -10 -39 -25 -43 -31 -4 -7 -24 -13 -42 -13
-23 0 -35 -5 -35 -13 0 -8 -6 -14 -12 -15 -7 0 -51 -5 -98 -11 -127 -16 -210
-15 -210 4 0 11 -11 15 -39 15 -22 0 -43 5 -46 10 -3 6 -33 10 -65 10 -50 0
-61 -3 -71 -21 -8 -16 -13 -18 -19 -9 -10 17 -41 5 -34 -13 5 -15 -36 -26
-101 -28 -16 0 -24 -3 -17 -6 8 -3 -3 -16 -29 -35 -27 -20 -39 -34 -35 -45 5
-12 1 -14 -19 -9 -24 6 -25 4 -25 -34 0 -33 -3 -40 -20 -40 -17 0 -20 7 -20
40 0 33 -3 40 -20 40 -16 0 -20 7 -20 38 0 53 -25 68 -91 51 -27 -7 -49 -16
-49 -19 0 -4 -30 -17 -67 -29 -72 -23 -94 -33 -96 -47 -1 -4 -9 -9 -17 -9 -31
-3 -60 -17 -60 -29 0 -7 -27 -25 -59 -41 -33 -17 -57 -34 -54 -41 5 -13 -43
-54 -63 -54 -7 0 -18 -9 -24 -20 -6 -11 -17 -20 -25 -20 -8 0 -20 -9 -27 -20
-7 -11 -21 -20 -30 -20 -10 0 -20 -10 -24 -24 -3 -14 -12 -27 -20 -30 -8 -3
-14 -15 -14 -26 0 -13 -7 -20 -18 -20 -21 0 -56 -33 -45 -43 3 -4 -12 -7 -35
-7 -22 0 -42 -5 -44 -10 -3 -10 -32 -14 -172 -25 -33 -3 -67 -11 -75 -19 -21
-18 -69 -26 -75 -12 -3 7 -7 7 -14 -2 -5 -7 -33 -17 -63 -21 -52 -7 -112 -31
-123 -50 -3 -5 -22 -12 -41 -15 -20 -4 -39 -15 -42 -24 -10 -28 -35 -52 -55
-52 -10 0 -18 -7 -18 -15 0 -8 -9 -19 -20 -25 -15 -8 -20 -21 -20 -49 0 -34 2
-38 23 -34 12 2 31 -2 42 -10 16 -13 18 -20 9 -44 -8 -22 -16 -28 -39 -28
l-30 0 -3 -1018 -2 -1017 3248 0 3248 0 17 35 c9 20 17 40 17 45 0 6 13 38 29
72 16 35 43 97 60 138 18 41 36 82 41 90 5 8 19 35 30 60 20 42 27 55 49 98 6
9 18 36 27 60 10 23 21 42 25 42 4 0 11 10 15 23 4 12 32 55 63 95 31 41 66
89 79 108 29 44 222 238 282 284 25 19 47 37 50 41 8 10 177 117 229 145 25
14 53 29 61 34 18 12 208 100 214 100 4 0 108 45 171 75 17 7 104 38 195 69
157 52 312 86 389 86 20 0 74 7 121 15 47 8 139 23 205 34 103 16 301 68 545
143 114 35 386 135 405 149 6 4 42 18 80 32 39 13 87 36 108 50 21 14 61 33
90 43 29 9 55 22 59 28 4 6 8 7 8 2 0 -5 6 -4 13 2 12 10 300 163 442 236 44
22 86 40 93 39 6 0 12 3 12 8 0 6 21 19 48 30 26 11 76 34 112 51 36 18 79 37
95 44 41 18 165 75 255 118 42 20 91 39 110 42 19 4 78 24 130 46 52 21 100
38 107 38 7 0 55 14 107 30 51 17 113 34 137 40 24 5 73 17 109 25 36 9 108
25 160 35 52 11 122 26 155 36 59 16 147 31 235 39 41 4 40 3 -20 -14 -36 -10
-92 -24 -125 -31 -33 -7 -87 -21 -119 -31 -33 -10 -69 -19 -81 -19 -20 0 -121
-32 -160 -50 -11 -6 -56 -18 -100 -29 -178 -43 -320 -84 -385 -113 -24 -11
-54 -21 -66 -23 -12 -1 -34 -12 -49 -24 -15 -11 -34 -21 -41 -21 -7 0 -41 -14
-76 -32 -35 -17 -79 -38 -98 -47 -19 -9 -49 -26 -66 -38 -17 -13 -38 -23 -47
-23 -8 0 -17 -4 -19 -8 -1 -5 -32 -22 -68 -40 -36 -17 -74 -37 -85 -44 -11 -7
-39 -25 -63 -40 -24 -16 -46 -28 -50 -28 -4 0 -18 -9 -32 -20 -14 -11 -33 -20
-42 -20 -10 0 -18 -4 -18 -10 0 -5 -21 -21 -47 -35 -27 -14 -75 -41 -108 -60
-33 -20 -70 -40 -83 -45 -13 -6 -30 -17 -38 -25 -9 -8 -24 -15 -34 -15 -10 0
-20 -7 -24 -15 -3 -8 -13 -15 -22 -15 -9 0 -33 -13 -54 -30 -21 -16 -40 -30
-43 -30 -2 0 -46 -25 -98 -55 -148 -86 -356 -185 -390 -185 -10 0 -20 -4 -23
-9 -3 -5 -52 -23 -108 -41 -57 -18 -121 -41 -144 -51 -22 -9 -58 -21 -79 -25
-21 -4 -50 -13 -64 -20 -14 -8 -37 -14 -51 -14 -14 0 -34 -7 -44 -15 -11 -8
-29 -15 -40 -15 -12 0 -30 -7 -40 -15 -11 -8 -27 -15 -35 -15 -9 0 -29 -7 -45
-15 -15 -8 -36 -15 -46 -15 -10 0 -42 -13 -72 -29 -30 -15 -72 -31 -93 -35
-21 -4 -44 -14 -52 -22 -8 -8 -26 -17 -41 -20 -47 -12 -232 -107 -232 -120 0
-7 13 -23 29 -36 16 -12 40 -31 53 -42 12 -10 55 -39 93 -64 39 -25 91 -62
116 -81 26 -20 59 -45 75 -56 135 -97 656 -601 744 -720 24 -33 58 -76 76 -95
26 -29 93 -122 127 -178 18 -28 -21 1 -54 41 -19 23 -81 91 -138 152 -154 161
-216 229 -338 365 -94 106 -269 275 -353 343 -47 38 -86 73 -88 78 -2 5 -9 9
-17 9 -7 0 -18 7 -25 15 -14 17 -40 20 -40 5 0 -5 24 -28 53 -51 83 -66 120
-100 114 -106 -3 -3 -32 13 -64 34 -103 70 -139 93 -145 93 -4 0 -58 24 -120
53 -160 76 -178 84 -223 96 -46 13 -155 15 -155 3 0 -8 -56 -35 -76 -36 -7 -1
-34 -15 -60 -32 -27 -16 -61 -36 -77 -44 -15 -7 -41 -25 -57 -39 -16 -14 -42
-36 -57 -48 -15 -12 -56 -48 -90 -80 -34 -32 -71 -65 -82 -73 -11 -8 -34 -32
-50 -55 -16 -22 -41 -53 -55 -68 -14 -15 -26 -32 -26 -37 0 -5 -13 -16 -30
-25 -16 -9 -30 -20 -30 -25 0 -5 -20 -38 -45 -73 -25 -36 -45 -69 -45 -75 0
-6 -3 -12 -7 -14 -12 -5 -53 -66 -53 -78 0 -6 -20 -40 -45 -74 -25 -35 -45
-69 -45 -75 0 -6 -6 -14 -14 -17 -8 -3 -17 -17 -20 -31 -4 -13 -18 -42 -31
-64 -14 -21 -25 -43 -25 -48 0 -5 -6 -16 -13 -23 -7 -7 -22 -30 -34 -51 l-22
-37 6024 0 6025 0 0 1765 c0 1498 -2 1765 -14 1765 -20 0 -46 61 -46 108 0 28
9 51 30 80 l30 42 0 683 0 684 -25 11 c-20 9 -24 17 -22 44 3 22 11 36 25 43
l22 10 0 1592 0 1592 -42 0 c-24 -1 -97 -1 -162 0 -71 0 -125 -4 -132 -10 -7
-6 -18 -8 -24 -4 -5 3 -45 -3 -87 -15 -49 -13 -102 -20 -147 -19 -80 1 -160
-27 -171 -60 -3 -10 -17 -31 -30 -45 -13 -14 -19 -26 -13 -26 6 0 2 -10 -9
-22 -11 -13 -26 -39 -33 -58 -23 -64 -72 -127 -109 -143 -62 -26 -133 -37
-206 -33 -215 14 -254 17 -290 28 -54 16 -95 45 -95 68 0 10 -6 20 -12 23 -10
3 -10 9 0 27 11 17 11 24 2 30 -8 5 -7 9 4 13 9 4 16 15 16 25 0 11 9 30 19
44 11 13 23 38 27 54 4 16 12 36 19 44 7 8 22 35 33 60 32 71 33 72 113 77 41
3 79 8 84 13 6 4 27 10 48 14 27 5 41 14 49 32 6 13 15 24 20 24 4 0 8 11 8
24 0 14 5 28 10 31 5 3 10 17 10 30 0 13 -5 27 -10 30 -5 3 -10 13 -10 22 0
18 -106 123 -124 123 -6 0 -16 10 -21 23 -9 20 -20 23 -108 30 -76 5 -106 12
-135 30 -20 13 -59 34 -87 47 -27 13 -58 31 -68 39 -9 8 -17 11 -17 8 0 -3
-11 5 -24 18 -28 28 -44 90 -51 200 -3 44 -8 95 -11 112 -5 24 -2 34 9 39 9 3
13 12 10 20 -3 8 0 14 6 14 6 0 11 6 11 13 0 7 17 21 37 31 35 17 42 17 145 0
101 -16 112 -16 185 0 127 27 273 37 296 21 34 -24 44 -55 33 -105 -18 -82
-10 -152 23 -206 36 -58 98 -98 136 -88 14 3 25 10 25 14 0 4 16 18 35 31 19
13 35 30 35 37 0 6 8 12 18 12 9 0 33 15 53 33 60 53 76 65 100 72 13 4 30 12
37 17 8 7 12 7 12 -1 0 -14 53 -5 105 19 79 36 120 40 204 18 67 -17 111 -22
173 -18 9 1 20 10 23 20 3 11 15 22 26 25 10 4 17 11 14 16 -4 5 -1 9 4 9 8 0
11 218 11 715 l0 715 -1770 0 c-973 0 -1770 -2 -1770 -4 0 -16 24 -66 32 -66
12 0 68 -58 68 -71 0 -5 8 -9 18 -9 21 0 62 -43 62 -65 0 -8 7 -15 15 -15 8 0
15 -6 15 -14 0 -25 -50 -47 -121 -53 -62 -5 -69 -4 -69 12 0 18 -1 18 -14 -1
-14 -18 -15 -18 -25 9 -13 33 -28 35 -41 5 -14 -35 -36 -58 -53 -58 -9 0 -19
-4 -22 -10 -3 -5 -14 -10 -24 -10 -10 0 -24 -7 -31 -15 -7 -8 -22 -15 -34 -15
-23 0 -92 -22 -102 -33 -4 -4 -16 -7 -26 -7 -18 0 -61 -23 -84 -45 -14 -13
-86 -10 -113 5 -11 5 -18 16 -15 24 6 17 -22 40 -41 33 -8 -4 -17 -2 -20 3 -4
6 -18 10 -32 10 -16 0 -23 4 -20 13 3 7 -6 18 -22 24 -79 34 -105 43 -137 45
-20 1 -38 6 -41 10 -2 5 -13 6 -24 3 -12 -4 -21 -1 -25 9 -3 8 -12 12 -19 10
-8 -3 -40 0 -72 6 -32 7 -65 14 -73 15 -8 2 -33 4 -55 5 -31 1 -36 3 -20 10
17 6 14 9 -18 15 -21 4 -44 16 -50 26 -7 11 -17 19 -23 19 -15 0 -57 47 -60
66 -4 24 -14 30 -24 14 -8 -13 -10 -12 -10 3 0 9 7 17 16 17 12 0 15 6 10 23
-3 12 -6 31 -6 42 0 17 -2 17 -10 5 -6 -10 -10 -11 -10 -2 0 9 -48 12 -205 12
l-205 0 0 -36 c0 -27 8 -44 35 -72 19 -20 33 -42 30 -49 -2 -7 5 -15 16 -18
22 -7 25 -21 7 -29 -10 -5 -10 -7 0 -12 6 -3 12 -16 12 -29 0 -13 5 -27 10
-30 6 -3 10 -17 10 -31 0 -13 -4 -24 -10 -24 -5 0 -10 -6 -10 -13 0 -7 -13
-23 -29 -37 -19 -15 -32 -37 -36 -59 -5 -29 -11 -36 -31 -37 -13 -1 -32 -8
-40 -15 -9 -7 -23 -14 -31 -15 -21 -3 -43 -24 -43 -41 0 -10 -7 -14 -20 -10
-10 3 -19 2 -18 -2 0 -3 -1 -10 -2 -16 -2 -5 -4 -17 -5 -25 -8 -67 -20 -102
-39 -112 -33 -17 -96 -86 -83 -91 16 -5 -11 -84 -31 -92 -13 -5 -13 -8 1 -23
10 -11 13 -23 8 -31 -5 -8 -5 -26 0 -40 14 -39 -4 -104 -38 -139 -7 -7 -13
-22 -13 -32 0 -10 -6 -20 -14 -23 -15 -6 -26 -49 -30 -120 -2 -26 -11 -55 -20
-65 -9 -10 -16 -26 -16 -34 0 -9 -7 -21 -15 -28 -9 -7 -20 -33 -27 -57 -10
-43 -11 -44 -28 -26 -10 10 -37 61 -60 113 -23 52 -50 109 -60 125 -11 17 -44
80 -75 140 -31 61 -60 114 -66 120 -5 5 -9 19 -9 32 0 13 -4 23 -10 23 -5 0
-10 4 -10 9 0 5 14 3 31 -6 24 -12 36 -13 55 -4 13 6 24 15 24 21 0 5 9 10 21
10 12 0 33 13 47 28 24 25 26 34 21 74 -4 25 -14 58 -22 74 -13 26 -13 34 -1
63 8 18 14 39 14 47 0 7 15 28 33 47 27 30 59 46 102 52 71 10 212 65 199 77
-3 4 -1 14 5 25 8 16 30 149 36 225 1 17 -6 35 -19 46 -30 27 -103 62 -150 72
-134 29 -135 29 -138 63 l-3 32 -3189 3 -3190 2 -25 -24 c-14 -13 -42 -33 -62
-43 -20 -11 -44 -26 -52 -34 -8 -8 -41 -34 -73 -59 -32 -25 -136 -121 -231
-214 -95 -94 -177 -172 -181 -175 -4 -4 -19 -22 -32 -41 -13 -19 -27 -37 -30
-40 -3 -3 -25 -32 -50 -65 -25 -33 -63 -83 -85 -111 -22 -28 -46 -59 -53 -70
-7 -10 -42 -61 -77 -112 -36 -51 -65 -97 -65 -102 0 -5 -6 -13 -13 -17 -7 -4
-21 -26 -32 -48 -11 -22 -23 -42 -26 -45 -3 -3 -14 -23 -25 -45 -11 -22 -28
-53 -37 -70 -28 -50 -55 -114 -62 -145 -6 -28 -35 -63 -35 -42 0 10 24 83 39
117 21 50 31 71 40 85 5 8 24 47 43 85 18 39 36 72 41 73 4 2 7 8 7 13 0 5 17
37 38 71 21 35 41 70 44 78 7 18 106 161 144 208 15 18 48 64 75 101 75 107
431 458 579 571 18 14 45 37 61 52 15 14 30 23 33 20 3 -3 6 0 6 6 0 6 8 13
18 15 9 2 -317 5 -725 6 -651 1 -743 -1 -743 -14 0 -9 -9 -15 -22 -15 -34 0
-96 -19 -110 -34 -10 -10 -28 -11 -68 -5 -87 12 -147 10 -162 -5 -21 -20 -68
-42 -107 -50 -19 -3 -42 -13 -50 -20 -18 -16 -133 -27 -123 -12 3 5 -2 6 -12
3 -27 -11 -103 15 -137 45 -17 16 -42 28 -57 28 -24 0 -25 1 -7 14 18 13 18
14 -4 25 -22 12 -22 13 -4 27 15 12 -66 13 -582 10 -330 -2 -619 -7 -643 -11
-31 -5 -42 -11 -38 -21 7 -18 -81 -57 -111 -49 -18 4 -23 1 -23 -15 0 -11 -4
-20 -10 -20 -5 0 -10 5 -10 11 0 5 -4 7 -10 4 -5 -3 -10 -17 -10 -30 0 -14 -9
-40 -20 -60 -12 -21 -20 -54 -20 -80 0 -39 3 -45 21 -45 20 0 19 -3 -11 -31
-17 -17 -33 -39 -34 -48 -3 -18 -36 -29 -36 -12 0 6 -18 11 -40 11 l-40 0 0
-40 c0 -29 4 -40 15 -40 9 0 12 -6 9 -15 -4 -8 -19 -15 -34 -15 -16 0 -32 -6
-37 -12 -4 -7 -9 -54 -10 -105 -1 -83 0 -93 18 -98 10 -4 23 -3 29 0 5 3 10 1
10 -5 0 -8 10 -9 30 -5 16 4 35 3 42 -2 7 -4 15 -8 18 -8 41 -6 70 -20 75 -36
4 -10 11 -19 16 -19 6 0 21 -12 34 -26 14 -15 25 -24 25 -20 0 3 18 -3 40 -14
32 -16 59 -20 140 -20 79 0 100 -3 100 -14 0 -8 9 -25 20 -38 11 -12 27 -32
34 -43 11 -15 17 -17 27 -8 9 9 15 7 28 -8 18 -22 76 -29 119 -14 18 6 22 4
22 -14 0 -18 6 -21 45 -21 39 0 45 -3 51 -25 4 -16 13 -25 25 -25 37 0 34 -44
-6 -96 -21 -27 -42 -51 -49 -54 -6 -3 -31 -17 -56 -31 -66 -39 -190 -58 -211
-33 -6 8 -19 14 -29 14 -10 0 -20 6 -23 14 -3 8 -31 20 -61 26 -45 9 -56 15
-56 31 0 15 -7 19 -38 19 -27 0 -41 6 -50 21 -8 13 -19 18 -31 14 -14 -4 -20
1 -25 20 -6 25 -8 25 -101 25 -76 0 -95 -3 -95 -14 0 -8 -8 -17 -17 -20 -43
-12 -89 -20 -104 -17 -10 1 -22 -10 -30 -29 -15 -32 -29 -40 -29 -15 0 8 -4
15 -8 15 -11 0 -32 -45 -32 -67 0 -14 -2 -14 -14 2 -12 16 -16 17 -29 6 -9 -7
-13 -19 -10 -27 3 -7 -2 -17 -11 -20 -9 -3 -16 -13 -16 -22 0 -13 -3 -12 -20
3 -19 17 -20 17 -29 -6 -5 -15 -5 -26 2 -30 5 -4 8 -27 5 -53 -3 -26 -2 -49 3
-52 5 -3 9 -21 9 -40 0 -19 5 -34 10 -34 6 0 13 0 18 0 4 -1 23 -16 43 -36 19
-19 38 -32 41 -28 4 3 33 -4 65 -15 33 -12 66 -21 75 -21 9 0 26 -8 38 -18 22
-18 22 -19 6 -44 -9 -14 -28 -29 -42 -32 -13 -4 -24 -12 -24 -19 0 -6 -14 -20
-30 -29 -26 -15 -39 -15 -91 -6 -33 6 -63 16 -65 23 -4 9 -15 10 -43 4 -21 -5
-62 -11 -92 -13 -30 -3 -81 -10 -114 -16 -33 -5 -77 -10 -97 -10 -48 0 -154
52 -194 97 -40 43 -71 120 -57 142 8 14 8 38 2 178 -1 24 4 49 12 59 10 13 14
53 15 158 1 78 2 151 3 164 2 41 33 59 124 72 55 8 87 17 91 26 3 8 18 14 34
14 28 0 45 14 69 56 17 31 10 128 -10 149 -10 9 -17 21 -17 26 0 5 -14 9 -31
9 -16 0 -28 4 -25 8 7 11 -147 68 -224 83 -50 9 -88 9 -158 1 -104 -12 -131
-6 -192 47 -67 58 -70 63 -70 110 0 47 10 65 73 134 15 16 27 35 27 42 0 26
77 64 138 69 45 3 65 10 86 29 28 26 29 52 4 105 l-11 22 -274 0 -273 0 0 -95z
m5134 56 c-10 -10 -21 -14 -23 -8 -4 10 17 27 33 27 5 0 1 -8 -10 -19z m-54
-51 c0 -5 -4 -10 -10 -10 -5 0 -10 5 -10 10 0 6 5 10 10 10 6 0 10 -4 10 -10z
m-30 -30 c0 -5 -5 -10 -11 -10 -5 0 -7 5 -4 10 3 6 8 10 11 10 2 0 4 -4 4 -10z
m-65 -67 c-16 -16 -34 -28 -40 -28 -5 0 -9 -8 -9 -18 1 -9 -4 -17 -12 -17 -8
0 -14 -4 -14 -10 0 -5 -5 -10 -10 -10 -18 0 21 49 63 80 51 37 61 39 22 3z
m-145 -148 c-7 -9 -15 -13 -17 -11 -7 7 7 26 19 26 6 0 6 -6 -2 -15z m449 -29
c-53 -57 -155 -192 -249 -331 -81 -121 -97 -148 -104 -172 -4 -11 -13 -24 -21
-27 -8 -3 -15 -10 -15 -16 0 -13 -26 -73 -76 -175 -37 -76 -42 -105 -19 -105
8 0 15 5 15 10 0 6 5 16 10 23 43 50 54 67 70 103 11 22 27 47 36 55 16 13 17
12 10 -16 -4 -16 -11 -32 -14 -35 -11 -7 -32 -59 -32 -75 0 -22 28 -18 40 6 7
11 18 28 26 37 8 9 23 28 34 42 10 14 21 22 24 19 7 -7 -72 -162 -85 -167 -5
-2 -9 -8 -9 -13 0 -9 -10 -32 -65 -154 -34 -74 -45 -119 -31 -133 10 -11 17
-6 39 25 31 47 65 86 114 135 50 49 53 31 15 -69 -16 -43 -37 -105 -46 -138
-9 -33 -21 -69 -26 -80 -16 -35 -40 -128 -40 -154 0 -17 -3 -22 -8 -13 -20 30
23 222 49 222 5 0 9 9 9 20 0 11 -4 20 -8 20 -23 0 -178 -212 -216 -295 -10
-22 -26 -58 -37 -80 -24 -53 -99 -288 -99 -312 0 -10 -9 -41 -20 -70 -48 -128
-85 -329 -110 -598 -12 -133 -12 -744 0 -835 4 -36 13 -110 20 -165 6 -55 20
-138 31 -185 11 -47 27 -114 35 -150 17 -73 78 -276 98 -330 27 -69 77 -232
73 -236 -9 -9 -84 176 -153 376 -39 115 -91 311 -128 485 -42 198 -56 948 -23
1235 16 142 68 404 86 439 6 11 11 29 11 41 0 39 61 220 106 316 21 45 34 93
74 279 5 22 21 75 35 119 50 147 -10 102 -107 -82 -19 -35 -27 -42 -45 -37
-13 3 -23 1 -23 -4 0 -6 -37 -86 -81 -178 -45 -92 -82 -172 -84 -178 -1 -5
-10 -28 -20 -50 -10 -22 -22 -53 -26 -70 -5 -16 -24 -75 -42 -130 -74 -218
-136 -476 -168 -705 -5 -36 -13 -85 -18 -110 l-8 -45 -2 40 c-1 51 23 233 55
400 13 72 24 139 24 150 0 11 12 65 26 120 14 55 31 125 39 155 29 117 126
413 138 418 4 2 7 10 7 18 0 8 5 14 10 14 6 0 10 6 10 13 0 56 274 583 317
610 7 4 13 13 13 20 0 7 16 36 35 64 19 29 35 54 35 57 0 8 106 171 122 187 7
8 23 28 33 45 24 38 125 173 146 194 8 8 30 36 49 61 53 69 124 148 134 149 5
0 7 -2 5 -4z m-524 -56 c-10 -11 -20 -18 -23 -15 -7 6 18 35 31 35 5 0 2 -9
-8 -20z m-80 -110 c-3 -5 -10 -10 -16 -10 -5 0 -9 5 -9 10 0 6 7 10 16 10 8 0
12 -4 9 -10z m-391 -165 c33 -8 62 -19 66 -25 4 -7 18 -17 31 -24 13 -6 28
-21 34 -34 5 -12 13 -22 17 -22 3 0 12 -16 19 -37 11 -34 9 -41 -37 -132 -27
-53 -51 -98 -54 -101 -10 -10 -30 -45 -54 -95 -94 -196 -104 -222 -137 -357
-5 -21 -27 -82 -48 -135 -22 -54 -42 -106 -45 -116 -5 -14 -9 -15 -24 -6 -14
9 -27 9 -49 2 -22 -8 -38 -7 -62 3 -41 17 -41 17 -41 0 0 -10 -13 -16 -37 -18
-43 -3 -165 21 -174 36 -4 5 -19 6 -33 2 -22 -5 -28 -2 -38 19 -9 21 -13 23
-20 11 -5 -8 -16 -12 -28 -9 -22 6 -26 19 -8 25 6 2 -3 10 -20 17 -21 9 -32
20 -32 34 0 11 -3 17 -7 14 -9 -10 -33 13 -33 32 -1 25 -40 68 -49 53 -5 -8
-14 0 -27 25 -21 39 -40 52 -47 31 -2 -7 -2 -3 0 10 2 12 -1 22 -7 22 -6 0
-19 20 -30 45 -14 32 -23 43 -35 39 -10 -4 -15 0 -15 10 0 9 -5 16 -11 16 -24
0 5 19 60 40 33 12 62 30 65 39 15 52 17 83 7 77 -6 -4 -11 -13 -11 -19 0 -7
-9 -20 -20 -30 -16 -14 -24 -15 -47 -5 l-28 12 33 4 c20 2 32 9 32 18 0 12 -8
13 -37 8 -21 -4 -41 -11 -44 -17 -4 -5 -10 0 -14 12 -7 23 -21 28 -27 9 -5
-15 -38 13 -38 31 0 7 -10 9 -27 5 -29 -7 -55 -24 -38 -24 6 0 3 -4 -5 -10
-12 -7 -12 -11 3 -28 17 -18 17 -21 2 -36 -15 -15 -13 -19 21 -51 25 -23 40
-32 44 -24 6 8 9 8 14 0 4 -6 2 -11 -3 -11 -6 0 -11 -18 -11 -40 0 -33 -3 -40
-20 -40 -13 0 -18 -5 -14 -15 5 -11 -1 -15 -19 -15 -14 0 -40 -12 -58 -27 -29
-25 -40 -28 -92 -26 -65 3 -179 32 -171 45 3 4 -7 10 -21 14 -16 4 -33 20 -46
45 -10 22 -24 39 -29 39 -6 0 -10 7 -10 15 0 8 -5 15 -11 15 -5 0 -23 15 -40
32 -16 18 -29 28 -29 23 0 -6 -13 16 -29 47 -28 56 -36 103 -32 210 2 58 37
72 191 73 69 1 159 7 201 15 69 12 82 12 134 -4 31 -10 59 -25 62 -32 3 -8 11
-14 19 -14 8 0 14 -6 14 -14 0 -14 63 -31 79 -22 5 3 12 -1 15 -10 4 -10 13
-13 25 -9 11 3 23 1 26 -6 5 -8 9 -8 14 0 5 7 26 -2 60 -24 57 -38 71 -41 89
-23 9 9 12 8 12 -5 0 -9 5 -17 10 -17 6 0 10 7 10 15 0 8 14 24 30 37 26 19
30 29 32 72 1 37 2 42 5 19 6 -47 19 -41 26 11 7 49 26 96 39 96 4 0 8 -8 8
-17 0 -15 1 -15 13 1 10 14 33 19 117 23 58 3 111 10 117 15 7 6 20 8 28 4 11
-4 19 3 25 20 6 14 14 22 20 19 5 -3 10 -2 10 4 0 23 82 111 113 120 47 14
114 12 181 -4z m9611 -116 c11 -4 35 -11 53 -14 17 -4 32 -10 32 -14 0 -5 16
-11 35 -14 19 -3 42 -13 51 -21 8 -9 27 -16 42 -16 40 -1 86 -48 96 -100 2 -8
7 -23 11 -33 4 -11 3 -23 -4 -30 -6 -6 -11 -22 -11 -35 0 -13 -7 -30 -16 -39
-8 -9 -13 -22 -9 -31 10 -26 -15 -42 -66 -42 -27 0 -49 -4 -49 -10 0 -5 -18
-10 -40 -10 -22 0 -40 4 -40 9 0 11 -90 57 -129 66 -17 4 -31 11 -31 16 0 5
-11 9 -25 9 -28 0 -91 58 -107 98 -5 15 -13 56 -16 92 -7 61 -6 66 20 92 15
14 24 28 21 32 -6 6 28 14 77 18 32 3 53 -2 105 -23z m-9248 -281 c-18 -35
-38 -69 -44 -76 -7 -7 -17 -21 -22 -30 -8 -14 -12 -15 -22 -4 -21 20 -48 14
-79 -20 -16 -19 -30 -27 -30 -19 0 7 10 23 23 35 12 11 39 42 60 68 35 43 119
108 138 108 5 0 -6 -28 -24 -62z m-207 -178 c0 -5 -5 -10 -11 -10 -5 0 -7 5
-4 10 3 6 8 10 11 10 2 0 4 -4 4 -10z m7320 -211 c21 -31 36 -59 33 -63 -10
-10 -53 -7 -53 4 0 6 -5 9 -11 8 -9 -3 -48 93 -65 157 -7 26 41 -28 96 -106z
m2348 22 c30 -31 66 -81 81 -111 35 -71 73 -130 105 -165 30 -32 50 -94 39
-121 -6 -18 -29 -47 -64 -83 -77 -76 -120 -113 -126 -108 -3 4 -14 0 -23 -8
-29 -26 -118 -30 -179 -6 -50 19 -55 19 -66 4 -11 -15 -20 -15 -71 -6 -35 6
-60 7 -62 2 -6 -14 -55 -37 -69 -32 -15 5 -18 43 -4 43 4 0 12 27 15 61 4 33
9 66 12 74 3 7 -4 23 -15 34 -12 12 -21 25 -21 31 0 5 -10 29 -23 52 -28 51
-32 95 -17 163 10 43 22 60 91 127 44 43 86 78 93 78 6 0 17 5 23 11 13 13
155 29 198 22 20 -4 48 -25 83 -62z m-9628 14 c0 -19 -46 -128 -86 -205 -19
-36 -45 -86 -57 -112 -30 -64 -60 -70 -159 -32 -23 8 -38 10 -38 4 0 -6 -6
-10 -14 -10 -25 0 12 136 57 209 21 35 44 69 50 76 7 6 23 28 37 48 14 20 31
37 38 37 7 0 11 -4 8 -8 -2 -4 -1 -13 3 -20 5 -9 12 -7 26 8 17 19 19 19 31 2
9 -11 16 -13 21 -6 10 13 65 33 76 27 4 -2 7 -10 7 -18z m12693 -62 c-7 -2
-19 -2 -25 0 -7 3 -2 5 12 5 14 0 19 -2 13 -5z m-3713 -556 c19 -11 51 -23 70
-26 33 -6 34 -8 37 -55 5 -78 -38 -153 -98 -171 -35 -11 -46 -22 -70 -70 l-22
-43 24 -68 c13 -38 29 -72 34 -77 6 -4 -1 -16 -17 -30 -16 -13 -28 -28 -28
-35 0 -7 -6 -12 -14 -12 -7 0 -19 -7 -26 -15 -16 -20 -96 -55 -124 -55 -11 0
-32 9 -46 20 -14 11 -30 20 -35 20 -33 0 -47 123 -22 183 11 25 17 72 18 142
1 82 4 105 15 105 8 0 14 -5 14 -10 0 -6 25 15 55 46 30 32 55 67 55 78 0 20
20 55 50 89 19 21 80 14 130 -16z m200 -56 c0 -14 -5 -18 -20 -14 -23 6 -26
19 -7 26 22 9 27 7 27 -12z m-11121 -165 c18 -20 22 -33 19 -71 l-3 -48 -50
-1 c-49 -1 -49 -1 -61 39 -11 40 -4 75 17 75 6 0 17 7 25 15 21 20 27 19 53
-9z m-2779 -206 c0 -5 -4 -10 -10 -10 -5 0 -10 5 -10 10 0 6 5 10 10 10 6 0
10 -4 10 -10z m2657 -21 c29 -14 42 -26 39 -35 -3 -8 -2 -13 2 -13 19 3 23 -2
13 -15 -10 -12 -7 -18 18 -31 17 -8 31 -22 31 -31 0 -30 41 -52 108 -60 32 -4
135 -40 186 -65 70 -35 130 -115 161 -216 11 -35 23 -63 27 -63 5 0 8 -7 8
-15 0 -8 5 -15 10 -15 6 0 10 -4 10 -9 0 -5 5 -22 12 -38 6 -15 10 -55 9 -89
-2 -57 0 -63 29 -93 18 -17 46 -39 64 -48 38 -19 106 -90 106 -110 0 -21 30
-63 46 -63 7 0 20 -9 28 -21 12 -18 21 -20 63 -15 26 4 64 8 84 9 58 5 99 26
99 51 0 15 3 17 9 7 6 -9 10 -5 14 15 11 57 40 124 53 124 8 0 14 4 14 10 0
15 51 38 90 40 80 5 87 2 109 -40 23 -44 27 -75 11 -85 -5 -3 -10 -15 -10 -27
0 -11 -8 -22 -19 -25 -10 -2 -25 -16 -32 -30 -7 -14 -24 -29 -36 -34 -13 -5
-23 -14 -23 -21 0 -10 -23 -13 -85 -13 -47 0 -85 3 -85 8 0 4 -9 7 -20 7 -21
0 -23 -19 -7 -60 3 -8 8 -37 11 -65 3 -27 8 -62 12 -77 5 -23 3 -28 -13 -28
-11 0 -28 -7 -39 -15 -29 -22 -113 -19 -149 5 -16 11 -38 20 -47 20 -10 0 -29
13 -43 29 -14 15 -43 34 -65 41 -22 7 -40 18 -40 25 0 6 -15 19 -32 29 -18 9
-44 23 -58 31 -14 8 -43 15 -65 16 -22 1 -32 3 -22 6 26 7 20 23 -9 23 -20 0
-25 4 -20 16 4 11 -1 18 -14 21 -11 3 -20 9 -20 13 0 4 -17 10 -37 14 -67 11
-124 76 -67 76 13 0 24 5 24 10 0 6 -28 10 -65 10 -57 0 -65 2 -63 17 2 14 -8
21 -42 30 -35 9 -39 12 -17 12 33 1 37 28 5 33 -15 2 -24 11 -26 26 -3 17 -10
22 -32 22 -22 0 -29 -5 -32 -22 -2 -15 -11 -24 -25 -26 -41 -6 -27 -32 17 -32
62 0 47 -19 -17 -22 -49 -3 -58 -6 -55 -20 2 -14 -4 -18 -27 -18 -16 0 -33 -4
-36 -10 -3 -5 -1 -10 4 -10 6 0 11 -7 11 -15 0 -8 -9 -15 -21 -15 -31 0 -59
-18 -59 -39 0 -21 -35 -31 -111 -31 -27 0 -49 -4 -49 -10 0 -5 24 -10 54 -10
31 0 58 -5 62 -12 5 -8 -19 -9 -94 -4 -69 5 -102 4 -102 -4 0 -5 -18 -10 -40
-10 -29 0 -40 4 -40 15 0 11 11 15 40 15 22 0 40 5 40 10 0 6 -18 10 -40 10
-22 0 -40 5 -40 10 0 20 -29 9 -32 -12 -2 -15 -11 -24 -25 -26 -32 -5 -30 -32
2 -32 23 0 25 -4 25 -41 l0 -42 -42 6 c-24 3 -35 3 -25 0 9 -2 17 -9 17 -14 0
-6 -5 -7 -11 -4 -5 4 -23 2 -38 -5 -32 -13 -116 3 -106 20 4 6 0 10 -7 10 -7
0 -19 4 -27 9 -11 7 -11 12 0 32 7 13 14 26 15 29 3 15 17 47 25 60 5 8 20 37
34 63 14 26 30 45 35 42 6 -4 17 1 26 9 8 9 22 16 29 16 8 0 29 14 47 30 18
17 38 30 45 30 7 0 13 6 13 14 0 9 17 15 50 18 28 3 59 13 69 22 10 9 24 15
32 13 8 -2 11 -2 7 0 -5 3 -8 58 -8 123 0 96 3 119 15 124 8 3 15 10 15 15 0
5 5 22 12 38 6 15 10 36 9 46 -1 11 4 17 16 17 10 0 33 9 51 20 18 11 42 20
55 21 12 0 16 3 10 6 -7 2 -13 16 -13 30 0 15 -5 23 -12 20 -7 -2 -12 -11 -10
-19 2 -11 -11 -17 -47 -22 -27 -4 -51 -11 -53 -17 -4 -13 -30 -13 -98 0 -97
18 -114 23 -143 47 -16 13 -38 26 -50 29 -12 3 -30 20 -39 36 -10 17 -22 28
-26 25 -9 -6 -42 29 -42 44 0 5 19 9 43 8 23 -1 69 -1 102 0 51 2 63 6 78 28
10 13 20 36 21 51 2 14 10 30 19 35 10 5 17 17 17 26 2 54 192 82 277 41z
m12360 -126 c40 -8 71 -20 70 -26 -1 -6 5 -11 13 -12 8 0 19 -10 25 -22 5 -13
13 -23 17 -23 4 0 1 -14 -6 -32 -20 -47 -84 -107 -123 -114 -43 -8 -77 -48
-62 -75 8 -16 18 -19 52 -15 25 3 36 2 28 -3 -9 -6 -10 -10 -2 -16 7 -4 19 -1
28 6 9 8 50 21 92 30 42 9 90 23 107 30 28 11 36 10 58 -4 14 -10 26 -25 26
-33 0 -9 9 -27 20 -41 11 -14 20 -32 20 -40 0 -10 7 -12 23 -8 17 5 19 4 7 -4
-17 -12 -19 -12 43 -14 26 -1 47 1 47 6 0 4 7 7 15 7 11 0 15 -11 15 -40 0
-22 5 -40 11 -40 6 0 9 17 8 43 -3 48 6 71 26 63 18 -7 36 47 28 84 -5 25 -2
30 15 30 27 0 45 24 38 52 -3 13 -3 17 0 10 5 -10 9 -10 21 0 8 6 35 14 59 16
35 3 59 -4 116 -33 40 -20 92 -39 116 -42 44 -6 94 -49 73 -63 -7 -4 -7 -18 0
-43 5 -21 14 -35 18 -32 5 2 14 -2 21 -10 7 -8 16 -12 21 -10 4 3 15 -10 24
-29 9 -20 26 -38 36 -41 28 -9 51 -72 44 -117 -5 -28 -13 -40 -36 -50 -16 -7
-29 -21 -29 -30 0 -13 -8 -18 -26 -18 -20 0 -25 4 -20 16 4 11 -1 18 -14 21
-11 3 -20 10 -20 17 0 6 -16 24 -35 39 -26 21 -34 34 -30 48 4 10 2 19 -3 19
-5 0 -15 14 -22 30 -13 32 -26 38 -32 18 -5 -15 -38 13 -38 31 0 6 -18 11 -40
11 -29 0 -40 -4 -40 -15 0 -19 -76 -21 -83 -2 -4 10 -7 10 -18 0 -11 -11 -10
-13 5 -13 28 0 13 -23 -24 -35 -19 -6 -36 -17 -38 -23 -2 -7 -21 -12 -43 -12
l-39 0 0 -114 0 -114 -27 -7 c-21 -5 -24 -8 -12 -15 10 -7 6 -11 -18 -16 -18
-3 -37 -12 -44 -20 -6 -7 -16 -11 -24 -8 -7 3 -16 1 -19 -4 -3 -6 -23 -6 -48
-1 -79 14 -80 15 -78 83 3 82 2 86 -14 86 -8 0 -21 18 -30 40 -13 34 -20 40
-45 40 -17 0 -33 5 -36 10 -3 6 -24 10 -46 10 -24 0 -39 5 -39 13 0 6 -6 1
-13 -13 -7 -14 -21 -25 -32 -25 -21 0 -22 -6 -9 -83 4 -26 14 -47 26 -53 10
-5 39 -29 65 -53 l46 -44 -24 -30 c-28 -35 -72 -43 -163 -29 -38 6 -62 5 -68
-1 -11 -11 -219 -4 -228 7 -12 14 -91 51 -99 46 -5 -3 -36 9 -69 25 -34 17
-65 30 -70 30 -5 0 -26 18 -47 41 -48 53 -57 109 -21 142 45 43 87 72 100 69
7 -1 28 4 46 12 29 12 31 15 15 24 -17 9 -17 10 3 16 16 5 24 18 28 47 7 40
29 53 37 22 4 -17 5 -17 6 0 0 9 -8 25 -18 34 -11 9 -18 20 -15 24 2 4 -14 26
-36 49 -40 41 -57 91 -46 128 7 22 58 47 90 44 42 -3 146 59 146 88 0 5 5 10
11 10 6 0 9 6 7 12 -6 16 30 45 62 50 35 7 103 0 187 -19z m-15945 -98 c34
-14 67 -25 75 -25 42 0 -15 -52 -87 -79 -76 -29 -110 -27 -137 9 -28 34 -38
60 -25 60 5 0 12 9 15 20 3 12 14 20 25 20 12 0 24 5 27 10 10 16 41 12 107
-15z m6218 -165 c0 -11 3 -20 8 -20 4 0 7 -53 7 -117 1 -135 20 -345 35 -373
5 -10 10 -39 10 -64 0 -25 4 -46 9 -46 5 0 12 -30 16 -67 3 -38 12 -86 19
-108 7 -22 18 -62 24 -90 28 -127 66 -271 73 -280 5 -5 9 -19 9 -32 0 -13 5
-23 11 -23 8 0 10 -13 6 -38 -5 -42 8 -76 25 -66 10 7 4 107 -9 141 -4 10 -2
14 7 11 19 -6 38 -94 46 -213 6 -86 4 -102 -10 -114 -9 -7 -16 -21 -16 -31 0
-33 94 -116 175 -154 33 -15 136 -116 118 -116 -27 0 -141 53 -200 94 -55 37
-68 26 -22 -19 31 -31 182 -105 216 -105 14 0 63 -61 63 -80 0 -6 -14 -30 -31
-51 -35 -44 -35 -60 -3 -182 17 -64 17 -75 0 -235 -33 -320 -83 -561 -165
-790 -39 -110 -38 -145 3 -186 66 -63 179 -105 356 -131 125 -18 161 -27 186
-45 25 -18 67 -103 62 -126 -5 -29 -27 -27 -33 3 -10 51 -46 110 -73 123 -15
7 -70 16 -122 20 -260 24 -393 87 -454 215 -16 33 -16 40 -2 78 105 295 118
339 142 487 66 398 72 473 54 614 -15 115 -46 193 -92 234 -17 15 -70 73 -119
128 -93 106 -104 131 -115 244 -8 87 -25 176 -43 240 -11 36 -29 115 -40 175
-28 151 -31 171 -42 245 -5 36 -11 72 -15 80 -3 8 -12 58 -19 110 -8 52 -21
145 -30 205 -43 296 -56 475 -35 475 6 0 10 -9 10 -20z m-2350 -515 c0 -16 -9
-19 -34 -9 -20 8 -11 24 15 24 10 0 19 -7 19 -15z m887 -201 c2 -13 1 -15 -4
-4 -3 8 -11 19 -17 23 -7 6 -6 7 4 4 8 -2 16 -12 17 -23z m10695 -4 c20 -6 39
-17 42 -26 3 -8 10 -13 15 -9 5 3 12 1 16 -5 3 -5 -2 -10 -12 -10 -14 0 -15
-2 -5 -9 11 -7 10 -11 -2 -24 -9 -9 -25 -19 -36 -22 -11 -3 -20 -13 -20 -21 0
-20 -57 -53 -81 -47 -11 3 -21 -1 -25 -11 -4 -11 -18 -16 -45 -16 -52 0 -107
49 -116 102 -5 34 -3 38 36 63 64 43 155 56 233 35z m75 -16 c-3 -3 -12 -4
-19 -1 -8 3 -5 6 6 6 11 1 17 -2 13 -5z m1067 -45 c-5 -8 21 -19 47 -19 23 0
81 -34 72 -43 -3 -4 2 -7 12 -7 10 0 16 -3 13 -6 -4 -3 11 -22 33 -41 21 -19
39 -44 39 -54 0 -11 7 -22 15 -25 8 -4 15 -12 15 -18 0 -15 69 -46 103 -46 14
0 29 -4 32 -10 3 -5 18 -10 33 -10 l27 -1 -25 -14 -25 -14 35 -1 c19 -1 29 -4
23 -7 -7 -2 -13 -13 -13 -22 0 -25 -36 -57 -44 -39 -3 7 -4 1 -1 -14 4 -23 2
-28 -14 -28 -25 0 -36 -16 -16 -24 22 -8 19 -20 -15 -56 l-29 -31 -85 7 c-92
7 -156 0 -156 -19 0 -7 -18 -21 -40 -31 -22 -11 -40 -22 -40 -26 0 -4 -14 -13
-31 -20 -22 -10 -27 -15 -17 -21 9 -6 6 -9 -9 -9 -13 0 -23 5 -23 10 0 6 -19
9 -42 8 -38 -1 -39 -2 -10 -5 39 -5 38 -29 -2 -26 -14 1 -26 -2 -26 -8 0 -5
-6 -9 -13 -9 -33 0 -65 -25 -64 -50 2 -25 2 -25 -88 -25 -49 0 -141 -4 -202
-9 -101 -8 -113 -11 -113 -27 0 -16 -7 -19 -42 -18 -37 1 -39 2 -18 9 22 7 22
8 4 9 -11 1 -36 -12 -54 -29 -18 -16 -39 -30 -45 -30 -15 0 -110 -90 -117
-110 -4 -13 -11 -12 -44 5 -53 28 -76 52 -103 112 -28 61 -23 83 19 83 32 0
45 29 13 31 -15 0 -15 2 2 8 19 8 19 8 -3 15 -25 8 -172 123 -172 135 0 4 -13
14 -29 24 -19 11 -41 43 -66 94 -35 73 -36 78 -24 122 21 79 100 136 137 99 7
-7 16 -8 24 -1 19 13 54 8 73 -11 9 -9 26 -16 39 -16 20 0 117 -31 154 -49 81
-40 146 -26 209 46 24 26 43 51 43 54 0 4 8 9 18 13 9 3 24 10 32 15 33 20
101 35 109 23 8 -14 91 -33 91 -21 0 5 8 9 18 9 11 0 34 15 53 33 19 18 54 39
79 46 25 7 54 17 65 21 11 4 36 14 55 21 19 7 46 23 60 36 21 20 75 30 64 12z
m-3621 -103 c23 8 94 -38 123 -80 14 -20 31 -36 39 -36 8 0 15 -6 15 -12 1 -7
18 -26 38 -43 51 -40 76 -89 60 -118 -6 -12 -11 -24 -10 -27 2 -10 -11 -54
-24 -79 -8 -14 -14 -32 -14 -38 0 -7 -6 -13 -13 -13 -14 0 -31 -27 -42 -67 -4
-16 -14 -23 -33 -24 l-27 -1 25 -7 c24 -7 24 -8 -9 -15 -21 -5 -29 -11 -21
-16 6 -4 12 -11 13 -16 1 -5 67 -9 147 -10 114 0 149 3 162 14 15 13 29 13 85
4 38 -6 73 -18 79 -27 6 -8 16 -15 22 -15 6 0 17 -8 24 -18 19 -28 79 -36 124
-17 52 21 132 19 172 -5 17 -11 32 -25 32 -30 0 -6 5 -8 10 -5 6 4 11 -14 12
-44 0 -28 1 -57 2 -63 1 -7 -12 -17 -29 -21 -16 -5 -38 -13 -47 -18 -10 -5
-30 -9 -44 -9 -14 0 -43 -13 -64 -30 -21 -16 -42 -30 -47 -30 -16 0 -32 -22
-26 -36 2 -7 26 -16 51 -20 53 -7 148 -49 155 -69 3 -7 26 -21 51 -30 25 -10
44 -20 42 -24 -2 -3 32 -4 75 -2 56 2 84 -1 95 -10 9 -7 26 -18 38 -24 31 -15
64 -86 60 -131 -3 -44 -56 -104 -90 -104 -13 0 -26 -4 -29 -10 -9 -14 -42 -12
-48 3 -4 8 -6 6 -6 -4 -1 -9 -10 -24 -21 -34 -29 -26 -45 -64 -48 -110 -2 -29
-9 -45 -27 -58 -14 -10 -25 -25 -25 -32 0 -7 -20 -31 -45 -53 -25 -22 -45 -45
-45 -51 0 -12 -21 -53 -32 -61 -4 -3 -17 -21 -30 -40 -20 -30 -24 -46 -22
-110 1 -41 4 -90 8 -107 6 -28 5 -33 -10 -33 -16 0 -16 -1 2 -16 18 -15 18
-15 -8 -10 -15 4 -39 1 -53 -6 -18 -8 -29 -8 -33 -2 -4 6 -28 21 -54 34 -54
26 -113 77 -113 97 0 18 -55 53 -83 53 -13 0 -33 -6 -45 -12 -13 -8 -59 -13
-114 -13 -50 0 -94 -3 -97 -6 -7 -7 -13 -29 -25 -99 -8 -46 -37 -116 -52 -125
-4 -3 -27 -6 -51 -6 -42 0 -64 2 -182 21 -47 7 -61 6 -73 -5 -8 -8 -28 -15
-44 -15 -16 0 -29 -4 -29 -10 0 -5 -12 -13 -27 -16 -16 -4 -36 -13 -45 -22
-20 -17 -23 -13 -32 53 -7 46 4 255 13 255 3 -1 24 -26 46 -57 50 -69 114
-143 126 -143 18 0 8 20 -40 84 -28 36 -57 80 -65 98 -45 99 -76 205 -55 192
6 -3 17 -3 25 0 13 5 13 9 -1 35 -8 16 -23 36 -33 43 -11 7 -26 29 -35 48 -22
50 -63 245 -82 391 -16 123 -16 129 5 240 20 105 77 291 113 364 8 17 35 73
60 125 42 86 46 92 47 60 0 -50 -30 -238 -46 -284 -15 -42 -14 -49 2 -38 13 9
89 218 109 302 15 60 37 197 52 328 3 28 10 52 14 52 5 0 9 18 9 39 0 40 15
56 36 39 6 -4 19 -6 27 -2z m-10903 -111 c14 -3 41 -9 61 -12 45 -7 62 -32 46
-67 -12 -25 -15 -26 -97 -26 -74 1 -89 4 -114 24 -24 20 -28 29 -22 52 4 16
13 32 19 37 12 8 57 4 107 -8z m5540 -425 c0 -23 -13 -26 -29 -6 -9 11 -9 15
1 19 23 10 28 7 28 -13z m-265 -10 c-3 -5 -11 -10 -16 -10 -6 0 -7 5 -4 10 3
6 11 10 16 10 6 0 7 -4 4 -10z m-7326 -57 c8 -13 10 -14 11 -4 0 8 2 12 5 9 3
-3 3 -12 -1 -21 -4 -13 -10 -14 -29 -5 -14 6 -21 16 -18 24 7 19 20 18 32 -3z
m7241 12 c0 -2 -10 -10 -22 -16 -21 -11 -22 -11 -9 4 13 16 31 23 31 12z m267
-21 c-3 -3 -12 -4 -19 -1 -8 3 -5 6 6 6 11 1 17 -2 13 -5z m-237 -99 c0 -41 4
-76 8 -79 5 -3 21 8 36 25 34 35 63 37 77 5 10 -20 8 -31 -9 -58 -12 -19 -33
-40 -47 -48 -48 -26 -19 -67 39 -56 51 10 52 -8 1 -60 -25 -26 -45 -54 -45
-63 0 -8 -8 -33 -19 -55 -10 -23 -21 -49 -24 -58 -10 -28 -33 -21 -66 19 -20
24 -29 44 -25 55 4 13 -6 30 -30 54 -50 50 -66 88 -66 158 0 75 8 106 26 106
8 0 14 6 14 14 0 8 17 29 37 48 20 18 46 43 57 55 11 12 24 19 28 17 5 -3 8
-38 8 -79z m-100 51 c0 -3 -4 -8 -10 -11 -5 -3 -10 -1 -10 4 0 6 5 11 10 11 6
0 10 -2 10 -4z m-670 -349 c0 -5 14 -28 30 -52 17 -24 30 -47 30 -50 0 -4 11
-21 25 -39 14 -17 31 -38 37 -46 6 -8 32 -37 56 -64 l45 -48 -6 -125 c-3 -69
-9 -128 -12 -132 -11 -10 -65 61 -95 126 -52 114 -123 343 -137 443 -5 33 -4
34 11 15 8 -11 16 -24 16 -28z m1035 -109 c-4 -29 -13 -73 -21 -98 -19 -60
-30 -258 -23 -395 3 -60 2 -114 -2 -119 -10 -11 -59 66 -79 124 -8 25 -19 51
-24 58 -5 8 -10 33 -12 55 -1 23 -9 80 -17 127 -14 89 -13 120 7 120 14 0 100
82 123 118 21 31 46 62 51 62 2 0 1 -24 -3 -52z m10602 -144 c12 -8 29 -14 38
-14 8 0 37 -15 63 -32 26 -18 57 -38 67 -44 11 -6 23 -26 28 -44 5 -19 17 -46
28 -61 10 -15 19 -34 19 -43 0 -9 7 -19 15 -22 8 -4 15 -12 15 -19 0 -8 9 -17
20 -20 11 -4 18 -10 15 -15 -3 -5 9 -11 26 -15 19 -4 34 -16 39 -30 5 -13 15
-25 22 -27 17 -6 26 -208 9 -208 -14 0 -81 -66 -81 -79 0 -17 -19 -22 -40 -11
-26 14 -90 -4 -90 -25 0 -16 -70 -41 -79 -28 -13 18 -63 12 -99 -12 -20 -14
-42 -25 -49 -25 -7 0 -13 -4 -13 -10 0 -5 -8 -10 -18 -10 -11 0 -25 -18 -40
-51 -14 -30 -36 -58 -54 -69 -17 -10 -36 -29 -42 -42 -6 -12 -21 -23 -31 -23
-11 -1 -25 -4 -31 -7 -22 -14 -101 -38 -129 -39 l-30 -1 30 -8 c28 -7 27 -8
-12 -9 -32 -1 -43 -5 -43 -17 0 -8 -4 -13 -8 -10 -4 2 -14 1 -22 -4 -11 -7
-11 -11 -1 -24 17 -20 31 -20 31 -1 0 8 4 15 9 15 11 0 21 -36 21 -77 0 -31
-2 -33 -35 -33 -33 0 -35 -2 -25 -20 13 -24 30 -26 30 -3 0 14 2 15 13 4 10
-11 10 -14 0 -18 -21 -8 -16 -18 37 -71 45 -46 50 -55 50 -95 0 -56 -28 -88
-124 -142 -73 -41 -123 -49 -137 -22 -5 8 -28 23 -52 32 -40 15 -67 48 -67 82
0 7 -6 13 -12 13 -10 0 -9 3 1 9 9 6 10 14 5 24 -5 9 -7 48 -4 88 l5 73 40 4
c22 1 66 3 98 2 41 0 63 5 74 16 11 11 13 18 5 23 -6 3 -12 22 -15 41 -3 29
-4 28 -3 -7 l1 -43 -40 1 c-23 1 -30 4 -17 6 21 4 22 9 22 84 0 63 -3 79 -15
79 -8 0 -17 11 -21 25 -6 23 -7 24 -19 9 -11 -15 -13 -14 -17 14 -4 25 -1 32
16 35 15 3 13 5 -8 6 -24 1 -27 3 -16 16 10 13 9 15 -11 15 -27 1 -59 22 -59
39 0 6 -12 16 -26 22 -25 9 -26 10 -9 23 18 13 17 14 -5 32 -56 46 -60 53 -61
107 0 28 -2 65 -4 82 -2 16 1 36 8 43 19 23 85 62 105 62 10 0 27 7 38 15 10
8 34 15 52 15 17 0 32 3 32 8 7 108 11 128 37 166 15 23 33 47 40 53 6 7 13
17 15 23 2 6 17 13 33 15 17 2 30 4 30 5 0 1 14 3 30 5 17 2 37 14 45 26 16
24 89 97 141 142 19 16 44 27 60 27 16 0 29 4 29 9 0 24 88 20 127 -5z
m-15264 -31 c-13 -2 -33 -2 -45 0 -13 2 -3 4 22 4 25 0 35 -2 23 -4z m-193
-36 c16 -3 10 -5 -17 -6 -24 0 -43 3 -43 8 0 12 24 20 30 11 3 -5 16 -10 30
-13z m2345 -157 c3 -5 -1 -10 -10 -10 -9 0 -13 5 -10 10 3 6 8 10 10 10 2 0 7
-4 10 -10z m-2618 -72 c-2 -13 -4 -3 -4 22 0 25 2 35 4 23 2 -13 2 -33 0 -45z
m2351 14 c2 -7 -3 -12 -12 -12 -9 0 -16 7 -16 16 0 17 22 14 28 -4z m12612
-522 c0 -5 -7 -7 -15 -4 -8 4 -15 8 -15 10 0 2 7 4 15 4 8 0 15 -4 15 -10z
m-855 -311 c86 -1 104 -5 130 -24 31 -24 85 -38 85 -24 0 5 18 9 40 9 22 0 40
-4 40 -10 0 -6 47 -10 120 -10 100 0 120 -2 120 -15 0 -15 11 -19 38 -16 8 1
21 -4 30 -12 10 -8 30 -17 45 -21 15 -4 25 -11 22 -17 -4 -5 4 -20 18 -33 32
-30 44 -66 23 -66 -22 0 -20 -17 3 -25 10 -3 27 -22 37 -43 10 -20 27 -43 37
-50 9 -7 17 -20 17 -28 0 -8 9 -14 21 -14 11 0 17 -4 14 -10 -3 -5 -15 -10
-26 -10 -10 0 -19 -4 -19 -10 0 -5 9 -10 20 -10 11 0 20 -4 20 -10 0 -5 -7
-10 -16 -10 -25 0 -42 -23 -33 -47 6 -16 13 -20 29 -16 16 4 23 0 27 -15 4
-19 7 -19 20 -7 8 8 18 15 23 15 14 0 30 -35 30 -64 0 -14 8 -30 18 -35 9 -6
13 -11 9 -11 -5 0 -2 -9 6 -21 22 -31 2 -76 -37 -83 -39 -7 -105 15 -119 40
-15 28 -28 34 -69 34 -36 0 -38 -1 -53 -52 -9 -29 -19 -75 -22 -103 -7 -57
-32 -108 -50 -101 -7 3 -17 -4 -23 -14 -8 -16 -8 -20 4 -20 8 0 18 -16 23 -37
l9 -37 64 1 c36 0 60 -1 53 -4 -17 -6 -4 -33 17 -33 17 0 59 -50 43 -50 -5 0
-1 -5 8 -10 8 -5 53 -10 100 -10 159 -3 219 -35 219 -115 0 -79 -58 -105 -245
-111 -71 -2 -152 -10 -179 -17 -47 -12 -142 -4 -156 14 -3 3 -22 12 -42 20
-21 7 -38 18 -38 23 0 6 -11 -1 -23 -15 -15 -16 -26 -42 -29 -71 -7 -60 7
-202 24 -253 12 -37 16 -40 53 -42 188 -12 242 -24 260 -58 5 -12 22 -34 38
-50 25 -27 27 -37 26 -94 -3 -92 -41 -151 -96 -151 -26 0 -73 -23 -73 -35 0
-6 -12 -17 -26 -26 -23 -14 -33 -14 -82 -3 -47 11 -64 22 -108 68 l-51 55 -19
-34 c-10 -19 -15 -37 -11 -41 8 -8 -24 -64 -36 -64 -5 0 -4 -6 2 -14 15 -17 2
-41 -36 -70 -29 -22 -122 -24 -134 -4 -4 7 -20 12 -36 13 -28 0 -28 1 -28 60
0 33 -3 65 -7 71 -4 6 -35 14 -68 17 -68 8 -188 -2 -169 -13 16 -11 -10 -18
-98 -26 l-73 -7 0 -63 c0 -40 4 -64 11 -64 20 0 69 -41 69 -58 0 -10 9 -25 20
-35 11 -9 20 -28 20 -42 0 -18 5 -25 19 -25 10 0 35 -7 54 -15 45 -19 47 -19
47 0 0 8 6 15 14 15 8 0 16 -7 20 -15 3 -8 12 -15 21 -15 8 0 38 -11 67 -25
28 -14 56 -25 61 -25 5 0 23 -6 40 -14 18 -7 45 -17 60 -22 61 -19 75 -104 21
-125 -21 -7 -38 -4 -81 16 -31 14 -62 25 -69 25 -8 0 -14 7 -14 16 0 13 -7 16
-38 12 -24 -4 -42 -1 -50 8 -7 8 -25 17 -40 20 -34 8 -92 43 -92 55 0 5 10 9
23 10 l22 0 -24 10 c-13 5 -55 8 -93 7 -57 -3 -72 0 -82 15 -7 9 -18 17 -24
17 -22 0 -106 32 -119 46 -18 17 -78 34 -128 35 -22 0 -62 4 -88 8 -39 6 -56
4 -85 -10 -44 -23 -42 -23 -42 -4 0 11 -11 15 -40 15 -33 0 -40 -3 -40 -20 0
-17 -7 -20 -40 -20 -34 0 -40 3 -40 21 0 15 -5 19 -19 14 -10 -3 -31 -1 -47 6
-16 6 -80 13 -141 15 -92 4 -113 2 -113 -9 0 -8 -9 -22 -20 -32 -12 -10 -19
-24 -16 -31 7 -17 -46 -34 -108 -34 -64 0 -135 -21 -148 -43 -7 -13 -5 -17 7
-17 8 0 15 -4 15 -10 0 -5 -2 -10 -4 -10 -10 0 -135 74 -166 99 -19 15 -87 59
-150 98 -63 38 -149 92 -191 119 -42 27 -116 74 -164 104 -48 30 -115 73 -149
95 -33 22 -73 46 -88 52 -36 16 -88 63 -88 80 0 7 -4 13 -10 13 -5 0 -10 5
-10 11 0 8 4 8 13 1 21 -17 77 -25 77 -12 0 9 4 9 13 3 11 -10 106 -8 115 2 3
2 6 23 8 45 4 37 2 40 -21 40 -36 0 -105 38 -144 79 -18 20 -37 35 -41 34 -4
-1 -13 11 -20 28 -7 16 -19 33 -27 37 -7 5 -15 24 -18 43 -2 19 -7 45 -11 58
-7 23 -8 24 -15 5 -6 -15 -8 -15 -8 -3 -1 18 -65 72 -74 63 -3 -3 -8 4 -12 15
-5 17 -12 20 -31 15 -20 -5 -26 -2 -31 15 -4 17 -13 21 -45 21 -36 0 -39 -2
-33 -22 6 -17 4 -20 -9 -15 -11 5 -19 0 -25 -16 -5 -12 -23 -38 -40 -56 l-31
-33 21 -19 22 -19 -26 0 c-14 0 -38 5 -53 12 -45 21 -356 428 -333 436 5 2 16
-1 23 -7 15 -13 53 -9 86 9 17 9 20 17 15 39 -5 26 -3 28 47 40 95 22 299 4
331 -29 18 -20 24 -90 7 -90 -5 0 -10 -13 -10 -29 0 -16 -8 -37 -17 -46 -13
-14 -14 -21 -5 -36 7 -10 12 -26 12 -34 0 -24 37 -18 45 8 l8 22 4 -22 c6 -33
15 -29 42 20 21 39 30 46 75 57 28 7 61 19 73 27 28 19 127 42 177 43 26 0 37
4 33 13 -8 21 94 9 116 -14 10 -10 26 -19 36 -19 10 0 26 -9 36 -20 19 -21 45
-27 45 -10 0 6 7 10 15 10 8 0 12 -6 9 -14 -7 -18 23 -29 44 -16 10 5 13 10 9
10 -5 0 -5 5 -2 10 5 8 11 8 19 0 10 -7 21 -4 41 12 15 11 40 22 56 23 48 4
119 75 75 75 -8 0 -17 -6 -19 -12 -4 -10 -6 -10 -6 -1 -1 7 8 17 19 23 11 6
20 15 20 20 0 5 5 21 10 35 9 23 13 25 25 15 8 -7 15 -10 15 -7 0 3 3 12 6 21
4 11 1 16 -11 16 -9 0 -13 5 -10 10 4 6 10 8 15 5 4 -3 10 0 12 7 6 17 28 0
28 -23 0 -12 7 -19 20 -19 11 0 20 -5 20 -11 0 -6 13 -1 30 11 16 12 34 18 40
15 5 -3 10 -2 10 4 0 6 6 8 14 5 8 -3 19 3 26 16 9 17 14 19 26 9 8 -6 14 -7
14 -2 0 13 136 57 155 50 8 -4 17 -2 20 3 4 6 17 10 31 10 13 0 24 4 24 10 0
5 6 7 13 4 7 -2 26 5 41 17 32 25 34 74 3 74 -10 0 -21 5 -25 10 -10 14 -49
35 -64 35 -15 0 -38 45 -38 72 0 11 7 32 15 48 12 24 23 29 67 35 84 10 188
68 188 104 0 9 12 39 25 66 14 28 25 55 25 61 0 15 15 21 74 29 38 6 44 10 35
21 -9 12 -5 14 25 14 21 0 35 4 32 9 -3 4 13 13 34 20 22 6 40 18 40 26 0 7
12 16 28 19 41 9 63 14 110 26 23 6 99 14 169 19 70 5 129 13 131 19 12 36 51
63 105 72 31 5 65 14 76 19 11 6 38 11 60 11 22 0 43 5 46 11 4 6 19 7 36 4
21 -5 29 -3 29 7 0 10 2 10 8 1 5 -8 43 -13 107 -14z m-3792 -432 c34 -72 79
-170 112 -247 15 -36 34 -72 41 -81 8 -8 14 -20 14 -25 0 -5 6 -20 13 -34 7
-14 19 -44 26 -67 8 -23 21 -50 30 -60 9 -10 33 -52 53 -93 58 -115 163 -255
289 -381 49 -50 89 -92 89 -95 0 -2 -10 -4 -22 -4 -15 1 -35 17 -58 46 -19 24
-76 85 -126 134 -51 48 -104 106 -120 127 -15 21 -33 43 -39 48 -13 12 -105
199 -105 214 0 5 -21 51 -46 103 -47 93 -53 106 -94 208 -41 100 -77 184 -99
229 -11 25 -21 49 -21 54 0 21 40 -27 63 -76z m5107 -181 c0 -13 -7 -26 -15
-30 -8 -3 -15 -14 -15 -24 0 -11 -7 -25 -15 -32 -8 -7 -12 -16 -9 -21 8 -14
-65 -39 -113 -39 -52 0 -68 22 -34 46 11 8 21 21 21 28 0 17 27 29 43 19 6 -4
8 0 4 10 -4 11 4 20 29 32 19 9 34 20 34 25 0 6 16 10 35 10 30 0 35 -3 35
-24z m-10194 -273 c28 -37 111 -93 139 -93 12 0 28 -7 35 -15 6 -8 21 -17 32
-21 28 -8 81 -46 115 -80 29 -29 113 -145 126 -174 4 -8 11 -22 16 -30 5 -8
20 -42 32 -75 12 -33 31 -72 41 -87 10 -14 18 -31 18 -37 0 -12 16 -44 36 -71
6 -8 16 -34 23 -58 17 -62 66 -128 115 -157 76 -44 238 -48 339 -7 17 8 27 8
27 1 0 -21 -122 -61 -275 -89 -54 -10 -66 -9 -118 10 -55 21 -107 69 -107 99
0 7 -8 25 -19 39 -10 15 -30 56 -45 92 -16 36 -40 92 -56 125 -15 33 -33 81
-40 108 -7 26 -17 50 -21 53 -5 3 -9 14 -9 24 0 10 -6 25 -13 32 -7 7 -20 32
-29 55 -28 73 -71 129 -135 177 -34 25 -66 46 -72 46 -6 0 -51 21 -101 48
-102 53 -103 56 -120 184 -7 56 -6 86 2 105 10 26 13 19 28 -75 10 -66 23
-112 36 -129z m5388 -7 c29 -50 33 -64 11 -42 -8 8 -15 19 -15 24 0 6 -7 12
-15 16 -13 5 -23 46 -11 46 2 0 16 -20 30 -44z m1703 -48 c-3 -8 -6 -5 -6 6
-1 11 2 17 5 13 3 -3 4 -12 1 -19z m-1637 -54 c0 -8 -4 -12 -10 -9 -5 3 -10
10 -10 16 0 5 5 9 10 9 6 0 10 -7 10 -16z m490 -606 c72 -38 83 -46 111 -89
69 -101 166 -199 197 -199 5 0 23 -13 38 -29 16 -16 54 -42 84 -57 30 -15 76
-42 103 -60 26 -19 50 -34 53 -34 3 0 20 -10 37 -23 18 -12 41 -27 52 -34 34
-21 166 -105 252 -160 45 -29 85 -53 89 -53 8 0 178 -115 203 -137 27 -24 109
-83 116 -83 3 0 32 -18 64 -40 32 -22 63 -40 68 -40 5 0 19 -9 30 -19 11 -11
60 -40 109 -66 49 -25 96 -50 104 -55 116 -69 173 -100 182 -100 6 0 19 -6 27
-14 9 -8 111 -62 226 -120 116 -58 215 -110 222 -116 7 -5 36 -19 65 -30 29
-11 102 -47 162 -80 60 -33 119 -62 130 -66 31 -9 98 -56 121 -84 26 -32 118
-117 173 -160 4 -3 18 -18 32 -33 l25 -28 -28 14 c-16 8 -41 25 -56 38 -36 32
-89 69 -97 69 -3 0 -18 8 -32 19 -50 34 -351 189 -472 242 -41 18 -82 38 -90
44 -8 6 -31 19 -50 28 -19 9 -49 26 -66 36 -16 10 -41 22 -55 26 -13 4 -51 24
-84 44 -33 21 -95 54 -137 74 -43 21 -78 42 -78 47 0 6 -8 10 -18 10 -10 0
-22 4 -28 9 -5 4 -40 25 -79 46 -38 20 -77 43 -85 50 -8 7 -26 16 -40 20 -37
11 -123 60 -220 125 -47 31 -110 71 -140 88 -30 18 -82 52 -115 77 -33 25 -75
52 -92 60 -18 8 -33 19 -33 24 0 6 -16 15 -35 22 -19 7 -35 17 -35 21 0 4 -6
8 -14 8 -8 0 -22 8 -32 18 -18 18 -46 34 -129 75 -28 14 -57 32 -64 41 -7 9
-19 16 -25 16 -6 0 -35 18 -64 40 -29 22 -56 40 -61 40 -5 0 -11 6 -14 14 -5
14 -61 46 -80 46 -5 0 -25 13 -44 30 -18 17 -39 30 -45 30 -13 0 -25 10 -98
81 -37 36 -68 58 -94 64 -40 10 -60 31 -131 138 -14 20 -54 66 -89 102 -35 35
-61 67 -59 69 11 10 82 -9 133 -36z m-1397 25 c-7 -2 -21 -2 -30 0 -10 3 -4 5
12 5 17 0 24 -2 18 -5z m-2893 -53 c0 -5 -7 -10 -16 -10 -8 0 -12 5 -9 10 3 6
10 10 16 10 5 0 9 -4 9 -10z m115 -1 c4 -6 5 -12 3 -14 -7 -7 -48 7 -48 16 0
13 37 11 45 -2z m4395 -23 c0 -15 36 -46 44 -39 3 4 6 -6 6 -20 0 -37 -12 -34
-40 13 -14 22 -28 40 -32 40 -5 0 -8 7 -8 15 0 9 6 12 15 9 8 -4 15 -11 15
-18z m-4569 -17 c-14 -11 -39 -19 -62 -19 -21 0 -39 -5 -39 -11 0 -5 -5 -7
-11 -3 -14 8 26 33 56 34 11 0 31 7 45 15 33 18 41 8 11 -16z m9164 -55 c-14
-15 -25 -31 -25 -35 0 -15 -32 -10 -52 8 -22 20 -24 66 -2 83 8 8 32 16 52 19
34 6 38 4 45 -21 6 -21 2 -32 -18 -54z m-8945 61 c0 -8 -2 -15 -4 -15 -2 0 -6
7 -10 15 -3 8 -1 15 4 15 6 0 10 -7 10 -15z m40 -30 c18 -22 5 -30 -19 -13
-12 8 -18 18 -14 21 10 11 19 8 33 -8z m100 1 c0 -7 7 -19 14 -26 22 -17 124
-185 132 -215 3 -14 9 -25 13 -25 4 0 18 -26 31 -57 13 -32 43 -97 67 -144 23
-48 43 -91 43 -98 0 -6 7 -11 15 -11 19 0 20 -43 1 -59 -10 -9 -17 -6 -30 13
-9 14 -16 30 -16 35 0 5 -15 35 -33 68 -49 86 -53 93 -80 153 -14 30 -29 67
-32 83 -4 15 -11 30 -16 33 -5 2 -17 25 -28 50 -11 25 -34 65 -51 90 -16 25
-30 49 -30 53 0 5 -7 14 -15 21 -8 7 -15 21 -15 31 0 11 7 19 15 19 8 0 15 -6
15 -14z m-1432 -36 c12 -24 16 -43 10 -46 -13 -8 -24 4 -43 49 -22 53 6 51 33
-3z m939 4 c-3 -3 -12 -4 -19 -1 -8 3 -5 6 6 6 11 1 17 -2 13 -5z m433 -19 c0
-8 -4 -15 -10 -15 -5 0 -10 7 -10 15 0 8 5 15 10 15 6 0 10 -7 10 -15z m-493
-11 c-3 -3 -12 -4 -19 -1 -8 3 -5 6 6 6 11 1 17 -2 13 -5z m-1173 -19 c-4 -8
-8 -15 -10 -15 -2 0 -4 7 -4 15 0 8 4 15 10 15 5 0 7 -7 4 -15z m66 0 c0 -8
-2 -15 -4 -15 -2 0 -6 7 -10 15 -3 8 -1 15 4 15 6 0 10 -7 10 -15z m1044 0
c-4 -8 -11 -15 -16 -15 -6 0 -5 6 2 15 7 8 14 15 16 15 2 0 1 -7 -2 -15z
m-244 -97 c-14 -5 -33 -14 -42 -19 -23 -12 -38 -11 -38 1 0 10 53 28 85 28 17
1 16 -1 -5 -10z m-540 -17 c0 -6 -4 -13 -10 -16 -5 -3 -10 1 -10 9 0 9 5 16
10 16 6 0 10 -4 10 -9z m-7140 -16 c0 -10 -10 -15 -27 -15 -27 1 -27 1 -9 15
25 19 36 19 36 0z m5903 -12 c-13 -2 -33 -2 -45 0 -13 2 -3 4 22 4 25 0 35 -2
23 -4z m1577 -3 c-8 -5 -22 -10 -30 -10 -13 0 -13 1 0 10 8 5 22 10 30 10 13
0 13 -1 0 -10z m120 -20 c0 -5 -7 -10 -15 -10 -8 0 -15 5 -15 10 0 6 7 10 15
10 8 0 15 -4 15 -10z m-7736 -49 c3 -5 -1 -14 -9 -21 -13 -10 -15 -9 -15 9 0
21 14 28 24 12z m17090 -73 c15 -24 -10 -49 -40 -42 -20 5 -24 2 -25 -17 -1
-21 -3 -19 -11 8 -12 37 -5 65 16 57 8 -3 17 0 21 6 9 14 26 9 39 -12z
m-16847 -25 c13 -7 30 -13 38 -13 9 0 29 -7 46 -15 25 -13 28 -20 23 -43 -13
-50 -50 -88 -98 -99 -99 -22 -167 20 -111 69 19 16 25 32 25 60 0 51 19 82 40
65 8 -7 25 -18 37 -24z m-276 8 c-9 -6 -12 -25 -8 -67 7 -90 16 -117 50 -147
29 -26 29 -28 12 -47 -10 -11 -24 -20 -32 -20 -17 0 -17 -37 0 -43 6 -3 -2 -6
-20 -6 -26 -1 -30 2 -26 18 3 13 -3 25 -21 36 -29 19 -34 35 -11 35 17 0 20
26 4 36 -6 3 -15 1 -19 -6 -4 -7 -24 -11 -50 -9 -28 2 -45 -1 -48 -9 -2 -6
-16 -12 -30 -12 -15 0 -32 -8 -38 -18 -10 -15 -21 -17 -65 -12 -35 3 -53 10
-51 18 1 6 -8 13 -20 13 -16 1 -18 3 -6 6 31 8 33 63 2 63 -8 0 -14 7 -14 15
0 16 30 35 56 35 9 0 22 7 28 15 8 11 36 18 84 22 39 3 72 9 72 13 0 4 18 13
40 20 27 9 40 19 40 32 0 13 8 18 29 18 17 0 33 5 36 11 4 6 10 8 13 4 4 -3 0
-10 -7 -14z m15559 -5 c0 -11 -19 -15 -25 -6 -3 5 1 10 9 10 9 0 16 -2 16 -4z
m150 -160 c0 -3 -4 -8 -10 -11 -5 -3 -10 -1 -10 4 0 6 5 11 10 11 6 0 10 -2
10 -4z m-16149 -296 c5 0 9 9 9 20 0 33 17 23 18 -11 1 -26 -5 -33 -33 -45
-44 -18 -105 -19 -105 -1 0 18 21 37 41 37 9 0 20 10 23 23 l7 22 16 -22 c8
-13 19 -23 24 -23z m16689 -20 c0 -13 -30 -13 -50 0 -11 7 -7 10 18 10 17 0
32 -4 32 -10z m-17403 -6 c-3 -3 -12 -4 -19 -1 -8 3 -5 6 6 6 11 1 17 -2 13
-5z m16161 -140 c19 -13 23 -23 20 -61 -3 -43 -5 -46 -33 -49 -16 -2 -35 -10
-41 -19 -6 -8 -14 -15 -17 -15 -15 0 -34 58 -30 92 4 29 12 40 37 52 39 19 37
19 64 0z m-481 -70 c-3 -3 -12 -4 -19 -1 -8 3 -5 6 6 6 11 1 17 -2 13 -5z m83
-49 c16 -19 0 -19 -26 0 -16 12 -16 14 -3 15 9 0 22 -7 29 -15z m-6935 -5 c-3
-5 -15 -10 -26 -10 -11 0 -17 5 -14 10 3 6 15 10 26 10 11 0 17 -4 14 -10z
m9451 -210 c-3 -11 -9 -29 -12 -41 -3 -11 -17 -24 -31 -30 -36 -13 -133 -12
-133 3 0 6 3 8 7 5 3 -4 12 2 20 13 8 11 20 20 28 20 8 0 18 6 22 13 12 21 45
36 76 37 24 0 27 -3 23 -20z m-159 -116 c-9 -9 -28 6 -21 18 4 6 10 6 17 -1 6
-6 8 -13 4 -17z m-915 -20 c-4 -21 -22 -35 -37 -30 -13 4 -7 39 8 48 19 12 32
3 29 -18z m-57 -359 c6 -7 19 -14 30 -16 24 -5 51 -52 32 -58 -7 -2 -26 -15
-43 -28 -17 -12 -39 -23 -48 -23 -13 0 -16 -6 -11 -22 4 -17 -7 -9 -39 27 -50
54 -90 128 -74 134 6 2 14 -3 19 -10 6 -10 11 -11 17 -3 4 6 14 13 22 16 23 8
84 -3 95 -17z m773 -80 c17 -14 35 -25 40 -25 29 0 10 -81 -21 -93 -8 -3 -22
-30 -32 -61 -10 -30 -25 -62 -35 -71 -35 -32 -228 -16 -231 20 -4 39 6 81 22
98 10 12 19 24 19 29 0 14 85 97 115 113 45 22 89 19 123 -10z m-677 -287 c1
-7 1 -16 1 -19 -1 -4 9 -4 21 -1 20 5 21 4 8 -11 -12 -15 -11 -20 3 -36 9 -10
16 -22 15 -27 -3 -12 12 -86 21 -102 4 -9 7 -1 8 18 1 42 12 53 12 11 0 -23 9
-41 35 -65 19 -19 35 -41 35 -48 0 -8 5 -19 11 -25 13 -13 4 -47 -10 -39 -5 4
-12 0 -15 -6 -5 -10 -7 -10 -12 0 -9 20 -26 14 -19 -8 3 -11 3 -25 0 -31 -11
-17 -35 37 -66 151 -15 58 -35 120 -45 138 -19 39 -28 112 -14 112 6 0 11 -6
11 -12z"/>
<path d="M3635 7290 c-4 -6 7 -10 25 -10 18 0 29 4 25 10 -3 6 -15 10 -25 10
-10 0 -22 -4 -25 -10z"/>
<path d="M15825 6870 c3 -5 8 -10 11 -10 2 0 4 5 4 10 0 6 -5 10 -11 10 -5 0
-7 -4 -4 -10z"/>
<path d="M17280 6650 c0 -6 7 -10 15 -10 8 0 15 2 15 4 0 2 -7 6 -15 10 -8 3
-15 1 -15 -4z"/>
<path d="M16640 6554 c0 -16 9 -18 28 -5 10 6 9 10 -7 14 -14 3 -21 0 -21 -9z"/>
<path d="M16480 6541 c0 -10 7 -22 16 -25 9 -4 14 -13 10 -21 -3 -9 0 -15 9
-15 8 0 15 7 15 15 0 9 7 18 15 21 8 4 15 15 15 25 0 15 -7 19 -40 19 -33 0
-40 -4 -40 -19z"/>
<path d="M16650 6510 c0 -5 5 -10 11 -10 5 0 7 5 4 10 -3 6 -8 10 -11 10 -2 0
-4 -4 -4 -10z"/>
<path d="M17848 4863 c6 -2 18 -2 25 0 6 3 1 5 -13 5 -14 0 -19 -2 -12 -5z"/>
<path d="M15600 3851 c0 -25 6 -27 13 -6 4 8 2 17 -3 20 -6 4 -10 -3 -10 -14z"/>
<path d="M16002 3835 c3 -13 1 -26 -4 -27 -5 -2 -7 -10 -3 -18 4 -11 16 -14
45 -12 45 5 52 17 15 26 -34 9 -32 25 5 32 41 9 27 24 -22 24 -37 0 -40 -2
-36 -25z"/>
<path d="M14020 3320 c0 -5 9 -10 20 -10 11 0 20 5 20 10 0 6 -9 10 -20 10
-11 0 -20 -4 -20 -10z"/>
<path d="M14760 3076 c-4 -13 -20 -26 -34 -30 -19 -5 -26 -13 -26 -32 0 -14 4
-23 10 -19 6 4 10 -12 10 -39 0 -25 5 -46 10 -46 6 0 10 -7 10 -15 0 -11 -12
-15 -50 -15 l-50 0 0 38 c0 32 4 40 28 50 25 11 25 11 2 6 -14 -3 -34 -6 -45
-5 -18 0 -20 -6 -19 -50 2 -50 21 -89 31 -61 3 8 27 12 69 12 62 0 87 -14 42
-23 -13 -2 -5 -5 18 -6 22 0 45 4 52 11 9 9 13 7 18 -5 6 -18 34 -24 34 -8 0
5 9 7 20 4 18 -5 20 0 20 40 0 25 -4 49 -10 52 -6 4 -10 -6 -10 -22 0 -15 -5
-35 -11 -43 -9 -12 -10 -12 -5 3 3 10 6 36 6 58 0 36 2 39 28 40 20 1 22 2 7
6 -35 9 -41 23 -9 24 l29 1 -29 12 -28 13 31 6 c28 6 45 27 21 27 -5 0 -10 -4
-10 -10 0 -18 -19 -10 -25 11 -5 16 -12 19 -30 15 -14 -4 -27 0 -35 9 -20 24
-59 19 -70 -9z m110 -133 c0 -10 -5 -25 -10 -33 -7 -11 -10 -7 -10 18 0 17 5
32 10 32 6 0 10 -8 10 -17z"/>
<path d="M14962 2813 c2 -5 13 -27 24 -50 10 -24 25 -43 31 -43 12 0 -7 56
-30 88 -10 13 -31 17 -25 5z"/>
<path d="M14905 2790 c3 -5 8 -10 11 -10 2 0 4 5 4 10 0 6 -5 10 -11 10 -5 0
-7 -4 -4 -10z"/>
<path d="M14940 2791 c0 -6 5 -13 10 -16 6 -3 10 1 10 9 0 9 -4 16 -10 16 -5
0 -10 -4 -10 -9z"/>
<path d="M15060 2676 c0 -14 24 -29 33 -19 3 3 3 11 0 19 -7 18 -33 18 -33 0z"/>
<path d="M1000 9829 c0 -5 5 -7 10 -4 6 3 10 8 10 11 0 2 -4 4 -10 4 -5 0 -10
-5 -10 -11z"/>
<path d="M1665 6370 c3 -5 8 -10 11 -10 2 0 4 5 4 10 0 6 -5 10 -11 10 -5 0
-7 -4 -4 -10z"/>
<path d="M267 6123 c-11 -10 -8 -43 3 -43 6 0 10 11 10 25 0 26 -2 29 -13 18z"/>
<path d="M3338 5673 c7 -3 16 -2 19 1 4 3 -2 6 -13 5 -11 0 -14 -3 -6 -6z"/>
<path d="M640 5604 c0 -8 5 -12 10 -9 6 3 10 10 10 16 0 5 -4 9 -10 9 -5 0
-10 -7 -10 -16z"/>
<path d="M2728 5603 c7 -3 16 -2 19 1 4 3 -2 6 -13 5 -11 0 -14 -3 -6 -6z"/>
<path d="M2642 5450 c0 -70 1 -72 9 -31 5 26 5 58 0 75 -7 25 -9 16 -9 -44z"/>
<path d="M2688 5483 c5 -36 5 -36 18 -12 18 33 17 49 -4 49 -15 0 -17 -6 -14
-37z"/>
<path d="M2690 5418 c0 -19 2 -20 10 -8 13 19 13 30 0 30 -5 0 -10 -10 -10
-22z"/>
<path d="M5180 5399 c0 -5 23 -9 52 -9 28 0 49 2 47 4 -9 8 -99 13 -99 5z"/>
<path d="M3178 3283 c7 -3 16 -2 19 1 4 3 -2 6 -13 5 -11 0 -14 -3 -6 -6z"/>
<path d="M8385 3090 c3 -5 8 -10 11 -10 2 0 4 5 4 10 0 6 -5 10 -11 10 -5 0
-7 -4 -4 -10z"/>
<path d="M7298 2793 c12 -2 32 -2 45 0 12 2 2 4 -23 4 -25 0 -35 -2 -22 -4z"/>
<path d="M8208 2713 c6 -2 18 -2 25 0 6 3 1 5 -13 5 -14 0 -19 -2 -12 -5z"/>
<path d="M8845 2665 c-39 -14 -39 -14 35 -9 51 3 70 2 61 -5 -16 -11 89 -4
149 9 24 6 4 8 -65 7 -55 0 -109 2 -120 5 -11 4 -38 0 -60 -7z"/>
<path d="M8756 2649 c5 -8 -4 -10 -32 -6 -21 3 -31 3 -21 1 9 -3 17 -10 17
-15 0 -5 23 -9 50 -9 53 0 58 3 36 26 -17 17 -61 19 -50 3z"/>
<path d="M8865 2641 c-19 -8 -19 -8 1 -19 17 -9 20 -7 20 9 0 10 0 19 -1 18 0
0 -9 -4 -20 -8z"/>
</g>
</svg>
