<?xml version="1.0" standalone="no"?>
<!DOCTYPE svg PUBLIC "-//W3C//DTD SVG 20010904//EN"
 "http://www.w3.org/TR/2001/REC-SVG-20010904/DTD/svg10.dtd">
<svg version="1.0" xmlns="http://www.w3.org/2000/svg"
 width="1280.000000pt" height="720.000000pt" viewBox="0 0 1280.000000 720.000000"
 preserveAspectRatio="xMidYMid meet">

<g transform="translate(0.000000,720.000000) scale(0.100000,-0.100000)"
fill="#000000" stroke="none">
<path d="M2655 7188 c-8 -24 -24 -173 -30 -273 -12 -226 -27 -364 -45 -430
-11 -38 -45 -173 -76 -300 -31 -126 -69 -268 -84 -315 -23 -70 -50 -176 -50
-195 0 -3 5 -5 10 -5 6 0 10 11 10 25 0 14 5 25 10 25 14 0 12 -56 -2 -80 -9
-14 -9 -23 -2 -30 8 -8 31 30 81 132 39 79 81 169 93 200 12 32 28 62 36 69
12 10 14 3 14 -40 0 -33 4 -50 10 -46 6 4 10 32 9 63 -2 81 19 206 48 287 13
39 35 102 48 140 33 102 47 129 57 112 9 -17 -18 -396 -32 -447 -14 -51 -13
-111 3 -107 17 3 22 -70 7 -99 -8 -14 -10 -37 -5 -61 4 -21 10 -128 15 -238 6
-178 24 -448 34 -530 2 -16 -2 -70 -9 -120 -14 -103 -18 -265 -5 -225 4 14 8
65 9 114 1 70 4 87 13 78 8 -8 14 -71 18 -186 5 -171 12 -215 26 -162 11 44
21 20 28 -66 4 -46 18 -128 31 -184 19 -79 23 -116 18 -177 -4 -53 -10 -77
-19 -77 -7 0 -16 10 -19 23 -4 12 -18 45 -30 72 -28 60 -51 166 -66 307 -15
152 -20 142 -14 -32 3 -85 6 -196 5 -247 -1 -53 3 -94 9 -98 7 -4 9 10 5 42
l-5 48 17 -29 c10 -18 14 -41 11 -62 -3 -18 -2 -35 1 -39 8 -8 11 -34 12 -120
1 -33 5 -76 9 -95 8 -34 8 -34 15 20 5 45 10 97 15 174 1 5 8 3 16 -4 8 -7 15
-29 15 -49 0 -20 4 -43 10 -51 14 -23 50 16 50 55 0 18 18 70 39 116 22 46 45
105 51 132 7 26 16 50 21 53 5 2 22 -2 38 -11 17 -8 41 -15 56 -15 31 0 32
-11 6 -143 -19 -97 -29 -124 -38 -99 -7 20 -33 14 -33 -8 0 -11 7 -36 14 -55
15 -35 21 -173 11 -230 -4 -21 0 -17 12 15 10 25 23 45 28 44 6 0 26 -30 45
-66 45 -84 140 -209 140 -184 0 5 -6 17 -14 25 -8 9 -27 41 -43 71 -16 30 -34
64 -40 75 -52 96 -69 197 -44 260 68 165 64 169 90 -85 6 -63 13 -135 16 -160
5 -48 23 -111 35 -120 4 -3 12 -14 18 -25 9 -16 10 1 6 75 -3 52 -7 111 -9
130 -7 56 7 353 16 338 4 -7 12 -101 19 -208 12 -199 32 -396 46 -439 6 -21 5
-23 -14 -19 -60 16 3 -40 75 -67 26 -10 55 -24 63 -31 8 -7 47 -27 85 -44 98
-44 115 -66 116 -154 0 -39 2 -87 4 -108 2 -30 -2 -38 -24 -49 -14 -7 -36 -22
-48 -32 -18 -16 -31 -19 -68 -14 l-45 7 15 -30 c8 -16 15 -40 15 -52 0 -13 13
-87 29 -163 16 -77 32 -162 36 -190 6 -44 8 -47 16 -26 5 13 14 69 20 124 5
56 13 105 16 111 4 5 18 -21 31 -60 24 -66 26 -82 30 -359 7 -385 18 -299 28
213 l7 403 24 -6 c13 -3 80 -33 149 -65 68 -33 128 -60 132 -60 4 0 27 -14 51
-30 24 -17 52 -30 61 -30 10 0 23 -6 29 -14 17 -20 107 -66 130 -66 10 0 24
-7 31 -15 6 -7 64 -39 128 -70 64 -30 124 -60 132 -65 8 -5 49 -26 90 -46 41
-20 82 -40 90 -45 8 -4 35 -20 59 -34 24 -14 48 -25 53 -25 6 0 88 -38 183
-85 96 -47 177 -85 182 -85 5 0 38 -15 73 -34 l65 -33 8 -64 c7 -61 2 -212 -7
-228 -5 -7 -7 -469 -3 -711 1 -74 1 -189 -1 -255 -7 -339 -3 -835 7 -835 8 0
12 85 13 278 1 152 3 313 4 357 2 44 3 383 3 753 0 485 3 672 11 672 7 0 44
-15 83 -34 40 -19 83 -37 96 -41 l24 -7 -19 26 c-11 14 -24 26 -30 26 -6 0
-14 13 -17 28 -15 77 49 169 116 168 l35 -1 6 -60 c11 -104 10 -203 -3 -219
-9 -11 -9 -15 0 -18 10 -3 12 -188 11 -834 0 -456 -4 -889 -7 -961 -7 -130 -6
-133 14 -133 16 0 21 6 21 25 0 31 5 31 46 0 l33 -25 563 0 563 0 32 49 c18
27 44 71 58 97 14 26 31 55 39 64 7 8 19 31 26 50 7 19 21 46 30 60 17 24 196
387 277 560 48 100 132 292 163 370 12 30 28 69 35 85 7 17 27 68 45 115 17
47 39 105 48 130 l17 45 3 -64 c2 -46 -6 -101 -27 -190 -19 -79 -35 -180 -42
-271 -6 -80 -15 -185 -19 -235 -20 -205 -33 -576 -25 -717 l7 -148 419 0 419
0 -6 48 c-2 26 -7 63 -9 82 -3 25 -2 31 5 20 5 -8 10 -25 10 -38 0 -12 9 -42
21 -67 l21 -45 474 0 474 0 0 23 0 22 21 -25 c17 -20 19 -21 14 -5 -4 11 -9
29 -11 40 -36 220 -49 257 -107 315 -14 14 -107 72 -208 129 -101 57 -200 114
-219 126 -19 13 -66 41 -105 64 -38 23 -104 63 -145 90 -153 100 -409 259
-480 297 -52 29 -275 183 -384 267 -71 54 -76 61 -76 95 0 74 51 206 123 319
15 24 27 45 27 48 0 2 17 33 38 67 21 35 53 93 72 130 18 37 40 73 48 80 13
11 14 8 9 -29 -19 -114 -28 -256 -22 -328 5 -64 3 -84 -9 -100 -21 -28 -20
-32 9 -32 20 0 25 4 25 26 0 30 39 102 59 109 10 3 12 -6 10 -42 -2 -25 -3
-46 -2 -46 2 0 21 42 43 95 5 11 21 52 36 90 15 39 40 96 56 128 48 96 238
625 238 663 0 8 4 14 9 14 4 0 11 -62 14 -137 5 -130 38 -385 56 -428 5 -13
10 13 14 75 5 81 35 266 53 323 8 24 24 21 26 -5 0 -13 4 33 8 102 5 87 16
163 38 250 17 69 36 152 42 185 6 33 14 70 17 83 4 16 1 22 -11 22 -9 0 -16
-4 -16 -9 0 -18 -108 -120 -150 -141 -41 -21 -48 -22 -95 -10 -55 14 -128 67
-120 88 3 8 0 10 -6 6 -8 -5 -10 2 -6 22 13 69 40 151 55 169 22 27 124 79
225 116 77 27 147 70 147 90 0 14 -19 11 -48 -10 -29 -20 -153 -64 -160 -56
-7 6 0 140 7 140 2 0 4 11 7 25 2 14 12 32 22 40 33 29 83 100 92 130 6 22 3
49 -12 99 l-20 68 24 134 24 134 37 -1 c53 -2 65 -16 72 -92 12 -142 27 -268
32 -291 6 -23 6 -23 24 10 15 30 17 51 12 167 -6 136 2 165 27 100 17 -42 30
-59 40 -53 13 8 -6 61 -39 109 -29 45 -34 60 -32 104 1 15 7 22 20 22 25 0 51
10 51 20 0 4 -14 13 -32 19 l-31 11 6 188 c4 103 7 229 7 280 0 92 11 115 25
49 4 -17 13 -43 20 -57 43 -81 53 -136 59 -297 5 -109 3 -163 -4 -163 -5 0
-10 -7 -10 -15 0 -8 7 -15 16 -15 19 0 90 49 126 87 33 35 93 154 102 205 11
62 -11 51 -39 -20 -31 -80 -87 -165 -126 -193 -38 -26 -37 -31 -20 211 6 85
13 226 17 312 3 87 10 156 14 153 12 -8 59 -110 82 -180 36 -108 56 -105 29 5
-28 109 -40 139 -82 204 -37 55 -39 63 -39 135 l1 76 85 -169 c46 -94 87 -172
91 -175 3 -3 3 12 1 35 -7 50 -106 261 -149 315 -24 31 -30 45 -25 67 12 48
28 82 40 82 13 0 56 -37 56 -48 0 -4 12 -20 26 -37 33 -38 113 -206 145 -305
l24 -75 6 95 c4 52 4 192 2 310 -5 192 -4 213 10 200 8 -8 25 -44 37 -80 13
-36 33 -88 45 -116 13 -28 26 -75 30 -103 4 -29 13 -55 22 -60 9 -4 28 -35 44
-67 l28 -59 0 38 c1 25 -4 40 -14 43 -8 4 -15 14 -15 23 0 9 -9 40 -20 69 -20
53 -27 152 -11 152 11 0 21 -35 21 -72 0 -16 5 -28 11 -28 7 0 9 24 5 78 -10
128 -16 313 -20 588 -2 144 -8 270 -14 280 -10 20 -26 312 -17 302 6 -6 34
-78 65 -168 31 -91 87 -306 119 -460 36 -169 54 -241 58 -236 6 6 5 176 -2
231 -22 176 -61 435 -85 555 -15 80 -33 179 -40 220 -6 41 -18 105 -26 142
-19 89 -19 104 1 88 8 -7 15 -18 15 -25 0 -7 9 -24 21 -39 19 -24 104 -173
133 -233 6 -13 14 -23 19 -23 4 0 7 -7 7 -17 0 -9 3 -14 6 -11 3 3 -2 29 -11
56 -10 28 -15 57 -12 64 3 7 6 3 6 -9 1 -13 6 -23 11 -23 6 0 10 -7 10 -17 0
-9 2 -14 5 -11 3 2 -9 81 -25 174 -27 157 -49 250 -86 382 l-15 52 -1950 0
-1949 0 26 -57 c82 -182 101 -235 113 -298 13 -75 18 -98 52 -215 28 -99 40
-129 47 -111 2 7 -3 51 -13 97 -9 45 -15 88 -13 94 4 14 178 -333 178 -355 0
-8 4 -23 10 -33 5 -9 19 -46 31 -81 30 -88 55 -142 62 -135 3 4 2 14 -2 23
-14 26 -25 108 -13 96 8 -8 57 -97 130 -240 9 -16 38 -66 66 -110 27 -44 65
-109 83 -145 19 -35 40 -71 47 -80 7 -8 30 -46 50 -83 21 -38 76 -124 122
-193 46 -68 84 -128 84 -134 0 -11 -41 -31 -78 -37 -25 -4 -93 -42 -177 -98
-61 -41 -69 -48 -88 -75 -14 -20 -15 -20 -88 17 -98 50 -97 49 -74 23 11 -13
44 -39 74 -58 45 -29 58 -33 73 -23 10 6 25 11 33 11 9 0 29 14 45 30 32 33
45 38 36 15 -7 -20 47 -21 63 -1 6 8 46 22 89 31 55 13 86 26 107 47 32 29 50
35 60 18 12 -20 -6 -50 -31 -50 -13 0 -24 -4 -24 -10 0 -5 -9 -10 -19 -10 -22
0 -81 -31 -81 -42 0 -5 -6 -8 -14 -8 -8 0 -16 -7 -20 -15 -8 -22 7 -19 61 13
62 36 127 62 157 62 16 0 37 -15 62 -46 58 -69 66 -61 -86 -85 -104 -16 -208
-64 -187 -86 3 -3 23 1 44 8 21 7 47 14 58 14 11 1 40 5 65 9 l45 8 -32 -24
c-18 -12 -55 -39 -83 -58 -91 -62 -96 -67 -83 -81 9 -9 33 -1 108 35 53 25
101 44 106 40 5 -3 9 -14 9 -25 0 -29 25 -34 59 -10 16 12 40 21 53 21 37 0
103 -27 106 -43 3 -12 42 -35 72 -41 3 -1 24 -20 48 -43 70 -68 131 -69 208
-2 25 21 49 39 55 39 5 0 9 11 9 23 0 58 84 74 108 22 7 -14 16 -25 21 -25 15
0 23 18 11 25 -13 8 -13 25 -1 25 12 0 41 -58 41 -82 0 -19 16 -23 37 -10 17
10 32 90 37 183 1 42 6 80 9 86 11 17 143 36 166 23 34 -18 93 -120 119 -205
48 -160 47 -147 11 -198 -20 -29 -29 -52 -25 -63 6 -15 10 -14 37 12 l30 29
-6 -55 c-3 -30 -10 -73 -16 -95 -5 -22 -14 -69 -18 -105 -5 -36 -12 -75 -16
-87 -5 -15 -3 -23 4 -23 6 0 11 5 11 11 0 6 6 25 13 42 24 55 37 102 37 133 0
16 6 36 13 46 11 14 15 4 30 -65 9 -45 22 -110 27 -144 13 -73 35 -133 42
-112 3 8 3 64 1 124 -4 82 -2 107 6 99 7 -6 16 -33 21 -60 16 -86 37 -216 50
-308 7 -50 19 -106 27 -125 11 -25 13 -52 9 -93 -7 -60 -49 -234 -84 -348 -11
-36 -32 -108 -46 -160 -15 -52 -33 -108 -40 -125 -8 -16 -30 -77 -49 -135
-102 -308 -161 -473 -208 -579 -48 -107 -62 -132 -100 -173 -21 -24 -39 -52
-39 -63 0 -28 -38 -87 -52 -83 -21 7 -58 91 -53 118 4 17 -4 43 -20 74 -14 27
-30 70 -36 97 -8 35 -20 57 -45 78 -19 17 -34 33 -34 36 0 3 -21 27 -47 54
-27 26 -67 68 -89 94 -27 31 -50 47 -65 47 -13 1 -44 11 -69 23 -35 17 -51 34
-75 78 -16 32 -39 67 -50 79 -27 29 -97 60 -137 60 -26 0 -44 10 -76 41 -46
43 -76 45 -42 2 11 -14 20 -34 20 -43 0 -10 9 -37 20 -61 11 -24 20 -56 20
-70 0 -14 10 -41 23 -59 22 -33 181 -150 204 -150 6 0 13 -5 15 -11 5 -14 38
0 38 16 0 8 -4 17 -10 20 -5 3 -10 13 -10 20 0 12 5 12 26 3 28 -13 64 -75 57
-96 -3 -7 2 -21 12 -32 11 -12 13 -20 5 -25 -8 -5 -8 -10 0 -20 7 -8 9 -24 5
-35 -4 -13 2 -52 16 -93 18 -59 30 -79 67 -111 l44 -40 -5 -60 c-5 -57 -3 -66
38 -146 50 -99 67 -187 41 -209 -13 -11 -25 -3 -80 56 -36 37 -68 79 -71 92
-13 52 -43 79 -112 101 -64 21 -68 21 -80 4 -17 -24 -16 -61 2 -115 13 -35 24
-48 56 -63 38 -17 109 -104 109 -133 0 -6 11 -25 25 -42 24 -28 25 -32 11 -58
-59 -112 -686 -782 -851 -909 -300 -232 -419 -287 -621 -288 -112 -1 -112 -1
-190 40 l-79 40 -8 285 c-7 256 -4 333 17 579 1 19 -1 40 -6 46 -5 7 -7 67 -6
135 l3 124 28 3 c30 4 27 22 -3 22 -32 0 -38 29 -33 155 2 66 6 210 8 320 4
216 14 395 21 395 3 0 26 -22 53 -50 52 -53 71 -62 71 -31 0 30 -89 130 -116
131 -28 0 -34 210 -34 1135 0 512 4 956 9 988 4 33 5 129 1 215 -7 152 -6 182
9 182 4 0 44 -77 90 -171 46 -94 85 -168 88 -165 3 3 1 18 -5 33 -6 15 -23 75
-37 133 -15 58 -33 130 -41 160 -8 30 -19 71 -24 90 -16 58 -62 271 -72 330
-5 32 -8 390 -6 868 3 768 2 812 -14 812 -17 0 -18 -25 -19 -377 0 -208 -4
-515 -8 -683 -7 -265 -11 -310 -26 -342 -10 -21 -22 -38 -25 -38 -4 0 -13 14
-21 30 l-14 31 -35 -30 c-38 -33 -80 -41 -80 -16 0 8 7 15 15 15 8 0 15 5 15
10 0 6 -4 10 -9 10 -6 0 -13 -4 -16 -10 -3 -5 -19 -10 -36 -10 -21 0 -29 5
-30 18 0 9 -2 26 -4 37 -7 34 -15 380 -20 870 -2 259 -5 473 -5 478 0 4 -9 7
-20 7 -20 0 -20 -7 -21 -452 -1 -249 -3 -446 -4 -438 -2 8 -6 32 -10 53 -7 42
-19 48 -30 15 -7 -21 -8 -20 -12 10 -5 38 -23 44 -23 7 0 -14 -4 -25 -10 -25
-5 0 -10 16 -10 35 0 39 -16 48 -23 13 -2 -13 -5 -4 -6 19 -1 37 -4 42 -23 40
-16 -1 -23 5 -30 28 -14 52 -20 79 -25 118 -6 47 -23 59 -22 15 0 -50 45 -262
89 -423 12 -44 30 -116 41 -160 11 -44 29 -109 41 -145 60 -193 58 -166 57
-680 0 -468 -3 -505 -30 -390 -4 19 -12 51 -18 70 -107 370 -210 890 -276
1385 -3 22 -9 60 -14 85 -5 25 -14 77 -21 115 -6 39 -15 79 -20 90 -5 11 -11
46 -14 79 -4 32 -11 66 -17 75 -8 13 -9 11 -5 -9 12 -64 18 -219 8 -236 -11
-20 -10 -23 -25 51 -3 11 -5 1 -6 -22 -1 -31 -5 -43 -16 -43 -8 0 -15 7 -15
16 0 8 -4 12 -10 9 -6 -4 -10 7 -10 27 l-1 33 -14 -30 c-11 -25 -13 -27 -14
-9 -1 12 -8 25 -17 28 -13 5 -15 15 -11 49 4 24 3 34 -2 23 -11 -28 -21 -7
-27 56 -3 29 -10 62 -14 73 -5 11 -14 36 -19 55 -10 34 -10 34 -6 -10 3 -25 9
-90 15 -145 5 -55 16 -131 25 -170 8 -38 26 -135 39 -215 14 -80 32 -176 40
-215 43 -210 79 -376 92 -420 8 -27 19 -66 24 -85 13 -50 69 -240 80 -270 37
-107 93 -258 101 -272 12 -23 12 -48 0 -48 -24 0 -217 105 -234 127 -13 16
-26 23 -38 20 -12 -3 -19 0 -19 8 0 14 -28 29 -100 56 -19 7 -84 34 -145 61
-60 27 -117 47 -127 45 -9 -3 -19 1 -22 9 -3 8 -12 14 -21 14 -32 0 -82 35
-170 119 -50 47 -112 105 -138 129 -26 24 -47 48 -47 55 0 7 9 50 19 97 11 47
34 157 52 245 41 205 45 227 58 305 7 36 20 108 30 160 11 52 26 145 35 205 9
61 21 135 26 166 12 69 12 79 0 79 -5 0 -10 -11 -10 -24 0 -14 -5 -37 -11 -53
-6 -15 -11 -45 -11 -65 1 -21 -3 -38 -9 -38 -5 0 -9 -9 -9 -19 0 -30 -19 -35
-29 -9 -7 17 -10 19 -10 6 -1 -10 -7 -18 -14 -18 -8 0 -19 -18 -26 -40 -6 -22
-17 -40 -23 -40 -6 0 -8 9 -3 23 8 27 24 201 24 280 1 73 -14 67 -23 -10 -4
-32 -10 -83 -15 -113 -5 -30 -14 -100 -20 -155 -7 -55 -25 -194 -41 -310 -31
-219 -43 -306 -61 -440 -6 -44 -15 -90 -20 -103 -5 -13 -9 -34 -9 -47 0 -28
-21 -33 -40 -9 -23 26 -80 44 -146 44 -34 0 -65 4 -69 10 -3 5 1 31 9 57 8 26
42 147 75 268 34 121 65 234 71 250 5 17 30 113 56 215 25 102 50 190 54 195
4 6 10 24 13 40 3 17 13 64 21 105 8 41 15 82 15 90 0 26 -38 -94 -39 -125 -1
-26 -3 -27 -10 -10 -8 18 -9 17 -9 -8 -1 -15 -7 -38 -15 -50 -8 -12 -16 -40
-19 -62 -2 -22 -9 -49 -15 -60 -11 -19 -11 -18 -12 8 0 15 -5 27 -11 27 -8 0
-10 -12 -6 -36 3 -20 4 -49 0 -64 -5 -25 -8 -27 -24 -17 -25 15 -24 27 1 27
13 0 20 7 20 20 0 18 -3 19 -20 10 -11 -6 -20 -15 -20 -20 0 -6 -9 -10 -20
-10 -11 0 -20 -4 -20 -10 0 -5 5 -10 10 -10 6 0 10 -7 10 -15 0 -8 -4 -15 -9
-15 -11 0 -21 35 -21 77 0 27 3 31 23 26 19 -4 20 -3 5 7 -10 6 -18 19 -19 28
0 9 -5 1 -11 -18 -16 -58 -25 -54 -27 12 -3 76 -3 93 5 183 3 39 7 99 8 135 2
36 6 79 10 96 5 20 1 43 -12 72 l-18 41 -18 -30 c-9 -16 -14 -34 -10 -41 5 -7
3 -8 -5 -4 -8 6 -10 21 -6 47 4 25 3 39 -4 39 -5 0 -12 -26 -14 -57 l-3 -58
-2 58 -2 57 -615 0 c-484 0 -617 -3 -620 -12z m3846 -315 c12 -21 38 -67 57
-103 31 -56 130 -223 274 -460 22 -36 49 -81 60 -100 70 -116 173 -275 180
-278 4 -2 8 -8 8 -14 0 -5 13 -28 29 -51 15 -23 63 -100 106 -172 43 -71 86
-139 97 -151 10 -11 18 -24 18 -28 0 -4 25 -42 55 -84 30 -41 52 -78 50 -82
-2 -4 -29 -13 -60 -20 -31 -7 -58 -17 -61 -22 -12 -19 -83 -40 -147 -43 l-68
-4 -49 77 c-28 42 -50 80 -50 84 0 5 -25 60 -55 123 -30 62 -55 118 -55 124 0
6 -13 39 -29 73 -15 35 -34 81 -41 103 -7 22 -34 94 -61 160 -26 67 -53 143
-60 170 -6 28 -15 55 -19 60 -4 6 -12 26 -18 45 -6 19 -36 114 -66 210 -31 96
-68 213 -82 260 -15 47 -30 98 -35 114 -18 58 -10 61 22 9z m-2547 -245 c-9
-59 -14 -60 -14 -5 0 26 5 47 10 47 6 0 8 -16 4 -42z m440 -24 c3 -9 5 -34 5
-57 -1 -38 -2 -39 -8 -12 -5 25 -8 27 -14 12 -4 -10 -7 -30 -7 -44 0 -15 -3
-24 -6 -20 -9 9 6 137 16 137 4 0 11 -7 14 -16z m-414 -53 c0 -6 -4 -13 -10
-16 -5 -3 -10 1 -10 9 0 9 5 16 10 16 6 0 10 -4 10 -9z m369 -91 c-1 -13 -1
-13 -6 0 -3 8 -10 18 -16 21 -5 4 -6 13 -2 20 6 9 10 8 16 -7 4 -10 8 -26 8
-34z m681 4 c0 -9 -5 -14 -12 -12 -18 6 -21 28 -4 28 9 0 16 -7 16 -16z m100
-66 c0 -45 -11 -46 -16 -1 -3 26 2 43 12 43 2 0 4 -19 4 -42z m-813 10 c-3 -8
-6 -5 -6 6 -1 11 2 17 5 13 3 -3 4 -12 1 -19z m3119 -320 c10 -18 25 -44 34
-58 50 -73 159 -250 173 -280 8 -19 27 -66 41 -105 15 -38 32 -83 40 -100 50
-113 48 -102 17 -125 -16 -11 -32 -20 -36 -20 -7 0 -89 171 -160 335 -26 61
-59 135 -72 165 -14 30 -32 73 -40 95 -8 22 -26 65 -40 95 -30 65 -53 128 -53
144 0 12 67 -91 96 -146z m359 -564 c21 -33 34 -63 30 -72 -5 -14 -8 -13 -25
4 -16 17 -55 124 -45 124 3 0 21 -25 40 -56z m-2200 -82 c35 -123 71 -236 141
-449 41 -123 71 -230 68 -240 -6 -20 -55 -123 -58 -123 -9 0 -137 66 -158 82
l-28 19 0 390 c0 231 4 388 9 385 5 -4 17 -32 26 -64z m1929 -20 c28 -40 32
-52 17 -52 -10 0 -51 65 -51 81 0 16 6 10 34 -29z m1736 -11 c0 -6 -4 -13 -10
-16 -5 -3 -10 1 -10 9 0 9 5 16 10 16 6 0 10 -4 10 -9z m-1375 -39 c11 -9 31
-33 45 -52 36 -52 174 -225 182 -228 17 -8 7 -30 -16 -36 -57 -14 -210 -25
-222 -15 -6 5 -23 37 -38 72 -15 34 -31 69 -36 77 -28 45 -58 109 -65 138 -6
31 -6 32 29 32 34 0 37 -3 71 -72 19 -40 35 -80 35 -89 0 -19 24 -42 33 -32 4
3 0 17 -8 29 -31 47 -64 157 -54 176 12 22 18 22 44 0z m1244 -94 c15 -132 14
-165 -6 -186 -10 -10 -23 -27 -30 -38 -9 -15 -10 11 -7 116 9 245 23 282 43
108z m-1482 0 c41 -44 54 -71 43 -89 -22 -35 -113 63 -97 104 9 24 19 21 54
-15z m-4661 -105 c-6 -105 -12 -138 -32 -182 -13 -29 -24 -60 -24 -67 0 -8 -5
-14 -11 -14 -8 0 -10 21 -5 73 12 127 56 317 74 317 3 0 2 -57 -2 -127z m4549
65 c45 -42 45 -58 0 -59 -45 -2 -46 -2 -70 -17 -16 -10 -7 -11 50 -6 67 6 74
5 128 -26 57 -32 69 -31 42 4 -16 21 -12 36 10 36 15 0 83 -68 102 -103 20
-37 15 -46 -29 -51 -104 -12 -397 -36 -440 -36 -47 0 -48 1 -78 53 -37 64 -35
81 8 85 17 2 32 8 32 14 0 7 -16 9 -45 5 -33 -5 -48 -3 -60 9 -18 18 -20 34
-3 34 6 0 23 10 36 23 17 15 26 18 29 10 7 -19 30 -16 75 9 32 18 42 20 58 10
16 -9 27 -7 62 13 24 14 46 25 50 25 4 0 23 -15 43 -32z m-2884 -54 c20 -10
28 -21 25 -32 -17 -60 -27 -138 -20 -160 4 -15 7 -30 6 -34 -1 -5 1 -8 6 -8 4
0 22 -13 40 -30 37 -34 78 -44 50 -12 -9 9 -23 41 -32 70 -12 44 -13 64 -4
105 6 29 15 55 21 59 6 4 32 -3 57 -16 25 -13 63 -29 85 -36 22 -7 51 -19 65
-28 14 -9 36 -18 50 -20 13 -2 27 -8 31 -13 3 -5 0 -45 -6 -88 -18 -126 -81
-191 -183 -191 -82 0 -133 29 -187 108 -25 37 -45 74 -45 82 0 9 -7 26 -16 38
-22 32 -22 164 1 198 18 28 18 28 56 8z m359 -78 c0 -3 -4 -8 -10 -11 -5 -3
-10 -1 -10 4 0 6 5 11 10 11 6 0 10 -2 10 -4z m4154 -158 c16 -249 18 -315 9
-321 -6 -4 -27 61 -51 160 l-42 167 31 48 c17 26 34 46 39 43 4 -2 10 -46 14
-97z m-6194 -213 c-7 -82 -16 -157 -20 -165 -5 -8 -6 -54 -3 -102 4 -58 2 -88
-4 -88 -7 0 -13 53 -17 138 -4 75 -12 160 -18 187 -6 28 -10 71 -10 97 1 46
18 95 29 84 4 -3 16 9 27 27 l21 32 3 -30 c2 -16 -1 -97 -8 -180z m944 150 c3
-8 1 -15 -4 -15 -6 0 -10 7 -10 15 0 8 2 15 4 15 2 0 6 -7 10 -15z m8 -109
c48 -74 48 -74 -18 -333 -13 -51 -24 -106 -24 -123 0 -16 -5 -30 -10 -30 -12
0 -13 563 -2 575 4 4 9 -1 10 -10 2 -10 22 -45 44 -79z m18 63 c0 -6 -4 -7
-10 -4 -5 3 -10 11 -10 16 0 6 5 7 10 4 6 -3 10 -11 10 -16z m30 -52 c0 -5 -4
-5 -10 -2 -5 3 -10 14 -10 23 0 15 2 15 10 2 5 -8 10 -19 10 -23z m-734 -193
c6 -184 -1 -309 -16 -334 -7 -12 -16 -10 -55 9 -26 13 -49 30 -53 39 -3 9 9
75 27 146 18 72 37 151 43 176 21 88 40 151 44 147 3 -3 7 -85 10 -183z m2606
-11 c0 -65 0 -210 -1 -323 l-2 -205 -78 81 c-58 61 -82 94 -94 131 -9 27 -19
57 -23 66 -15 40 27 13 77 -50 55 -68 83 -92 94 -81 9 9 -19 57 -59 101 -19
21 -38 47 -41 58 -6 16 -13 20 -40 19 -12 -1 -65 31 -65 39 0 4 11 18 25 31
25 23 36 80 15 80 -5 0 -14 10 -21 21 -14 26 1 39 46 39 55 1 112 35 135 80
12 23 24 40 27 37 2 -3 5 -59 5 -124z m-1742 101 c0 -2 -7 -4 -15 -4 -8 0 -15
4 -15 10 0 5 7 7 15 4 8 -4 15 -8 15 -10z m5 -44 c14 0 44 -11 67 -25 61 -36
116 -60 168 -73 108 -26 408 -52 586 -50 67 0 127 -3 133 -6 35 -22 -18 -27
-256 -25 -173 1 -258 -2 -265 -9 -24 -24 40 -30 347 -31 156 -1 215 -5 202
-12 -9 -6 -25 -9 -35 -8 -34 3 -85 -1 -80 -7 18 -18 386 -41 461 -28 22 3 37
11 37 20 0 11 -19 14 -82 15 -46 1 -126 4 -178 8 l-95 7 75 7 c41 4 128 10
193 12 120 4 137 -1 105 -34 -11 -10 -9 -15 7 -27 18 -13 20 -28 22 -147 5
-361 1 -1302 -7 -1322 -5 -13 -5 -52 1 -93 8 -61 8 -209 -3 -590 -3 -87 -4
-92 -25 -92 -32 0 -83 33 -83 54 0 10 11 31 25 48 34 40 32 58 -3 25 -15 -15
-31 -27 -34 -27 -3 0 -9 44 -13 98 -7 108 -12 132 -26 132 -5 0 -9 -40 -9 -88
l0 -88 -61 2 c-55 2 -99 14 -53 14 19 1 19 1 0 15 -11 8 -35 15 -53 15 -28 0
-33 4 -38 28 -3 15 -14 56 -25 92 -10 36 -22 86 -26 113 -6 45 -24 66 -24 30
-1 -10 -1 -62 -2 -116 0 -92 -11 -131 -24 -90 -3 10 -10 28 -16 39 -5 12 -8
30 -6 40 3 16 7 14 21 -11 9 -16 16 -25 17 -19 0 6 -9 23 -21 38 -23 29 -27
56 -16 100 7 23 5 27 -7 23 -11 -4 -17 7 -26 45 -6 29 -15 58 -22 65 -7 9 -7
17 2 28 20 25 38 18 33 -12 -4 -22 -2 -25 6 -13 20 28 11 59 -26 95 -41 40
-58 30 -26 -14 17 -22 18 -28 7 -39 -12 -11 -14 -9 -14 7 0 19 -24 68 -88 181
-18 30 -36 71 -42 91 -18 65 -89 129 -127 115 -12 -5 -9 -13 14 -40 15 -19 34
-35 41 -35 6 -1 12 -5 12 -11 0 -9 -15 -14 -33 -11 -5 1 -20 -8 -34 -19 -29
-23 -44 -19 -38 10 2 11 -2 20 -8 20 -7 0 -23 14 -37 31 -43 54 -64 71 -69 57
-2 -7 -11 -18 -20 -25 -14 -10 -14 -15 -2 -35 8 -13 17 -36 20 -52 7 -32 31
-48 31 -21 0 9 -4 13 -10 10 -17 -10 -11 25 7 43 16 16 16 16 11 -5 -3 -13 -2
-23 3 -23 11 0 0 -52 -12 -60 -5 -3 -4 -19 0 -35 6 -18 10 -23 10 -12 1 20 41
77 41 58 0 -16 24 -14 60 7 l31 17 25 -30 c13 -16 24 -42 24 -56 0 -15 7 -30
16 -33 8 -3 13 -9 11 -13 -3 -5 -1 -17 4 -28 7 -17 8 -18 10 -2 1 9 3 22 4 27
1 6 3 13 4 18 4 21 31 -56 31 -88 0 -30 -4 -37 -17 -36 -13 1 -17 -5 -15 -24
1 -13 6 -27 10 -30 16 -11 11 -56 -7 -67 -25 -16 -83 2 -113 34 -20 21 -23 37
-26 126 -4 122 -7 134 -27 117 -9 -8 -15 -37 -17 -88 -2 -49 -7 -77 -15 -80
-19 -6 -29 28 -12 39 12 8 12 10 -1 19 -12 8 -16 1 -20 -38 -4 -42 -8 -47 -32
-50 -15 -2 -38 4 -52 13 -35 23 -47 13 -34 -31 11 -41 3 -80 -12 -54 -11 20
-13 115 -4 269 6 111 5 125 -11 137 -9 7 -23 10 -31 7 -11 -4 -10 1 2 26 17
34 42 56 31 27 -4 -11 -3 -16 4 -14 6 2 10 7 9 11 -8 35 -14 47 -21 47 -25 0
-93 60 -103 91 -8 26 -17 35 -38 37 -15 2 -36 -1 -47 -7 -24 -13 -31 2 -31 65
0 24 -4 44 -10 44 -5 0 -10 -20 -10 -44 0 -36 -6 -51 -30 -78 -16 -18 -30 -39
-30 -47 0 -12 -3 -12 -12 -3 -9 9 -9 15 0 24 17 17 15 57 -3 64 -8 4 -15 12
-15 19 0 25 -51 75 -76 75 -33 0 -46 42 -69 223 -4 27 -9 46 -12 43 -4 -3 -13
0 -21 7 -9 6 -13 7 -10 2 9 -16 28 -161 30 -233 1 -49 -3 -68 -19 -91 -12 -15
-25 -45 -28 -65 -17 -86 -23 -18 -23 252 0 297 2 317 37 439 11 40 18 78 15
86 -3 8 -1 18 5 22 6 3 11 19 11 34 0 32 29 165 60 271 24 83 36 130 45 175
11 49 38 103 43 83 2 -11 13 -18 27 -18z m-365 -316 c-11 -254 -18 -350 -25
-342 -2 2 -7 51 -10 108 -4 58 -8 111 -10 117 -2 7 -5 77 -5 155 -1 127 1 149
20 192 13 29 26 44 31 39 5 -5 5 -113 -1 -269z m5204 65 c7 -67 -1 -92 -22
-66 -15 18 -17 36 -8 107 9 76 19 62 30 -41z m-456 -14 c-3 -3 -9 2 -12 12 -6
14 -5 15 5 6 7 -7 10 -15 7 -18z m-2898 -55 c7 -16 10 -37 6 -45 -3 -9 11 -40
35 -75 22 -32 58 -101 80 -152 23 -51 49 -111 60 -133 l20 -40 -7 35 c-3 19
-12 46 -19 60 -7 14 -15 39 -19 55 -4 17 -9 38 -12 48 -9 28 9 20 62 -29 l49
-46 0 -602 c0 -667 -4 -746 -34 -746 -10 0 -105 119 -114 143 -3 9 -11 17 -17
17 -6 0 -8 4 -5 10 3 5 -7 13 -22 16 -15 4 -33 14 -40 23 -7 9 -13 12 -13 8
-1 -22 -50 50 -56 81 -6 30 -1 453 12 1147 1 66 3 150 3 188 1 72 11 85 31 37z
m-1931 -90 c0 -40 -2 -51 -9 -38 -15 24 -24 104 -15 125 7 16 9 15 15 -7 5
-14 8 -50 9 -80z m5311 -27 c0 -22 -3 -24 -32 -18 -18 4 -36 9 -40 12 -9 5
-10 39 -2 70 6 21 7 21 40 -9 21 -19 34 -41 34 -55z m-5172 -440 c-1 -73 -4
-131 -6 -128 -14 14 -21 95 -15 183 9 144 23 107 21 -55z m-163 7 c15 -69 29
-141 32 -160 l5 -35 -23 22 c-13 13 -41 38 -62 57 -51 46 -57 84 -23 164 14
34 26 69 26 79 0 45 20 -13 45 -127z m-96 -157 c15 -16 52 -50 84 -76 32 -27
55 -53 52 -58 -4 -5 1 -9 9 -9 9 0 16 -7 16 -15 0 -8 5 -15 10 -15 6 0 10 -10
10 -22 0 -13 7 -36 15 -52 17 -33 14 -42 -12 -31 -28 12 -35 14 -83 24 -25 5
-65 15 -90 23 l-45 14 0 49 c0 28 2 54 4 60 6 11 2 93 -5 118 -8 24 4 21 35
-10z m5139 -204 c1 -49 -1 -61 -16 -65 -9 -3 -27 -11 -39 -17 -32 -15 -36 -6
-16 39 9 21 17 44 17 49 1 6 10 25 20 44 23 43 32 30 34 -50z m-4652 -37 c6
-4 17 -25 24 -47 7 -22 18 -56 25 -75 34 -92 42 -270 13 -270 -32 0 -92 27
-105 47 -15 22 -17 100 -8 279 3 70 18 88 51 66z m229 -174 c24 -23 38 -48 46
-83 7 -27 14 -57 17 -65 3 -8 4 -22 3 -32 -3 -27 15 -29 27 -3 16 34 35 33 22
-1 -6 -14 -9 -37 -9 -52 1 -21 2 -22 6 -7 3 11 10 25 15 30 7 7 9 2 4 -15 -3
-14 -6 -41 -6 -61 0 -32 -3 -36 -22 -33 -43 7 -63 -21 -61 -81 1 -41 -2 -55
-12 -55 -15 0 -20 13 -31 73 -3 21 -18 52 -33 70 -25 29 -26 37 -29 165 -4
138 1 182 18 182 6 0 26 -15 45 -32z m-128 -50 c-3 -8 -6 -5 -6 6 -1 11 2 17
5 13 3 -3 4 -12 1 -19z m198 -17 c3 -5 1 -12 -5 -16 -5 -3 -10 1 -10 9 0 18 6
21 15 7z m-190 -35 c0 -19 -4 -38 -8 -42 -4 -4 -7 8 -7 28 0 27 6 48 14 48 1
0 1 -15 1 -34z m198 -11 c4 -8 2 -17 -3 -20 -6 -4 -10 3 -10 14 0 25 6 27 13
6z m-206 -77 c-3 -7 -5 -2 -5 12 0 14 2 19 5 13 2 -7 2 -19 0 -25z m1483 -249
c0 -9 9 -28 20 -42 11 -14 20 -32 20 -41 0 -9 7 -19 15 -22 8 -4 15 -17 15
-30 0 -12 10 -30 22 -38 12 -9 19 -18 15 -22 -3 -3 12 -30 34 -60 41 -56 49
-77 24 -68 -10 4 -15 0 -15 -11 0 -13 6 -16 24 -11 20 5 27 1 40 -26 9 -17 16
-46 16 -65 0 -32 -7 -38 -38 -34 -8 1 -21 -4 -31 -13 -11 -10 -21 -12 -31 -6
-30 19 -59 11 -75 -20 -18 -34 -45 -40 -45 -10 0 11 -4 20 -10 20 -13 0 -13
-23 1 -37 6 -6 9 -28 7 -49 l-3 -39 -15 45 c-8 25 -20 51 -26 58 -8 7 -11 26
-7 45 3 23 0 37 -11 46 -21 17 -21 97 -1 211 10 52 13 106 9 137 -3 29 -3 68
0 88 6 31 9 34 26 22 11 -6 20 -19 20 -28z m-765 -35 c2 -11 4 -25 4 -32 1 -8
10 -11 26 -8 22 4 25 2 20 -15 -4 -11 -2 -19 5 -19 15 0 9 -212 -7 -217 -14
-5 -23 185 -10 204 5 7 1 16 -12 23 -18 9 -21 8 -22 -7 0 -10 -7 2 -14 27 -17
60 -18 64 -16 75 2 14 22 -10 26 -31z m-215 16 c0 -5 -6 -10 -14 -10 -8 0 -18
5 -21 10 -3 6 3 10 14 10 12 0 21 -4 21 -10z m1210 -116 c0 -8 -4 -12 -10 -9
-5 3 -10 10 -10 16 0 5 5 9 10 9 6 0 10 -7 10 -16z m2507 -336 c-7 -128 -35
-293 -67 -388 -27 -81 -57 -147 -69 -154 -14 -9 -15 123 -2 191 6 26 15 86 21
133 13 98 19 121 67 248 19 50 40 92 46 92 7 0 8 -40 4 -122z m121 -1820 c-1
-13 2 -47 6 -76 7 -43 11 -50 22 -41 8 6 14 8 15 3 0 -5 2 -31 4 -58 1 -27 8
-52 16 -57 20 -12 -1 -30 -28 -23 -14 4 -27 22 -38 52 -22 58 -21 57 -39 43
-21 -17 -67 5 -57 28 30 63 39 76 54 75 9 -1 17 2 17 7 0 5 -4 9 -10 9 -16 0
-12 18 10 40 26 26 31 25 28 -2z m92 -299 c0 -11 -4 -17 -10 -14 -5 3 -10 13
-10 21 0 8 5 14 10 14 6 0 10 -9 10 -21z"/>
<path d="M7345 5153 c-11 -3 -24 -10 -30 -15 -7 -8 -4 -9 8 -4 10 3 32 6 48 6
18 0 28 4 24 10 -6 10 -16 11 -50 3z"/>
<path d="M4817 5074 c-11 -12 -8 -102 4 -110 18 -11 29 17 27 65 -3 42 -16 60
-31 45z"/>
<path d="M4937 5033 c-12 -21 -17 -92 -7 -98 25 -15 57 54 43 93 -6 13 -29 16
-36 5z"/>
<path d="M4102 4618 c6 -18 28 -21 28 -4 0 9 -7 16 -16 16 -9 0 -14 -5 -12
-12z"/>
<path d="M5258 4303 c7 -3 16 -2 19 1 4 3 -2 6 -13 5 -11 0 -14 -3 -6 -6z"/>
<path d="M5005 2670 c-3 -5 -1 -10 4 -10 6 0 11 5 11 10 0 6 -2 10 -4 10 -3 0
-8 -4 -11 -10z"/>
<path d="M4331 2907 c0 -12 3 -16 6 -9 2 6 9 10 14 6 5 -3 9 -1 9 4 0 6 -7 12
-15 16 -11 4 -15 -1 -14 -17z"/>
<path d="M5630 2600 c0 -5 5 -10 10 -10 6 0 10 5 10 10 0 6 -4 10 -10 10 -5 0
-10 -4 -10 -10z"/>
<path d="M5700 2490 c0 -5 5 -10 10 -10 6 0 10 -7 10 -15 0 -8 7 -15 15 -15
20 0 19 20 -2 36 -22 16 -33 17 -33 4z"/>
<path d="M5600 2440 c-1 -25 -4 -63 -6 -84 -2 -22 3 -47 10 -58 12 -16 13 -5
9 74 -5 106 -11 134 -13 68z"/>
<path d="M5692 2404 c-7 -8 -11 -22 -9 -32 4 -14 6 -13 12 6 4 12 11 22 16 22
5 0 9 5 9 10 0 14 -13 12 -28 -6z"/>
<path d="M5633 2360 c0 -25 2 -35 4 -22 2 12 2 32 0 45 -2 12 -4 2 -4 -23z"/>
<path d="M5730 2390 c0 -5 5 -10 10 -10 6 0 10 5 10 10 0 6 -4 10 -10 10 -5 0
-10 -4 -10 -10z"/>
<path d="M5717 2343 c-10 -16 3 -43 20 -43 11 0 13 4 6 13 -6 6 -12 19 -15 27
-3 9 -7 10 -11 3z"/>
<path d="M5765 2320 c-3 -5 -1 -10 4 -10 6 0 11 5 11 10 0 6 -2 10 -4 10 -3 0
-8 -4 -11 -10z"/>
<path d="M5640 2286 c0 -9 5 -16 10 -16 6 0 10 4 10 9 0 6 -4 13 -10 16 -5 3
-10 -1 -10 -9z"/>
<path d="M11090 7190 c0 -16 57 -16 75 1 5 5 -7 9 -33 9 -23 0 -42 -4 -42 -10z"/>
<path d="M4492 6895 c0 -16 2 -22 5 -12 2 9 2 23 0 30 -3 6 -5 -1 -5 -18z"/>
<path d="M5268 6715 c2 -19 8 -35 13 -35 10 0 11 16 3 48 -10 35 -20 26 -16
-13z"/>
<path d="M4412 6715 c0 -16 2 -22 5 -12 2 9 2 23 0 30 -3 6 -5 -1 -5 -18z"/>
<path d="M6197 6456 c6 -53 33 -118 33 -82 0 20 -15 74 -31 111 -5 12 -6 2 -2
-29z"/>
<path d="M6230 6341 c0 -5 5 -13 10 -16 6 -3 10 -2 10 4 0 5 -4 13 -10 16 -5
3 -10 2 -10 -4z"/>
<path d="M2738 5934 c-5 -4 -8 -28 -8 -53 1 -36 3 -42 11 -28 11 19 8 93 -3
81z"/>
<path d="M2716 5779 c-3 -17 -6 -52 -5 -78 l1 -46 20 64 c19 61 19 91 0 91 -5
0 -12 -14 -16 -31z"/>
<path d="M2698 5630 c-4 -14 -9 -45 -12 -70 l-6 -45 16 28 c9 17 14 45 12 70
-3 35 -5 38 -10 17z"/>
<path d="M2375 5580 c-4 -12 -5 -24 -2 -27 3 -2 8 5 12 17 4 12 5 24 2 27 -3
2 -8 -5 -12 -17z"/>
<path d="M943 5487 c-44 -21 -56 -50 -27 -61 20 -8 47 7 73 40 39 49 23 56
-46 21z"/>
<path d="M2683 5445 c0 -22 2 -30 4 -17 2 12 2 30 0 40 -3 9 -5 -1 -4 -23z"/>
<path d="M9432 4710 c0 -14 2 -19 5 -12 2 6 2 18 0 25 -3 6 -5 1 -5 -13z"/>
<path d="M9438 4674 c-4 -5 -9 -80 -12 -165 -5 -149 -5 -152 9 -99 15 55 17
286 3 264z"/>
<path d="M6968 4423 c-26 -7 -11 -29 34 -53 57 -30 75 -11 28 30 -19 16 -37
29 -40 28 -3 0 -13 -2 -22 -5z"/>
<path d="M7573 4423 c9 -2 25 -2 35 0 9 3 1 5 -18 5 -19 0 -27 -2 -17 -5z"/>
<path d="M6640 4396 c0 -2 7 -7 16 -10 8 -3 12 -2 9 4 -6 10 -25 14 -25 6z"/>
<path d="M7006 4325 c10 -8 26 -14 34 -14 9 0 4 6 -10 14 -33 19 -49 19 -24 0z"/>
<path d="M7515 4220 c8 -13 55 -13 75 0 11 7 2 10 -33 10 -30 0 -46 -4 -42
-10z"/>
<path d="M8291 4144 c0 -11 3 -14 6 -6 3 7 2 16 -1 19 -3 4 -6 -2 -5 -13z"/>
<path d="M9441 4037 c-12 -29 -39 -79 -61 -111 -40 -59 -47 -80 -31 -90 4 -3
14 -33 20 -66 7 -33 16 -60 20 -60 5 0 6 41 3 90 -3 61 -1 95 7 104 7 8 16 27
21 43 6 17 7 -18 3 -92 -6 -122 0 -155 10 -55 3 30 10 87 16 125 19 124 24
165 19 165 -3 0 -15 -24 -27 -53z"/>
<path d="M9203 3988 c-5 -7 -25 -56 -43 -108 -18 -52 -39 -105 -46 -117 -8
-12 -23 -47 -35 -78 -11 -30 -26 -61 -33 -68 -7 -6 -15 -19 -19 -27 -10 -19
-27 -47 -51 -83 -35 -51 -8 -39 31 15 88 119 238 447 215 470 -5 5 -13 4 -19
-4z"/>
<path d="M2990 3878 c0 -8 9 -23 19 -32 19 -17 19 -17 14 3 -7 27 -33 50 -33
29z"/>
<path d="M10804 3793 c-33 -35 -41 -71 -23 -102 38 -68 129 -16 129 72 0 58
-64 76 -106 30z"/>
<path d="M7004 3545 c-9 -24 45 -113 92 -152 61 -51 77 -82 68 -139 -11 -76
39 -103 77 -40 13 23 35 40 71 55 l51 21 -7 62 c-5 44 -16 77 -37 109 -50 79
-57 83 -147 75 -58 -5 -90 -3 -121 8 -34 11 -43 12 -47 1z"/>
<path d="M3720 3220 c0 -6 7 -10 15 -10 8 0 15 2 15 4 0 2 -7 6 -15 10 -8 3
-15 1 -15 -4z"/>
<path d="M3760 3169 c0 -5 5 -7 10 -4 6 3 10 8 10 11 0 2 -4 4 -10 4 -5 0 -10
-5 -10 -11z"/>
<path d="M3741 3131 c-10 -17 -9 -20 4 -15 11 4 15 -1 16 -17 l0 -24 10 24 c7
18 6 28 -5 39 -12 12 -16 12 -25 -7z"/>
<path d="M3760 3020 c0 -5 5 -10 11 -10 5 0 7 5 4 10 -3 6 -8 10 -11 10 -2 0
-4 -4 -4 -10z"/>
<path d="M1177 2593 c-11 -10 -8 -87 5 -124 21 -61 74 -79 103 -35 21 31 7 91
-31 136 -24 28 -61 39 -77 23z"/>
<path d="M6218 2543 c-27 -17 -43 -41 -34 -51 9 -9 98 33 107 51 8 14 5 17
-18 17 -15 0 -40 -8 -55 -17z"/>
<path d="M6670 1992 c0 -17 25 -32 53 -32 33 0 97 -28 97 -42 0 -5 14 -14 30
-19 36 -13 37 -19 7 -47 -30 -28 -80 -29 -107 -2 -21 21 -40 26 -40 11 0 -22
58 -50 106 -50 95 -1 94 -1 94 -30 0 -14 4 -32 9 -40 6 -10 1 -23 -19 -44 -24
-26 -36 -31 -78 -31 -28 -1 -48 -4 -45 -8 2 -5 12 -8 22 -8 10 0 47 -9 81 -20
81 -26 98 -25 111 4 7 14 23 27 38 31 14 4 32 11 38 17 17 14 16 83 -1 116
-19 36 -83 96 -126 118 -118 59 -270 102 -270 76z m345 -262 c3 -5 4 -14 0
-20 -8 -13 -35 -1 -35 16 0 16 26 19 35 4z"/>
<path d="M6664 1854 c-17 -14 -17 -15 -1 -10 10 3 23 6 28 6 5 0 9 5 9 10 0
14 -13 12 -36 -6z"/>
<path d="M3819 1200 c-4 -456 -6 -519 -21 -552 -9 -21 -14 -38 -10 -38 5 0 6
-137 4 -305 l-4 -305 32 0 33 0 -8 383 c-4 210 -7 578 -6 817 0 239 -3 453 -8
475 -5 25 -10 -159 -12 -475z"/>
<path d="M5020 1575 c0 -16 30 -55 42 -55 16 0 7 36 -12 53 -25 21 -30 21 -30
2z"/>
<path d="M4979 1518 c-7 -98 -6 -251 1 -288 21 -112 44 -199 51 -194 4 2 5 48
1 102 -3 53 -5 115 -4 137 5 86 0 210 -9 213 -5 2 -9 15 -9 28 0 31 -29 33
-31 2z"/>
<path d="M5107 1484 c-12 -12 -8 -58 8 -88 8 -15 15 -34 15 -41 0 -13 29 -29
37 -21 5 5 -37 136 -47 149 -4 4 -9 4 -13 1z"/>
<path d="M5914 1378 c-3 -4 34 -7 83 -7 98 1 94 6 -10 11 -38 2 -71 0 -73 -4z"/>
<path d="M5197 1334 c6 -15 32 -26 44 -18 17 10 9 22 -20 26 -20 3 -27 0 -24
-8z"/>
<path d="M3980 1287 c0 -20 5 -37 10 -37 6 0 10 -13 10 -30 0 -30 27 -91 64
-145 12 -16 22 -43 24 -59 2 -16 19 -58 38 -93 18 -35 33 -73 32 -86 -1 -12
28 -74 63 -137 36 -63 84 -152 107 -197 49 -97 83 -153 105 -171 13 -11 12 -3
-4 50 -11 35 -23 72 -26 83 -5 21 -12 41 -31 85 -6 14 -18 57 -27 95 -9 39
-23 82 -31 97 -8 14 -14 36 -14 48 0 32 -30 118 -46 131 -8 6 -14 17 -14 23 0
6 -14 27 -30 46 -16 19 -34 40 -40 47 -5 6 -19 30 -31 52 -11 23 -25 38 -30
35 -5 -3 -9 1 -9 10 0 8 -5 16 -10 18 -6 2 -12 13 -15 26 -2 13 0 20 6 17 5
-4 9 -1 9 4 0 6 5 11 12 11 6 0 9 -3 5 -6 -3 -4 17 -24 44 -46 28 -22 53 -37
57 -34 11 12 -101 116 -118 111 -11 -3 -34 12 -63 42 l-47 47 0 -37z"/>
<path d="M5322 1070 c0 -19 2 -27 5 -17 2 9 2 25 0 35 -3 9 -5 1 -5 -18z"/>
<path d="M4315 1040 c-3 -5 -1 -10 4 -10 6 0 11 5 11 10 0 6 -2 10 -4 10 -3 0
-8 -4 -11 -10z"/>
<path d="M4318 1003 c-10 -2 -15 -10 -11 -19 7 -20 20 -17 26 6 3 11 4 19 4
19 -1 -1 -10 -3 -19 -6z"/>
<path d="M4348 966 c-15 -11 -16 -15 -2 -42 8 -16 26 -40 40 -55 13 -14 24
-28 24 -32 0 -4 16 -27 35 -53 19 -25 35 -51 35 -59 0 -7 6 -15 14 -18 7 -3
44 -60 82 -127 38 -67 76 -129 84 -138 40 -44 49 -64 38 -91 -13 -35 -24 -291
-12 -299 5 -4 14 -16 20 -27 10 -18 23 -20 138 -23 69 -1 126 -1 126 2 0 2
-11 24 -25 47 -21 38 -25 57 -25 131 0 154 -52 246 -133 235 -37 -5 -38 -4
-84 66 -25 40 -75 122 -111 182 -36 61 -76 121 -89 136 -12 14 -23 30 -23 35
0 6 -16 27 -35 48 -19 21 -35 42 -35 46 0 3 -10 16 -22 28 -19 17 -26 18 -40
8z"/>
<path d="M5050 965 c0 -10 77 -110 101 -131 31 -27 59 -37 58 -21 0 7 -27 34
-60 60 -33 27 -64 59 -69 73 -8 21 -30 34 -30 19z"/>
<path d="M11253 884 c-9 -24 10 -49 37 -49 31 0 35 16 10 43 -25 26 -38 28
-47 6z"/>
<path d="M5340 850 c0 -20 2 -23 64 -70 40 -31 63 -32 47 -1 -10 18 -94 91
-105 91 -3 0 -6 -9 -6 -20z"/>
<path d="M4227 608 c-6 -18 11 -59 85 -215 19 -40 31 -73 27 -73 -20 0 -20
-51 1 -97 12 -26 28 -68 37 -93 24 -71 62 -130 84 -130 10 0 19 4 19 8 0 4
-20 50 -46 101 -44 90 -56 146 -19 86 58 -94 75 -117 75 -102 0 15 -57 149
-79 187 -33 55 -131 261 -131 275 0 18 -29 65 -40 65 -5 0 -10 -6 -13 -12z"/>
<path d="M1035 580 c-16 -17 -26 -30 -23 -30 10 0 62 49 57 54 -3 3 -18 -8
-34 -24z"/>
<path d="M3529 383 c-13 -16 -12 -17 4 -4 16 13 21 21 13 21 -2 0 -10 -8 -17
-17z"/>
<path d="M7544 316 c-10 -39 1 -54 14 -18 6 18 7 34 2 37 -5 3 -12 -5 -16 -19z"/>
<path d="M7522 235 c0 -16 2 -22 5 -12 2 9 2 23 0 30 -3 6 -5 -1 -5 -18z"/>
<path d="M3245 140 c-3 -5 -1 -10 4 -10 6 0 11 5 11 10 0 6 -2 10 -4 10 -3 0
-8 -4 -11 -10z"/>
<path d="M3194 97 c-51 -40 -108 -97 -96 -97 6 0 27 15 46 34 20 18 49 45 66
60 39 32 25 35 -16 3z"/>
<path d="M7531 74 c0 -11 3 -14 6 -6 3 7 2 16 -1 19 -3 4 -6 -2 -5 -13z"/>
<path d="M3873 40 c0 -25 2 -35 4 -22 2 12 2 32 0 45 -2 12 -4 2 -4 -23z"/>
</g>
</svg>
