<?xml version="1.0" standalone="no"?>
<!DOCTYPE svg PUBLIC "-//W3C//DTD SVG 20010904//EN"
 "http://www.w3.org/TR/2001/REC-SVG-20010904/DTD/svg10.dtd">
<svg version="1.0" xmlns="http://www.w3.org/2000/svg"
 width="728.000000pt" height="410.000000pt" viewBox="0 0 728.000000 410.000000"
 preserveAspectRatio="xMidYMid meet">

<g transform="translate(0.000000,410.000000) scale(0.100000,-0.100000)"
fill="#000000" stroke="none">
<path d="M0 2050 l0 -2050 3640 0 3640 0 0 2050 0 2050 -3640 0 -3640 0 0
-2050z m4075 755 c-9 -32 -27 -75 -41 -97 -28 -44 -93 -111 -123 -128 -20 -10
-21 -8 -21 51 l0 62 58 57 c66 65 134 121 140 115 2 -2 -4 -29 -13 -60z m-177
-40 c10 -22 -16 -25 -257 -25 -213 0 -260 2 -264 14 -3 8 -4 16 -2 18 6 5 520
-1 523 -7z m-718 -10 c0 -10 -10 -15 -30 -15 -20 0 -30 -5 -30 -15 0 -8 -8
-15 -19 -15 -14 0 -18 7 -17 30 1 29 3 30 49 30 35 0 47 -4 47 -15z m1008 -12
c-3 -28 -28 -45 -28 -19 0 12 -10 16 -35 16 -26 0 -33 3 -29 15 4 10 20 15 51
15 42 0 44 -1 41 -27z m-534 -119 c2 -89 -5 -124 -23 -124 -4 0 -6 188 -1 228
0 2 5 2 12 0 7 -3 12 -38 12 -104z m510 44 c-10 -33 -36 -67 -91 -119 -41 -39
-132 -105 -133 -97 -1 2 -2 27 -4 56 -3 47 0 57 23 79 39 37 101 75 146 89 59
19 67 18 59 -8z m-1056 -15 c17 -37 15 -73 -3 -73 -8 0 -15 8 -15 19 0 10 -3
33 -6 50 -8 38 6 41 24 4z m762 -34 c0 -59 -24 -101 -78 -139 -26 -18 -59 -45
-74 -58 l-28 -26 0 50 c1 27 6 58 13 70 13 22 147 143 160 144 4 0 7 -18 7
-41z m322 1 c-3 -26 -9 -40 -18 -40 -17 0 -18 34 -2 60 19 30 24 24 20 -20z
m2 -69 c9 -13 -48 -94 -93 -133 -36 -31 -136 -88 -153 -88 -3 0 3 24 13 53 13
37 31 65 68 99 59 54 151 93 165 69z m-274 -27 c0 -9 -5 -35 -12 -57 -10 -32
-27 -51 -97 -103 -83 -63 -86 -64 -89 -40 -5 43 26 89 106 153 42 34 80 62 85
62 4 1 7 -6 7 -15z m272 -64 c-5 -32 -32 -42 -32 -12 0 18 18 42 30 42 4 0 5
-13 2 -30z m-1084 8 c7 -7 12 -18 12 -25 0 -11 -5 -11 -20 -3 -11 6 -20 17
-20 25 0 18 12 19 28 3z m559 -50 c-7 -57 -29 -94 -106 -178 l-50 -55 -1 37
c0 20 5 60 11 87 9 44 19 59 72 106 33 30 65 55 70 55 6 0 7 -21 4 -52z m283
-3 c0 -3 -7 -22 -15 -42 -24 -56 -78 -116 -129 -142 -25 -13 -53 -32 -62 -42
-26 -28 -36 -23 -29 14 9 40 38 72 140 153 73 59 95 72 95 59z m244 -27 c-22
-73 -64 -124 -139 -170 -38 -24 -105 -51 -111 -45 -1 1 6 26 15 55 32 94 135
177 224 181 15 1 17 -4 11 -21z m-505 -79 c-18 -78 -60 -139 -147 -211 l-32
-26 0 26 c1 44 21 77 103 166 43 47 80 86 82 86 1 0 -1 -18 -6 -41z m-581 4
c17 -38 15 -63 -5 -63 -14 0 -18 9 -19 45 -2 51 5 57 24 18z m1082 -28 c0 -24
-5 -35 -15 -35 -18 0 -19 23 -3 50 17 27 18 26 18 -15z m-250 -17 c-1 -30 -32
-99 -54 -117 -29 -24 -166 -99 -166 -91 0 19 32 96 48 113 21 24 152 117 164
117 4 0 8 -10 8 -22z m240 -48 c0 -29 -46 -94 -91 -130 -41 -32 -127 -70 -160
-70 -4 0 2 17 12 37 10 21 19 43 19 50 0 19 39 52 95 80 76 39 125 52 125 33z
m-518 -93 c-18 -37 -55 -87 -92 -124 -34 -35 -63 -63 -64 -63 -2 0 0 20 4 44
5 36 19 58 86 130 43 48 81 92 84 99 2 7 6 5 8 -6 2 -10 -10 -46 -26 -80z
m528 -209 l0 -243 -94 -47 c-86 -44 -93 -45 -83 -23 7 14 38 36 79 56 l68 33
0 213 c0 152 4 219 12 233 7 11 14 20 15 20 2 0 3 -109 3 -242z m-1084 215
c10 -14 13 -70 14 -230 0 -123 4 -213 9 -213 5 0 44 -19 86 -41 56 -30 73 -45
65 -53 -8 -8 -35 2 -100 34 l-90 45 0 222 c0 122 -3 228 -6 237 -8 21 6 20 22
-1z m825 -36 c-18 -46 -84 -109 -146 -139 -33 -15 -61 -24 -63 -19 -2 5 8 31
21 58 22 42 36 54 108 93 46 25 85 43 87 39 1 -3 -2 -18 -7 -32z m-234 -29
c-20 -50 -197 -235 -197 -205 0 23 28 77 39 77 5 0 44 40 88 89 43 49 80 87
82 85 2 -2 -3 -23 -12 -46z m433 -36 c0 -4 -13 -26 -30 -48 -29 -41 -116 -95
-172 -108 -27 -6 -39 6 -17 19 5 4 20 28 32 53 27 57 82 92 145 92 23 0 42 -4
42 -8z m-422 -59 c-7 -16 -20 -38 -29 -51 -20 -26 -179 -152 -193 -152 -11 0
18 46 53 84 32 35 163 146 173 146 4 0 2 -12 -4 -27z m208 -34 c-21 -49 -52
-74 -130 -103 -37 -14 -72 -26 -77 -26 -5 0 4 21 19 48 23 40 39 53 112 90 47
24 86 39 88 34 1 -4 -4 -24 -12 -43z m194 -56 c0 -31 -73 -87 -145 -112 -39
-13 -76 -26 -82 -29 -8 -2 -4 15 10 47 20 46 27 53 82 75 102 42 135 47 135
19z m-425 -54 c-16 -21 -68 -69 -118 -105 l-90 -66 7 39 c4 21 14 45 22 53 28
29 199 137 203 128 1 -5 -9 -27 -24 -49z m177 -44 c-17 -29 -36 -47 -52 -50
-14 -3 -51 -13 -82 -24 -32 -10 -58 -16 -58 -14 0 13 32 61 53 81 27 25 95 50
139 51 l27 1 -27 -45z m163 -35 c11 -17 -67 -87 -110 -99 -73 -20 -79 -16 -44
32 33 46 48 57 94 68 44 10 53 10 60 -1z m-355 -9 c0 -23 -71 -99 -115 -123
-75 -41 -105 -50 -105 -32 0 26 64 85 135 124 76 41 85 45 85 31z m200 -29 c0
-24 -81 -81 -143 -102 -38 -12 -70 -20 -73 -18 -2 3 9 23 26 46 24 34 40 44
87 57 32 9 63 18 68 20 19 6 35 5 35 -3z m-293 -145 c-55 -58 -93 -88 -162
-125 -84 -46 -125 -60 -78 -27 11 8 37 39 57 69 32 48 47 59 143 109 60 30
109 54 110 53 2 -1 -30 -37 -70 -79z m385 37 c29 -18 -94 -84 -155 -84 l-38 0
30 44 c17 24 36 47 43 50 14 6 107 -2 120 -10z m-162 -3 c0 -16 -50 -70 -71
-76 -20 -7 -124 23 -115 33 5 5 160 49 179 51 4 1 7 -3 7 -8z m-151 -85 c14
-17 9 -68 -7 -74 -7 -2 -12 0 -13 5 -10 80 -4 99 20 69z m94 -70 l-102 -54
-73 38 c-58 31 -69 40 -54 46 12 4 38 -3 72 -19 l54 -27 68 34 c38 20 82 35
102 35 31 1 25 -5 -67 -53z"/>
</g>
</svg>
