<?xml version="1.0" standalone="no"?>
<!DOCTYPE svg PUBLIC "-//W3C//DTD SVG 20010904//EN"
 "http://www.w3.org/TR/2001/REC-SVG-20010904/DTD/svg10.dtd">
<svg version="1.0" xmlns="http://www.w3.org/2000/svg"
 width="728.000000pt" height="410.000000pt" viewBox="0 0 728.000000 410.000000"
 preserveAspectRatio="xMidYMid meet">

<g transform="translate(0.000000,410.000000) scale(0.100000,-0.100000)"
fill="#000000" stroke="none">
<path d="M3601 3428 l-92 -153 6 53 c4 28 3 52 -2 52 -17 0 -107 -166 -128
-239 l-7 -24 33 26 c29 22 43 25 99 24 74 -2 90 -9 90 -39 0 -15 -5 -19 -19
-15 -13 3 -28 -4 -43 -20 l-23 -25 -6 29 -5 28 -30 -47 c-33 -54 -44 -59 -44
-22 0 16 -4 23 -11 18 -22 -13 -69 -99 -69 -125 0 -32 -15 -45 -34 -30 -11 9
-15 6 -20 -15 -8 -31 11 -131 26 -140 7 -4 6 -9 -3 -14 -10 -7 -10 -14 1 -39
10 -25 17 -30 35 -25 19 5 23 1 28 -33 10 -56 8 -85 -3 -78 -5 3 -11 21 -11
38 -2 28 -2 29 -6 6 -5 -29 38 -112 45 -89 3 8 1 15 -4 17 -5 2 -8 38 -5 81 3
65 8 83 33 120 17 24 31 42 33 40 2 -2 0 -21 -5 -43 -17 -71 -10 -71 24 0 31
64 94 151 83 114 -3 -9 -8 -38 -12 -65 -3 -27 -8 -65 -11 -84 -4 -26 8 -9 45
65 28 55 66 118 85 140 l35 40 1 -50 c0 -27 7 -72 15 -100 10 -34 13 -39 10
-16 -3 19 -8 60 -11 90 l-5 56 32 -55 c33 -55 147 -175 157 -165 3 3 -2 13
-10 22 -18 21 -68 107 -68 116 0 4 10 7 23 7 26 0 66 -23 160 -92 64 -48 67
-52 67 -91 -1 -100 -31 -260 -65 -339 -6 -16 -1 -18 40 -18 41 0 46 -2 40 -17
-5 -10 -10 -33 -13 -50 -4 -33 -5 -33 -61 -33 -53 0 -59 -2 -96 -41 l-40 -41
40 8 c101 19 270 -1 270 -33 0 -6 4 -15 9 -20 5 -5 6 -3 2 5 -4 6 -2 12 4 12
20 0 22 -31 4 -52 -24 -26 -166 -139 -170 -135 -2 2 4 42 13 90 13 65 21 87
32 87 10 0 12 3 5 8 -6 4 -13 14 -16 22 -5 16 -33 -101 -44 -183 -6 -45 -12
-52 -79 -107 -40 -33 -85 -73 -99 -90 l-26 -32 0 26 c0 27 -15 43 -25 26 -7
-12 -26 -14 -24 -2 1 4 1 26 0 50 -1 32 -5 42 -17 42 -15 0 -16 -10 -10 -86 7
-99 17 -124 79 -216 25 -38 41 -68 36 -68 -5 0 -9 4 -9 8 0 22 -41 51 -66 46
-14 -3 -32 1 -40 7 -12 10 -13 9 -8 -4 3 -9 1 -24 -6 -34 -9 -15 -10 -14 -4 7
10 39 -15 10 -31 -36 -10 -28 -14 -32 -15 -17 0 13 14 49 30 80 35 66 38 97
17 167 -25 88 -56 62 -37 -31 11 -52 7 -79 -11 -68 -5 3 -6 0 -3 -8 3 -8 1
-18 -5 -22 -12 -7 -15 31 -11 165 2 86 24 283 35 311 3 9 -5 20 -22 31 -75 44
-136 104 -183 181 -44 72 -68 100 -39 46 10 -19 8 -20 -28 -13 -52 9 -53 10
-40 43 9 26 14 28 35 20 24 -9 24 -8 18 23 -8 42 -62 93 -114 109 -39 11 -40
11 -77 -27 l-37 -39 6 43 c19 135 19 162 2 162 -10 0 -41 23 -71 51 -44 42
-73 58 -167 94 -62 23 -158 64 -213 91 -55 26 -104 50 -109 52 -5 3 -6 -3 -3
-12 5 -13 3 -16 -11 -12 -9 2 -35 7 -58 11 -26 4 -50 16 -68 36 -15 16 -33 29
-40 29 -8 0 -25 9 -39 20 l-26 21 -18 -38 c-21 -45 -76 -75 -168 -93 -33 -7
-85 -20 -115 -31 -30 -10 -65 -19 -78 -19 -22 0 -66 -23 -87 -46 -5 -6 -22
-18 -37 -27 -26 -16 -27 -16 -33 13 -8 36 -35 53 -78 48 -25 -2 -33 1 -35 16
-5 22 13 35 48 37 17 1 19 3 8 6 -10 2 -18 8 -18 12 0 12 80 61 101 61 10 0
19 5 19 10 0 31 -87 -15 -154 -81 -28 -27 -47 -52 -42 -56 4 -4 12 -1 17 7 9
12 10 12 5 -2 -3 -10 -1 -18 5 -18 6 0 7 -4 4 -10 -7 -11 -28 -14 -22 -2 2 4
-4 14 -13 23 -32 31 -78 -10 -52 -47 5 -7 26 -7 74 1 45 7 64 7 58 1 -6 -6
-18 -11 -28 -12 -9 0 -32 -1 -51 -2 -25 -2 -32 -6 -27 -17 3 -8 1 -15 -4 -15
-4 0 -14 -16 -20 -35 -9 -28 -17 -35 -38 -36 -17 -1 -21 -3 -9 -6 22 -6 22 -7
-15 -61 l-32 -47 39 29 c22 17 72 56 112 88 68 54 111 76 141 69 7 -1 28 7 46
17 19 11 44 18 57 15 15 -3 33 3 47 15 12 11 41 22 65 25 24 4 120 25 213 48
195 48 198 48 405 -21 172 -57 309 -133 410 -227 l26 -24 -18 -61 c-21 -67
-23 -82 -10 -74 5 3 12 23 16 43 4 21 12 46 17 57 10 19 12 19 34 -10 21 -25
24 -40 24 -106 0 -76 -1 -78 -25 -78 -13 0 -33 -9 -44 -21 -15 -16 -26 -19
-49 -15 -41 10 -59 -13 -42 -54 14 -33 12 -33 153 -32 l87 0 0 -191 c0 -128 4
-187 10 -177 5 8 10 41 10 72 0 31 5 60 10 63 7 4 8 33 4 81 -5 51 -3 74 4 74
6 0 9 -6 6 -14 -3 -7 1 -16 9 -19 19 -7 10 34 -10 46 -20 12 -42 73 -49 133
l-5 54 34 -22 c37 -24 35 -18 52 -173 2 -16 6 -48 10 -70 l6 -40 -26 30 c-26
29 -26 29 -20 5 4 -14 12 -26 16 -28 5 -2 9 -27 9 -55 0 -37 -3 -48 -10 -37
-5 8 -7 24 -4 35 4 17 4 18 -6 3 -11 -19 6 -71 21 -62 5 3 9 0 9 -6 0 -7 14
-30 31 -51 49 -62 54 -96 24 -160 -25 -54 -30 -97 -16 -134 7 -17 11 -13 29
29 12 27 22 52 22 57 0 5 3 9 8 9 4 0 22 -55 40 -123 19 -67 36 -130 39 -139
10 -39 -26 -15 -76 51 -29 38 -58 72 -66 75 -23 9 -47 53 -65 123 -9 37 -22
69 -29 71 -15 5 -14 -27 4 -78 8 -24 17 -64 19 -90 3 -53 28 -99 75 -144 17
-17 31 -38 31 -48 0 -10 7 -35 15 -56 13 -33 13 -35 0 -18 -8 11 -15 23 -15
28 0 4 -10 8 -21 8 -17 0 -20 -5 -17 -25 4 -19 1 -25 -12 -25 -20 0 -30 -19
-30 -58 0 -20 -3 -23 -9 -13 -8 12 -11 9 -17 -14 -4 -16 -7 -41 -8 -55 -1 -20
-5 -26 -16 -22 -13 5 -12 2 1 -19 13 -20 15 -36 8 -79 -6 -44 -6 -112 0 -128
1 -1 10 2 22 8 32 18 66 4 78 -31 6 -18 11 -71 12 -118 0 -48 4 -78 8 -67 6
17 10 16 37 -13 16 -17 35 -31 41 -31 7 0 13 -6 13 -12 0 -9 4 -8 10 2 8 13
10 13 10 -2 0 -38 19 -24 41 30 24 61 34 72 62 72 15 0 17 -12 18 -97 1 -58 4
-88 8 -73 l7 25 10 -29 c10 -28 12 -24 48 80 20 60 35 91 31 69 -3 -22 -9 -66
-12 -99 l-6 -59 77 8 c43 4 89 13 104 21 18 9 28 10 33 3 3 -6 12 11 18 38 48
193 61 226 68 170 15 -122 33 -191 39 -146 1 5 2 13 3 18 0 5 10 11 21 14 13
3 20 14 20 29 0 24 25 127 33 135 3 2 14 -1 26 -9 17 -10 23 -10 35 2 15 15
47 196 45 254 -1 30 -1 30 -9 6 -6 -19 -8 -10 -9 36 -1 51 -7 72 -35 120 -19
33 -40 66 -48 75 -7 9 -18 24 -24 35 -6 10 -26 29 -44 41 -25 18 -36 20 -47
12 -11 -10 -12 -8 -7 7 7 18 6 18 -17 -1 l-24 -20 24 27 c13 15 28 25 33 22 5
-3 7 -1 6 4 -2 5 31 47 72 92 128 142 129 144 130 230 0 77 -11 117 -24 85 -3
-9 -6 -41 -6 -71 0 -53 0 -53 -24 -43 -13 6 -44 39 -69 74 l-45 62 63 63 64
63 12 -46 11 -47 113 0 113 0 7 93 c3 50 7 159 8 240 l2 148 -28 21 c-15 11
-42 48 -59 82 -16 33 -37 68 -45 77 -13 15 -9 20 39 50 188 120 298 196 329
226 32 30 40 33 58 24 11 -6 67 -18 123 -27 149 -22 351 -64 363 -75 5 -5 21
-9 36 -9 22 0 30 7 43 40 19 48 21 109 4 114 -7 3 -24 7 -38 10 -17 3 -31 18
-42 43 l-17 38 5 -34 c6 -30 4 -33 -12 -26 -21 9 -85 19 -209 33 -84 10 -127
26 -183 67 -44 31 -69 27 -198 -36 -55 -27 -108 -49 -116 -49 -31 0 -48 12
-48 34 0 16 -2 18 -9 7 -7 -11 -11 -9 -20 8 -7 11 -17 21 -23 21 -6 0 -2 -10
10 -23 12 -13 22 -26 22 -29 0 -3 -19 -3 -43 -1 -39 5 -83 -3 -129 -22 -15 -6
-18 -1 -18 29 0 20 -4 36 -10 36 -5 0 -10 -8 -10 -17 0 -10 -5 -25 -11 -33 -7
-11 -9 21 -7 108 3 107 1 121 -11 103 -7 -12 -18 -21 -23 -21 -17 0 12 39 42
57 17 9 30 20 30 24 0 3 -19 9 -42 12 -24 3 -61 13 -83 23 -39 18 -39 18 -12
22 15 2 25 8 22 13 -4 5 -53 9 -111 9 -101 0 -135 12 -77 26 15 4 41 20 58 36
26 24 27 28 11 28 -11 0 -58 -12 -104 -26 -129 -39 -126 -30 22 68 56 36 49
43 -29 33 -49 -6 -60 -12 -104 -58 -52 -54 -81 -59 -42 -7 29 41 18 38 -46
-11 -29 -23 -56 -39 -59 -36 -3 3 -5 46 -5 96 1 50 -1 91 -3 91 -2 0 -45 -69
-95 -152z m449 -193 c7 -9 8 -15 2 -15 -5 0 -12 7 -16 15 -3 8 -4 15 -2 15 2
0 9 -7 16 -15z m7 -36 c38 -24 34 -38 -18 -65 -18 -9 -26 -19 -23 -29 7 -18
-7 -19 -75 -4 -60 12 -84 36 -27 25 29 -6 36 -4 36 9 0 9 9 15 21 15 15 0 19
5 15 15 -4 10 1 15 15 15 16 0 19 4 14 20 -8 25 -1 25 42 -1z m-300 -81 c-3
-7 -5 -2 -5 12 0 14 2 19 5 13 2 -7 2 -19 0 -25z m77 7 c3 -8 1 -15 -4 -15 -6
0 -10 7 -10 15 0 8 2 15 4 15 2 0 6 -7 10 -15z m-39 -5 c3 -5 1 -10 -4 -10 -6
0 -11 5 -11 10 0 6 2 10 4 10 3 0 8 -4 11 -10z m-2075 -320 c-8 -5 -22 -10
-30 -10 -13 0 -13 1 0 10 8 5 22 10 30 10 13 0 13 -1 0 -10z m145 -11 c10 -29
3 -31 -18 -3 -15 20 -15 24 -3 24 8 0 18 -9 21 -21z m2285 -138 c0 -5 -7 -11
-15 -15 -15 -5 -20 5 -8 17 9 10 23 9 23 -2z m-5 -78 c-6 -43 -48 -133 -61
-133 -3 0 -2 5 1 10 4 6 1 17 -5 25 -9 11 -9 22 -1 42 l11 28 -6 -32 c-3 -17
-1 -34 4 -37 14 -9 43 51 40 86 -2 31 7 58 18 58 3 0 2 -21 -1 -47z m-811
-159 c39 -22 46 -30 40 -48 -14 -45 -18 -47 -57 -21 -31 21 -37 32 -37 60 0
19 2 35 4 35 2 0 24 -12 50 -26z m857 1 c17 -9 29 -19 26 -22 -3 -2 -15 1 -27
7 -12 6 -24 9 -28 6 -3 -3 1 -6 9 -6 11 0 12 -2 1 -9 -11 -7 -10 -9 3 -14 9
-4 14 -3 11 2 -8 12 47 9 56 -4 4 -5 8 -16 8 -24 0 -14 -5 -13 -76 13 -23 8
-60 16 -83 17 -22 2 -41 7 -41 12 0 5 12 6 28 3 22 -5 24 -4 9 4 -9 6 -15 15
-13 19 9 14 86 12 117 -4z m-983 -90 c-3 -3 -9 2 -12 12 -6 14 -5 15 5 6 7 -7
10 -15 7 -18z m9 -52 c-3 -10 -5 -4 -5 12 0 17 2 24 5 18 2 -7 2 -21 0 -30z
m985 -10 c13 -12 15 -20 8 -34 -8 -14 -6 -20 12 -29 20 -10 21 -9 6 3 -11 9
-14 18 -8 27 12 20 20 9 27 -36 6 -38 5 -38 -13 -23 -29 25 -66 42 -104 49
-34 5 -36 9 -31 50 2 16 33 12 46 -6 11 -15 12 -15 12 0 0 9 -11 19 -24 22
-12 4 -23 10 -23 15 0 12 69 -17 92 -38z m-792 -33 c0 -5 -7 -7 -15 -4 -8 4
-15 8 -15 10 0 2 7 4 15 4 8 0 15 -4 15 -10z m116 -22 c5 -7 3 -8 -6 -3 -7 4
-16 2 -21 -6 -6 -10 -9 -10 -9 -2 0 7 -7 10 -17 7 -15 -5 -16 -4 -3 5 20 14
47 14 56 -1z m791 -140 c-2 -29 -3 -8 -3 47 0 55 1 79 3 53 2 -26 2 -71 0
-100z m100 0 c-2 -29 -3 -8 -3 47 0 55 1 79 3 53 2 -26 2 -71 0 -100z m-40
-10 c-2 -29 -3 -8 -3 47 0 55 1 79 3 53 2 -26 2 -71 0 -100z m92 80 c-2 -110
-16 -134 -18 -30 -1 55 3 92 9 92 6 0 9 -27 9 -62z m-926 30 c-2 -5 -37 -8
-78 -8 -41 0 -76 3 -78 8 -3 4 32 7 78 7 46 0 81 -3 78 -7z m-133 -88 c0 -5
-2 -10 -4 -10 -3 0 -8 5 -11 10 -3 6 -1 10 4 10 6 0 11 -4 11 -10z m148 -7
c-10 -2 -26 -2 -35 0 -10 3 -2 5 17 5 19 0 27 -2 18 -5z m-118 -93 c7 -14 10
-23 7 -20 -10 9 -57 81 -57 87 0 9 35 -38 50 -67z m34 -46 c3 -8 2 -12 -4 -9
-6 3 -10 10 -10 16 0 14 7 11 14 -7z m27 -41 c13 -16 12 -17 -3 -4 -17 13 -22
21 -14 21 2 0 10 -8 17 -17z m568 -99 c11 -14 29 -50 41 -81 l20 -55 -20 -28
c-11 -16 -34 -31 -50 -35 -16 -4 -32 -11 -35 -16 -4 -5 -23 -9 -44 -9 -44 0
-95 31 -120 73 l-16 28 80 74 c87 81 112 90 144 49z m-460 -48 c-2 -2 -13 8
-23 22 l-19 27 24 -22 c12 -12 21 -24 18 -27z m32 -213 c-5 -10 -17 -27 -26
-38 -16 -19 -17 -19 -3 5 26 46 29 50 34 50 3 0 0 -8 -5 -17z m606 -615 c-2
-13 -4 -5 -4 17 -1 22 1 32 4 23 2 -10 2 -28 0 -40z m-17 -53 c-7 -9 -15 -13
-17 -11 -6 6 20 36 26 30 2 -2 -2 -10 -9 -19z"/>
<path d="M4110 2410 c0 -13 11 -13 30 0 12 8 11 10 -7 10 -13 0 -23 -4 -23
-10z"/>
<path d="M4208 2363 c6 -2 18 -2 25 0 6 3 1 5 -13 5 -14 0 -19 -2 -12 -5z"/>
<path d="M4155 2230 c27 -12 43 -12 25 0 -8 5 -22 9 -30 9 -10 0 -8 -3 5 -9z"/>
<path d="M4020 1761 c0 -28 -4 -53 -10 -56 -16 -10 -12 -81 5 -95 13 -10 18
-11 28 -1 9 10 8 11 -7 5 -17 -7 -18 -3 -12 52 4 32 7 76 8 96 0 23 4 35 11
31 6 -3 7 -1 3 5 -15 25 -26 10 -26 -37z"/>
<path d="M4050 1771 c0 -10 19 -25 25 -20 1 2 -3 10 -11 17 -8 7 -14 8 -14 3z"/>
<path d="M4050 1725 c0 -8 7 -15 16 -15 14 0 14 3 4 15 -7 8 -14 15 -16 15 -2
0 -4 -7 -4 -15z"/>
<path d="M4091 1704 c0 -11 3 -14 6 -6 3 7 2 16 -1 19 -3 4 -6 -2 -5 -13z"/>
<path d="M4096 1655 c-4 -16 -13 -33 -19 -37 -9 -6 -9 -8 1 -8 14 0 35 46 29
64 -2 6 -7 -3 -11 -19z"/>
<path d="M2725 3539 c-99 -24 -145 -57 -330 -243 -203 -204 -283 -265 -346
-264 -34 0 -47 -6 -73 -32 l-31 -31 50 7 c101 14 206 68 255 129 56 72 244
256 308 302 169 122 301 140 413 59 42 -31 119 -131 119 -155 0 -14 27 -14 35
-1 10 17 -44 100 -98 152 -81 77 -185 104 -302 77z"/>
<path d="M4495 3469 c-75 -11 -183 -45 -219 -69 l-28 -18 34 -11 c31 -10 40
-8 79 13 186 105 506 55 734 -114 75 -55 167 -159 201 -225 29 -58 31 -60 72
-60 49 0 53 8 13 26 -18 8 -37 30 -50 57 -72 147 -244 285 -441 354 -125 43
-290 63 -395 47z"/>
<path d="M1840 2909 c0 -5 5 -7 10 -4 6 3 10 8 10 11 0 2 -4 4 -10 4 -5 0 -10
-5 -10 -11z"/>
<path d="M5405 2910 c11 -5 42 -16 69 -26 l48 -18 -42 -12 c-47 -14 -60 -27
-60 -62 0 -26 21 -36 100 -47 42 -5 78 -21 150 -65 74 -44 121 -64 210 -89 63
-18 123 -36 132 -42 10 -5 28 -9 40 -8 16 0 18 2 8 6 -14 6 -111 67 -292 186
-58 38 -82 61 -99 95 -23 44 -23 44 -68 39 -35 -4 -62 2 -118 24 -41 16 -79
29 -86 28 -6 0 -3 -4 8 -9z"/>
<path d="M5401 2774 c0 -11 3 -14 6 -6 3 7 2 16 -1 19 -3 4 -6 -2 -5 -13z"/>
<path d="M3292 2630 c0 -14 2 -19 5 -12 2 6 2 18 0 25 -3 6 -5 1 -5 -13z"/>
<path d="M5933 2533 c9 -2 25 -2 35 0 9 3 1 5 -18 5 -19 0 -27 -2 -17 -5z"/>
<path d="M1423 2493 c15 -2 37 -2 50 0 12 2 0 4 -28 4 -27 0 -38 -2 -22 -4z"/>
<path d="M6193 2393 c15 -2 37 -2 50 0 12 2 0 4 -28 4 -27 0 -38 -2 -22 -4z"/>
<path d="M1163 2293 c15 -2 37 -2 50 0 12 2 0 4 -28 4 -27 0 -38 -2 -22 -4z"/>
<path d="M3314 2285 c11 -8 22 -12 25 -9 6 6 -19 24 -34 24 -5 -1 -1 -7 9 -15z"/>
<path d="M6448 2223 c23 -2 59 -2 80 0 20 2 1 4 -43 4 -44 0 -61 -2 -37 -4z"/>
<path d="M4098 2123 c6 -2 18 -2 25 0 6 3 1 5 -13 5 -14 0 -19 -2 -12 -5z"/>
<path d="M943 2113 c15 -2 37 -2 50 0 12 2 0 4 -28 4 -27 0 -38 -2 -22 -4z"/>
<path d="M4152 2109 c11 -6 15 -20 14 -45 l-3 -35 23 22 c24 22 24 22 4 36
-11 8 -18 18 -16 22 3 4 -5 8 -17 8 -19 2 -20 0 -5 -8z m38 -39 c0 -5 -4 -10
-10 -10 -5 0 -10 5 -10 10 0 6 5 10 10 10 6 0 10 -4 10 -10z"/>
<path d="M6740 2060 l-65 -7 62 -1 c34 -1 65 3 68 8 3 6 5 9 3 8 -2 -1 -32 -4
-68 -8z"/>
<path d="M4076 2008 c3 -4 11 -5 19 -1 21 7 19 12 -4 10 -11 0 -18 -5 -15 -9z"/>
<path d="M4105 1994 c-19 -15 -22 -21 -9 -15 18 9 52 41 43 41 -2 0 -17 -12
-34 -26z"/>
<path d="M4061 1974 c0 -11 3 -14 6 -6 3 7 2 16 -1 19 -3 4 -6 -2 -5 -13z"/>
<path d="M4195 1960 c-3 -5 -1 -10 4 -10 6 0 11 5 11 10 0 6 -2 10 -4 10 -3 0
-8 -4 -11 -10z"/>
<path d="M4221 1944 c0 -11 3 -14 6 -6 3 7 2 16 -1 19 -3 4 -6 -2 -5 -13z"/>
<path d="M4171 1924 c0 -11 3 -14 6 -6 3 7 2 16 -1 19 -3 4 -6 -2 -5 -13z"/>
<path d="M4142 1914 c-12 -13 -11 -19 2 -39 9 -14 19 -25 22 -25 4 0 2 6 -3
13 -5 6 -8 24 -7 40 3 31 3 31 -14 11z"/>
<path d="M6947 1903 c18 -2 50 -2 70 0 21 2 7 4 -32 4 -38 0 -55 -2 -38 -4z"/>
<path d="M600 1889 c0 -6 22 -9 59 -7 33 1 57 6 55 10 -8 12 -114 10 -114 -3z"/>
<path d="M4203 1880 c-6 -14 -8 -29 -5 -34 7 -13 24 22 19 42 -3 14 -6 12 -14
-8z"/>
<path d="M4180 1831 c0 -5 5 -13 10 -16 6 -3 10 -2 10 4 0 5 -4 13 -10 16 -5
3 -10 2 -10 -4z"/>
<path d="M3796 1567 c3 -10 9 -15 12 -12 3 3 0 11 -7 18 -10 9 -11 8 -5 -6z"/>
<path d="M65 60 c-3 -11 -3 -24 0 -30 8 -13 35 -13 35 0 0 5 13 7 31 3 21 -4
34 -1 40 8 7 12 9 12 9 -1 0 -13 1 -13 10 0 6 10 10 11 10 3 0 -23 38 -14 43
10 l4 22 2 -22 c0 -13 5 -23 10 -23 5 0 12 10 14 23 4 22 4 22 6 0 1 -17 7
-21 31 -21 22 1 30 6 30 19 0 10 -8 18 -17 19 -26 2 -91 2 -105 0 -7 -1 -43 1
-80 4 -61 6 -67 4 -73 -14z m92 -12 c-3 -8 -6 -5 -6 6 -1 11 2 17 5 13 3 -3 4
-12 1 -19z"/>
<path d="M350 53 c0 -22 2 -25 10 -13 5 8 10 10 10 5 0 -6 16 -12 35 -13 31
-2 35 0 34 20 0 22 -1 22 -9 3 -7 -16 -9 -17 -9 -3 -1 23 -19 32 -36 18 -11
-9 -15 -9 -15 -1 0 6 -4 11 -10 11 -5 0 -10 -12 -10 -27z"/>
<path d="M470 63 c0 -15 -2 -16 -10 -3 -8 12 -10 11 -10 -7 0 -21 4 -23 60
-23 57 0 60 1 60 25 0 14 -4 25 -10 25 -5 0 -10 -3 -10 -7 0 -5 -13 -8 -30 -8
-16 0 -30 3 -30 8 0 4 -4 7 -10 7 -5 0 -10 -8 -10 -17z"/>
</g>
</svg>
